STARTFONT 2.1
COMMENT
COMMENT Converted from OpenType font "VeraMono.ttf" by "otf2bdf 3.0".
COMMENT
FONT -FreeType-Bitstream Vera Sans Mono-Medium-R-Normal--22-160-100-100-P-179-ISO10646-1
SIZE 16 100 100
FONTBOUNDINGBOX 22 27 0 -6
STARTPROPERTIES 19
FOUNDRY "FreeType"
FAMILY_NAME "Bitstream Vera Sans Mono"
WEIGHT_NAME "Medium"
SLANT "R"
SETWIDTH_NAME "Normal"
ADD_STYLE_NAME ""
PIXEL_SIZE 22
POINT_SIZE 160
RESOLUTION_X 100
RESOLUTION_Y 100
SPACING "P"
AVERAGE_WIDTH 179
CHARSET_REGISTRY "ISO10646"
CHARSET_ENCODING "1"
FONT_ASCENT 20
FONT_DESCENT 5
COPYRIGHT "Copyright (c) 2003 by Bitstream, Inc. All Rights Reserved."
_OTF_FONTFILE "VeraMono.ttf"
_OTF_PSNAME "BitstreamVeraSansMono-Roman"
ENDPROPERTIES
CHARS 12311
STARTCHAR 0020
ENCODING 32
SWIDTH 990 0
DWIDTH 22 0
BBX 0 0 0 0
BITMAP
ENDCHAR
STARTCHAR 0021
ENCODING 33
SWIDTH 990 0
DWIDTH 22 0
BBX 2 16 6 0
BITMAP
C0
C0
C0
C0
C0
C0
C0
C0
C0
C0
C0
00
00
C0
C0
C0
ENDCHAR
STARTCHAR 0022
ENCODING 34
SWIDTH 990 0
DWIDTH 22 0
BBX 6 6 4 10
BITMAP
CC
CC
CC
CC
CC
CC
ENDCHAR
STARTCHAR 0023
ENCODING 35
SWIDTH 990 0
DWIDTH 22 0
BBX 13 16 0 0
BITMAP
0630
0620
0660
0460
0C60
7FF8
7FF8
08C0
18C0
1880
FFF0
FFF0
3180
3100
3300
2300
ENDCHAR
STARTCHAR 0024
ENCODING 36
SWIDTH 990 0
DWIDTH 22 0
BBX 10 19 2 -3
BITMAP
0800
0800
3F00
7F00
C800
C800
C800
E800
7E00
1F80
09C0
08C0
08C0
89C0
FF80
7F00
0800
0800
0800
ENDCHAR
STARTCHAR 0025
ENCODING 37
SWIDTH 990 0
DWIDTH 22 0
BBX 13 15 1 0
BITMAP
3800
FC00
8200
8200
C600
7C38
11C0
0700
3840
E1F0
0338
0218
0218
03F8
01E0
ENDCHAR
STARTCHAR 0026
ENCODING 38
SWIDTH 990 0
DWIDTH 22 0
BBX 12 16 1 0
BITMAP
0F80
1F80
3000
3000
3000
3800
1800
3C00
6630
C730
C330
C1A0
C0E0
60C0
7FE0
1F30
ENDCHAR
STARTCHAR 0027
ENCODING 39
SWIDTH 990 0
DWIDTH 22 0
BBX 2 6 6 10
BITMAP
C0
C0
C0
C0
C0
C0
ENDCHAR
STARTCHAR 0028
ENCODING 40
SWIDTH 990 0
DWIDTH 22 0
BBX 5 19 5 -3
BITMAP
18
30
30
60
60
60
C0
C0
C0
C0
C0
C0
C0
60
60
60
30
30
18
ENDCHAR
STARTCHAR 0029
ENCODING 41
SWIDTH 990 0
DWIDTH 22 0
BBX 5 19 3 -3
BITMAP
C0
60
60
30
30
30
18
18
18
18
18
18
18
30
30
30
60
60
C0
ENDCHAR
STARTCHAR 002A
ENCODING 42
SWIDTH 990 0
DWIDTH 22 0
BBX 9 10 2 6
BITMAP
0800
0800
8980
6B00
1C00
1C00
6B00
8980
0800
0800
ENDCHAR
STARTCHAR 002B
ENCODING 43
SWIDTH 990 0
DWIDTH 22 0
BBX 11 11 1 1
BITMAP
0600
0600
0600
0600
FFE0
FFE0
0600
0600
0600
0600
0600
ENDCHAR
STARTCHAR 002C
ENCODING 44
SWIDTH 990 0
DWIDTH 22 0
BBX 3 6 4 -3
BITMAP
60
60
60
60
C0
C0
ENDCHAR
STARTCHAR 002D
ENCODING 45
SWIDTH 990 0
DWIDTH 22 0
BBX 6 2 4 5
BITMAP
FC
FC
ENDCHAR
STARTCHAR 002E
ENCODING 46
SWIDTH 990 0
DWIDTH 22 0
BBX 2 3 5 0
BITMAP
C0
C0
C0
ENDCHAR
STARTCHAR 002F
ENCODING 47
SWIDTH 990 0
DWIDTH 22 0
BBX 10 18 1 -2
BITMAP
00C0
00C0
0180
0180
0300
0300
0600
0600
0E00
0C00
0C00
1800
1800
3000
3000
6000
6000
C000
ENDCHAR
STARTCHAR 0030
ENCODING 48
SWIDTH 990 0
DWIDTH 22 0
BBX 10 16 1 0
BITMAP
1E00
3F00
6180
6180
C0C0
C0C0
C4C0
CEC0
CEC0
C0C0
C0C0
C0C0
6180
6180
3F00
1E00
ENDCHAR
STARTCHAR 0031
ENCODING 49
SWIDTH 990 0
DWIDTH 22 0
BBX 10 16 2 0
BITMAP
3C00
FC00
CC00
0C00
0C00
0C00
0C00
0C00
0C00
0C00
0C00
0C00
0C00
0C00
7FC0
7FC0
ENDCHAR
STARTCHAR 0032
ENCODING 50
SWIDTH 990 0
DWIDTH 22 0
BBX 10 16 2 0
BITMAP
7E00
FF80
81C0
00C0
00C0
00C0
01C0
0180
0300
0600
0C00
1800
3000
6000
FFC0
FFC0
ENDCHAR
STARTCHAR 0033
ENCODING 51
SWIDTH 990 0
DWIDTH 22 0
BBX 10 16 1 0
BITMAP
3F00
7F80
01C0
00C0
00C0
01C0
1F80
1F00
0180
00C0
00C0
00C0
00C0
81C0
FF80
7E00
ENDCHAR
STARTCHAR 0034
ENCODING 52
SWIDTH 990 0
DWIDTH 22 0
BBX 11 16 1 0
BITMAP
0380
0380
0780
0D80
0980
1980
3180
3180
6180
4180
FFE0
FFE0
0180
0180
0180
0180
ENDCHAR
STARTCHAR 0035
ENCODING 53
SWIDTH 990 0
DWIDTH 22 0
BBX 10 16 2 0
BITMAP
7F80
7F80
6000
6000
6000
6C00
7F00
4380
01C0
00C0
00C0
00C0
00C0
8180
FF80
7E00
ENDCHAR
STARTCHAR 0036
ENCODING 54
SWIDTH 990 0
DWIDTH 22 0
BBX 10 16 1 0
BITMAP
1F80
3F80
7000
6000
C000
CC00
DF80
F180
E0C0
C0C0
C0C0
C0C0
60C0
61C0
3F80
1F00
ENDCHAR
STARTCHAR 0037
ENCODING 55
SWIDTH 990 0
DWIDTH 22 0
BBX 10 16 1 0
BITMAP
FFC0
FFC0
0180
0180
0380
0300
0300
0700
0600
0600
0C00
0C00
1C00
1800
1800
3800
ENDCHAR
STARTCHAR 0038
ENCODING 56
SWIDTH 990 0
DWIDTH 22 0
BBX 10 16 1 0
BITMAP
3F00
7F80
E1C0
C0C0
C0C0
6180
3F00
3F00
6180
C0C0
C0C0
C0C0
C0C0
E1C0
7F80
3F00
ENDCHAR
STARTCHAR 0039
ENCODING 57
SWIDTH 990 0
DWIDTH 22 0
BBX 10 16 1 0
BITMAP
1E00
7F00
6180
C080
C0C0
C0C0
C0C0
C1C0
61C0
7FC0
0CC0
00C0
0180
0180
7F00
7E00
ENDCHAR
STARTCHAR 003A
ENCODING 58
SWIDTH 990 0
DWIDTH 22 0
BBX 2 11 5 0
BITMAP
C0
C0
C0
00
00
00
00
00
C0
C0
C0
ENDCHAR
STARTCHAR 003B
ENCODING 59
SWIDTH 990 0
DWIDTH 22 0
BBX 3 14 4 -3
BITMAP
60
60
60
00
00
00
00
00
60
60
60
60
C0
C0
ENDCHAR
STARTCHAR 003C
ENCODING 60
SWIDTH 990 0
DWIDTH 22 0
BBX 11 10 1 1
BITMAP
0020
01E0
07C0
3E00
F000
E000
7800
1F00
03E0
00E0
ENDCHAR
STARTCHAR 003D
ENCODING 61
SWIDTH 990 0
DWIDTH 22 0
BBX 11 6 1 4
BITMAP
FFE0
FFE0
0000
0000
FFE0
FFE0
ENDCHAR
STARTCHAR 003E
ENCODING 62
SWIDTH 990 0
DWIDTH 22 0
BBX 11 10 1 1
BITMAP
8000
F000
7C00
0F80
01E0
00E0
03C0
1F00
F800
E000
ENDCHAR
STARTCHAR 003F
ENCODING 63
SWIDTH 990 0
DWIDTH 22 0
BBX 8 16 3 0
BITMAP
7C
FE
07
03
03
06
0E
1C
30
30
30
30
00
30
30
30
ENDCHAR
STARTCHAR 0040
ENCODING 64
SWIDTH 990 0
DWIDTH 22 0
BBX 13 18 0 -3
BITMAP
07C0
1FF0
3830
7018
6198
E7F8
CE38
CC18
CC18
CC18
CC18
CE38
67F8
6198
7000
3800
1FE0
07E0
ENDCHAR
STARTCHAR 0041
ENCODING 65
SWIDTH 990 0
DWIDTH 22 0
BBX 12 16 1 0
BITMAP
0E00
0E00
1B00
1B00
1B00
1980
3180
3180
3180
70C0
7FC0
7FC0
E0E0
C060
C060
C070
ENDCHAR
STARTCHAR 0042
ENCODING 66
SWIDTH 990 0
DWIDTH 22 0
BBX 10 16 2 0
BITMAP
FF00
FF80
C1C0
C0C0
C0C0
C0C0
C180
FF00
FF80
C1C0
C0C0
C0C0
C0C0
C1C0
FF80
FF00
ENDCHAR
STARTCHAR 0043
ENCODING 67
SWIDTH 990 0
DWIDTH 22 0
BBX 10 16 1 0
BITMAP
0F80
3FC0
7040
6000
E000
C000
C000
C000
C000
C000
C000
E000
6000
7040
3FC0
0F80
ENDCHAR
STARTCHAR 0044
ENCODING 68
SWIDTH 990 0
DWIDTH 22 0
BBX 10 16 1 0
BITMAP
FC00
FF00
C380
C180
C0C0
C0C0
C0C0
C0C0
C0C0
C0C0
C0C0
C0C0
C180
C380
FF00
FC00
ENDCHAR
STARTCHAR 0045
ENCODING 69
SWIDTH 990 0
DWIDTH 22 0
BBX 9 16 2 0
BITMAP
FF80
FF80
C000
C000
C000
C000
C000
FF80
FF80
C000
C000
C000
C000
C000
FF80
FF80
ENDCHAR
STARTCHAR 0046
ENCODING 70
SWIDTH 990 0
DWIDTH 22 0
BBX 9 16 2 0
BITMAP
FF80
FF80
C000
C000
C000
C000
C000
FF80
FF80
C000
C000
C000
C000
C000
C000
C000
ENDCHAR
STARTCHAR 0047
ENCODING 71
SWIDTH 990 0
DWIDTH 22 0
BBX 11 16 1 0
BITMAP
0F80
3FC0
7040
6000
E000
C000
C000
C000
C1E0
C1E0
C060
E060
6060
7060
3FE0
0F80
ENDCHAR
STARTCHAR 0048
ENCODING 72
SWIDTH 990 0
DWIDTH 22 0
BBX 10 16 1 0
BITMAP
C0C0
C0C0
C0C0
C0C0
C0C0
C0C0
C0C0
FFC0
FFC0
C0C0
C0C0
C0C0
C0C0
C0C0
C0C0
C0C0
ENDCHAR
STARTCHAR 0049
ENCODING 73
SWIDTH 990 0
DWIDTH 22 0
BBX 9 16 2 0
BITMAP
FF80
FF80
1800
1800
1800
1800
1800
1800
1800
1800
1800
1800
1800
1800
FF80
FF80
ENDCHAR
STARTCHAR 004A
ENCODING 74
SWIDTH 990 0
DWIDTH 22 0
BBX 9 16 1 0
BITMAP
1F80
1F80
0180
0180
0180
0180
0180
0180
0180
0180
0180
0180
0180
8380
FF00
7E00
ENDCHAR
STARTCHAR 004B
ENCODING 75
SWIDTH 990 0
DWIDTH 22 0
BBX 11 16 1 0
BITMAP
C0E0
C1C0
C380
C700
C600
CC00
D800
FC00
EC00
C600
C700
C300
C180
C1C0
C0C0
C060
ENDCHAR
STARTCHAR 004C
ENCODING 76
SWIDTH 990 0
DWIDTH 22 0
BBX 10 16 2 0
BITMAP
C000
C000
C000
C000
C000
C000
C000
C000
C000
C000
C000
C000
C000
C000
FFC0
FFC0
ENDCHAR
STARTCHAR 004D
ENCODING 77
SWIDTH 990 0
DWIDTH 22 0
BBX 11 16 1 0
BITMAP
E0E0
E0E0
F1E0
D160
D160
DB60
CA60
CA60
CE60
C460
C060
C060
C060
C060
C060
C060
ENDCHAR
STARTCHAR 004E
ENCODING 78
SWIDTH 990 0
DWIDTH 22 0
BBX 10 16 1 0
BITMAP
E0C0
E0C0
F0C0
F0C0
D8C0
D8C0
C8C0
CCC0
CCC0
C6C0
C6C0
C2C0
C3C0
C3C0
C1C0
C1C0
ENDCHAR
STARTCHAR 004F
ENCODING 79
SWIDTH 990 0
DWIDTH 22 0
BBX 10 16 1 0
BITMAP
1E00
3F00
6180
6180
C0C0
C0C0
C0C0
C0C0
C0C0
C0C0
C0C0
C0C0
61C0
6180
3F00
1E00
ENDCHAR
STARTCHAR 0050
ENCODING 80
SWIDTH 990 0
DWIDTH 22 0
BBX 10 16 2 0
BITMAP
FE00
FF80
C1C0
C0C0
C0C0
C0C0
C0C0
C180
FF80
FC00
C000
C000
C000
C000
C000
C000
ENDCHAR
STARTCHAR 0051
ENCODING 81
SWIDTH 990 0
DWIDTH 22 0
BBX 10 18 1 -3
BITMAP
1E00
3F00
6180
6180
C0C0
C0C0
C0C0
C0C0
C0C0
C0C0
C0C0
C0C0
61C0
6180
3F80
1E00
0300
0180
ENDCHAR
STARTCHAR 0052
ENCODING 82
SWIDTH 990 0
DWIDTH 22 0
BBX 12 16 2 0
BITMAP
FE00
FF80
C180
C0C0
C0C0
C0C0
C0C0
C180
FF00
FF00
C180
C180
C0C0
C0E0
C060
C070
ENDCHAR
STARTCHAR 0053
ENCODING 83
SWIDTH 990 0
DWIDTH 22 0
BBX 10 16 2 0
BITMAP
1F00
7F80
E080
C000
C000
C000
F000
7E00
1F80
01C0
00C0
00C0
00C0
81C0
FF80
7E00
ENDCHAR
STARTCHAR 0054
ENCODING 84
SWIDTH 990 0
DWIDTH 22 0
BBX 12 16 0 0
BITMAP
FFF0
FFF0
0600
0600
0600
0600
0600
0600
0600
0600
0600
0600
0600
0600
0600
0600
ENDCHAR
STARTCHAR 0055
ENCODING 85
SWIDTH 990 0
DWIDTH 22 0
BBX 10 16 2 0
BITMAP
C0C0
C0C0
C0C0
C0C0
C0C0
C0C0
C0C0
C0C0
C0C0
C0C0
C0C0
C0C0
C0C0
E1C0
7F80
3E00
ENDCHAR
STARTCHAR 0056
ENCODING 86
SWIDTH 990 0
DWIDTH 22 0
BBX 11 16 1 0
BITMAP
C060
C060
C060
60E0
60C0
60C0
70C0
3180
3180
3180
1B00
1B00
1B00
0B00
0E00
0E00
ENDCHAR
STARTCHAR 0057
ENCODING 87
SWIDTH 990 0
DWIDTH 22 0
BBX 13 16 0 0
BITMAP
C018
C018
C018
6018
6730
6730
6530
6530
6DB0
6DB0
2DB0
28A0
38A0
38E0
38E0
3860
ENDCHAR
STARTCHAR 0058
ENCODING 88
SWIDTH 990 0
DWIDTH 22 0
BBX 13 16 0 0
BITMAP
7030
3070
3860
18C0
0CC0
0D80
0700
0700
0700
0D80
0DC0
18C0
3860
3060
6030
E038
ENDCHAR
STARTCHAR 0059
ENCODING 89
SWIDTH 990 0
DWIDTH 22 0
BBX 12 16 0 0
BITMAP
C030
6060
70E0
30C0
19C0
1980
0F00
0F00
0600
0600
0600
0600
0600
0600
0600
0600
ENDCHAR
STARTCHAR 005A
ENCODING 90
SWIDTH 990 0
DWIDTH 22 0
BBX 11 16 2 0
BITMAP
FFE0
FFE0
00C0
01C0
0180
0300
0700
0600
0C00
1C00
1800
3000
7000
6000
FFE0
FFE0
ENDCHAR
STARTCHAR 005B
ENCODING 91
SWIDTH 990 0
DWIDTH 22 0
BBX 5 20 5 -4
BITMAP
F8
F8
C0
C0
C0
C0
C0
C0
C0
C0
C0
C0
C0
C0
C0
C0
C0
C0
F8
F8
ENDCHAR
STARTCHAR 005C
ENCODING 92
SWIDTH 990 0
DWIDTH 22 0
BBX 10 18 1 -2
BITMAP
C000
6000
6000
3000
3000
1800
1800
0C00
0C00
0E00
0600
0600
0300
0300
0180
0180
00C0
00C0
ENDCHAR
STARTCHAR 005D
ENCODING 93
SWIDTH 990 0
DWIDTH 22 0
BBX 5 20 3 -4
BITMAP
F8
F8
18
18
18
18
18
18
18
18
18
18
18
18
18
18
18
18
F8
F8
ENDCHAR
STARTCHAR 005E
ENCODING 94
SWIDTH 990 0
DWIDTH 22 0
BBX 11 6 1 10
BITMAP
0E00
1F00
1B80
3180
60C0
C060
ENDCHAR
STARTCHAR 005F
ENCODING 95
SWIDTH 990 0
DWIDTH 22 0
BBX 11 1 0 -5
BITMAP
FFE0
ENDCHAR
STARTCHAR 0060
ENCODING 96
SWIDTH 990 0
DWIDTH 22 0
BBX 5 4 3 13
BITMAP
C0
60
30
18
ENDCHAR
STARTCHAR 0061
ENCODING 97
SWIDTH 990 0
DWIDTH 22 0
BBX 10 12 1 0
BITMAP
3F00
7F80
01C0
00C0
0FC0
7FC0
E0C0
C0C0
C0C0
C1C0
7FC0
3CC0
ENDCHAR
STARTCHAR 0062
ENCODING 98
SWIDTH 990 0
DWIDTH 22 0
BBX 10 16 2 0
BITMAP
C000
C000
C000
C000
DE00
FF80
E180
C0C0
C0C0
C0C0
C0C0
C0C0
C0C0
E180
FF80
DE00
ENDCHAR
STARTCHAR 0063
ENCODING 99
SWIDTH 990 0
DWIDTH 22 0
BBX 9 12 2 0
BITMAP
1F00
3F80
6080
E000
C000
C000
C000
C000
E000
6000
3F80
1F00
ENDCHAR
STARTCHAR 0064
ENCODING 100
SWIDTH 990 0
DWIDTH 22 0
BBX 10 16 1 0
BITMAP
00C0
00C0
00C0
00C0
1EC0
7FC0
61C0
C0C0
C0C0
C0C0
C0C0
C0C0
C0C0
61C0
7FC0
1EC0
ENDCHAR
STARTCHAR 0065
ENCODING 101
SWIDTH 990 0
DWIDTH 22 0
BBX 11 12 1 0
BITMAP
1F00
3FC0
60C0
E060
C060
FFE0
FFE0
C000
C000
6000
3FC0
1F80
ENDCHAR
STARTCHAR 0066
ENCODING 102
SWIDTH 990 0
DWIDTH 22 0
BBX 9 16 2 0
BITMAP
0F80
1F80
1800
1800
FF80
FF80
1800
1800
1800
1800
1800
1800
1800
1800
1800
1800
ENDCHAR
STARTCHAR 0067
ENCODING 103
SWIDTH 990 0
DWIDTH 22 0
BBX 10 16 1 -4
BITMAP
1EC0
7FC0
61C0
C0C0
C0C0
C0C0
C0C0
C0C0
C0C0
61C0
7FC0
1EC0
00C0
0180
7F80
7E00
ENDCHAR
STARTCHAR 0068
ENCODING 104
SWIDTH 990 0
DWIDTH 22 0
BBX 9 16 2 0
BITMAP
C000
C000
C000
C000
DE00
FF00
E180
C180
C180
C180
C180
C180
C180
C180
C180
C180
ENDCHAR
STARTCHAR 0069
ENCODING 105
SWIDTH 990 0
DWIDTH 22 0
BBX 10 16 2 0
BITMAP
0C00
0C00
0000
0000
7C00
7C00
0C00
0C00
0C00
0C00
0C00
0C00
0C00
0C00
FFC0
FFC0
ENDCHAR
STARTCHAR 006A
ENCODING 106
SWIDTH 990 0
DWIDTH 22 0
BBX 6 20 2 -4
BITMAP
0C
0C
00
00
7C
7C
0C
0C
0C
0C
0C
0C
0C
0C
0C
0C
0C
0C
F8
F0
ENDCHAR
STARTCHAR 006B
ENCODING 107
SWIDTH 990 0
DWIDTH 22 0
BBX 10 16 3 0
BITMAP
C000
C000
C000
C000
C180
C300
C600
CC00
D800
FC00
EC00
C600
C700
C380
C180
C0C0
ENDCHAR
STARTCHAR 006C
ENCODING 108
SWIDTH 990 0
DWIDTH 22 0
BBX 9 16 2 0
BITMAP
F800
F800
1800
1800
1800
1800
1800
1800
1800
1800
1800
1800
1800
1800
0F80
0780
ENDCHAR
STARTCHAR 006D
ENCODING 109
SWIDTH 990 0
DWIDTH 22 0
BBX 10 12 1 0
BITMAP
FB80
FFC0
CCC0
CCC0
CCC0
CCC0
CCC0
CCC0
CCC0
CCC0
CCC0
CCC0
ENDCHAR
STARTCHAR 006E
ENCODING 110
SWIDTH 990 0
DWIDTH 22 0
BBX 9 12 2 0
BITMAP
DE00
FF00
E180
C180
C180
C180
C180
C180
C180
C180
C180
C180
ENDCHAR
STARTCHAR 006F
ENCODING 111
SWIDTH 990 0
DWIDTH 22 0
BBX 10 12 1 0
BITMAP
1E00
7F80
6180
C0C0
C0C0
C0C0
C0C0
C0C0
C0C0
6180
7F80
1E00
ENDCHAR
STARTCHAR 0070
ENCODING 112
SWIDTH 990 0
DWIDTH 22 0
BBX 10 16 2 -4
BITMAP
DE00
FF80
E180
C0C0
C0C0
C0C0
C0C0
C0C0
C0C0
E180
FF80
DE00
C000
C000
C000
C000
ENDCHAR
STARTCHAR 0071
ENCODING 113
SWIDTH 990 0
DWIDTH 22 0
BBX 10 16 1 -4
BITMAP
1EC0
7FC0
61C0
C0C0
C0C0
C0C0
C0C0
C0C0
C0C0
61C0
7FC0
1EC0
00C0
00C0
00C0
00C0
ENDCHAR
STARTCHAR 0072
ENCODING 114
SWIDTH 990 0
DWIDTH 22 0
BBX 8 12 4 0
BITMAP
CF
FF
E0
C0
C0
C0
C0
C0
C0
C0
C0
C0
ENDCHAR
STARTCHAR 0073
ENCODING 115
SWIDTH 990 0
DWIDTH 22 0
BBX 9 12 2 0
BITMAP
3E00
7F00
C000
C000
E000
7E00
1F00
0380
0180
0180
FF00
7E00
ENDCHAR
STARTCHAR 0074
ENCODING 116
SWIDTH 990 0
DWIDTH 22 0
BBX 10 15 1 1
BITMAP
1800
1800
1800
FFC0
FFC0
1800
1800
1800
1800
1800
1800
1800
1800
1FC0
07C0
ENDCHAR
STARTCHAR 0075
ENCODING 117
SWIDTH 990 0
DWIDTH 22 0
BBX 9 12 2 0
BITMAP
C180
C180
C180
C180
C180
C180
C180
C180
C180
E380
7F80
3D80
ENDCHAR
STARTCHAR 0076
ENCODING 118
SWIDTH 990 0
DWIDTH 22 0
BBX 11 12 1 0
BITMAP
C060
60E0
60C0
60C0
3180
3180
3180
1B00
1B00
1B00
0E00
0E00
ENDCHAR
STARTCHAR 0077
ENCODING 119
SWIDTH 990 0
DWIDTH 22 0
BBX 13 12 0 0
BITMAP
C018
C018
4018
6030
6330
6730
2530
3520
3DE0
38E0
38E0
18C0
ENDCHAR
STARTCHAR 0078
ENCODING 120
SWIDTH 990 0
DWIDTH 22 0
BBX 11 12 1 0
BITMAP
60E0
60C0
3180
1B00
0F00
0E00
0E00
1B00
3B80
3180
60C0
C060
ENDCHAR
STARTCHAR 0079
ENCODING 121
SWIDTH 990 0
DWIDTH 22 0
BBX 11 16 1 -4
BITMAP
C060
6060
60C0
30C0
31C0
3180
1980
1B00
0F00
0F00
0E00
0600
0C00
0C00
7800
7000
ENDCHAR
STARTCHAR 007A
ENCODING 122
SWIDTH 990 0
DWIDTH 22 0
BBX 9 12 2 0
BITMAP
FF80
FF80
0300
0700
0600
0C00
1800
3000
6000
6000
FF80
FF80
ENDCHAR
STARTCHAR 007B
ENCODING 123
SWIDTH 990 0
DWIDTH 22 0
BBX 8 20 2 -4
BITMAP
0F
1F
18
18
18
18
18
18
18
F0
F0
38
18
18
18
18
18
18
1F
0F
ENDCHAR
STARTCHAR 007C
ENCODING 124
SWIDTH 990 0
DWIDTH 22 0
BBX 2 21 6 -5
BITMAP
C0
C0
C0
C0
C0
C0
C0
C0
C0
C0
C0
C0
C0
C0
C0
C0
C0
C0
C0
C0
C0
ENDCHAR
STARTCHAR 007D
ENCODING 125
SWIDTH 990 0
DWIDTH 22 0
BBX 8 20 2 -4
BITMAP
F0
F8
18
18
18
18
18
18
18
0F
0F
1C
18
18
18
18
18
18
F8
F0
ENDCHAR
STARTCHAR 007E
ENCODING 126
SWIDTH 990 0
DWIDTH 22 0
BBX 11 3 1 5
BITMAP
7820
FFE0
83C0
ENDCHAR
STARTCHAR 00A0
ENCODING 160
SWIDTH 990 0
DWIDTH 22 0
BBX 0 0 0 0
BITMAP
ENDCHAR
STARTCHAR 00A1
ENCODING 161
SWIDTH 990 0
DWIDTH 22 0
BBX 2 16 5 0
BITMAP
C0
C0
C0
00
00
C0
C0
C0
C0
C0
C0
C0
C0
C0
C0
C0
ENDCHAR
STARTCHAR 00A2
ENCODING 162
SWIDTH 990 0
DWIDTH 22 0
BBX 9 18 2 -3
BITMAP
0400
0400
0400
1F00
3F80
6400
E400
C400
C400
C400
C400
E400
6400
3F80
1F00
0400
0400
0400
ENDCHAR
STARTCHAR 00A3
ENCODING 163
SWIDTH 990 0
DWIDTH 22 0
BBX 10 16 1 0
BITMAP
07C0
0FC0
1C00
1800
1800
1800
1800
1800
FF00
FF00
1800
1800
1800
1800
FFC0
FFC0
ENDCHAR
STARTCHAR 00A4
ENCODING 164
SWIDTH 990 0
DWIDTH 22 0
BBX 9 9 2 2
BITMAP
8080
DD80
7F00
4300
4100
4300
7F00
DD80
8080
ENDCHAR
STARTCHAR 00A5
ENCODING 165
SWIDTH 990 0
DWIDTH 22 0
BBX 13 16 0 0
BITMAP
E038
6070
3060
30E0
18C0
1980
7FF0
0F00
0600
7FF0
7FF0
0600
0600
0600
0600
0600
ENDCHAR
STARTCHAR 00A6
ENCODING 166
SWIDTH 990 0
DWIDTH 22 0
BBX 2 19 6 -4
BITMAP
C0
C0
C0
C0
C0
C0
C0
C0
00
00
00
C0
C0
C0
C0
C0
C0
C0
C0
ENDCHAR
STARTCHAR 00A7
ENCODING 167
SWIDTH 990 0
DWIDTH 22 0
BBX 9 18 2 -2
BITMAP
1F00
7F00
6000
6000
7000
3800
6E00
C700
C380
E180
7180
3B00
0E00
0700
0300
0300
7F00
3C00
ENDCHAR
STARTCHAR 00A8
ENCODING 168
SWIDTH 990 0
DWIDTH 22 0
BBX 6 2 3 14
BITMAP
CC
CC
ENDCHAR
STARTCHAR 00A9
ENCODING 169
SWIDTH 990 0
DWIDTH 22 0
BBX 13 13 0 2
BITMAP
0F80
3060
6030
4790
8808
9008
9008
9008
9008
5810
67B0
3060
0F80
ENDCHAR
STARTCHAR 00AA
ENCODING 170
SWIDTH 990 0
DWIDTH 22 0
BBX 8 11 3 5
BITMAP
7E
47
03
3F
E3
C3
C7
7B
00
FF
FF
ENDCHAR
STARTCHAR 00AB
ENCODING 171
SWIDTH 990 0
DWIDTH 22 0
BBX 10 9 1 2
BITMAP
0840
18C0
3180
6300
C600
E700
3180
18C0
0840
ENDCHAR
STARTCHAR 00AC
ENCODING 172
SWIDTH 990 0
DWIDTH 22 0
BBX 11 5 1 3
BITMAP
FFE0
FFE0
0060
0060
0060
ENDCHAR
STARTCHAR 00AD
ENCODING 173
SWIDTH 990 0
DWIDTH 22 0
BBX 6 2 4 5
BITMAP
FC
FC
ENDCHAR
STARTCHAR 00AE
ENCODING 174
SWIDTH 990 0
DWIDTH 22 0
BBX 13 13 0 2
BITMAP
0F80
3060
6030
4F10
8888
8888
8F08
8908
8988
4890
6030
3060
0F80
ENDCHAR
STARTCHAR 00AF
ENCODING 175
SWIDTH 990 0
DWIDTH 22 0
BBX 6 2 3 14
BITMAP
FC
FC
ENDCHAR
STARTCHAR 00B0
ENCODING 176
SWIDTH 990 0
DWIDTH 22 0
BBX 7 7 3 9
BITMAP
38
FC
86
82
86
FC
78
ENDCHAR
STARTCHAR 00B1
ENCODING 177
SWIDTH 990 0
DWIDTH 22 0
BBX 11 12 1 0
BITMAP
0600
0600
0600
FFE0
FFE0
0600
0600
0600
0600
0000
FFE0
FFE0
ENDCHAR
STARTCHAR 00B2
ENCODING 178
SWIDTH 990 0
DWIDTH 22 0
BBX 6 9 3 7
BITMAP
F8
0C
0C
0C
18
20
40
FC
FC
ENDCHAR
STARTCHAR 00B3
ENCODING 179
SWIDTH 990 0
DWIDTH 22 0
BBX 7 9 3 7
BITMAP
7C
06
06
0E
38
06
06
0E
FC
ENDCHAR
STARTCHAR 00B4
ENCODING 180
SWIDTH 990 0
DWIDTH 22 0
BBX 5 4 5 13
BITMAP
18
30
60
C0
ENDCHAR
STARTCHAR 00B5
ENCODING 181
SWIDTH 990 0
DWIDTH 22 0
BBX 10 16 2 -4
BITMAP
C180
C180
C180
C180
C180
C180
C180
C180
C180
E380
FFC0
DCC0
C000
C000
C000
C000
ENDCHAR
STARTCHAR 00B6
ENCODING 182
SWIDTH 990 0
DWIDTH 22 0
BBX 10 18 1 -3
BITMAP
1FC0
7FC0
7EC0
FEC0
FEC0
FEC0
7EC0
7EC0
3EC0
06C0
06C0
06C0
06C0
06C0
06C0
06C0
06C0
06C0
ENDCHAR
STARTCHAR 00B7
ENCODING 183
SWIDTH 990 0
DWIDTH 22 0
BBX 2 3 5 6
BITMAP
C0
C0
C0
ENDCHAR
STARTCHAR 00B8
ENCODING 184
SWIDTH 990 0
DWIDTH 22 0
BBX 5 4 4 -3
BITMAP
30
18
38
F0
ENDCHAR
STARTCHAR 00B9
ENCODING 185
SWIDTH 990 0
DWIDTH 22 0
BBX 6 9 4 6
BITMAP
F0
B0
30
30
30
30
30
30
FC
ENDCHAR
STARTCHAR 00BA
ENCODING 186
SWIDTH 990 0
DWIDTH 22 0
BBX 8 11 3 5
BITMAP
3C
66
C3
C3
C3
C3
66
3C
00
FE
FE
ENDCHAR
STARTCHAR 00BB
ENCODING 187
SWIDTH 990 0
DWIDTH 22 0
BBX 10 9 2 2
BITMAP
8400
C600
6300
3180
18C0
39C0
6300
C600
8400
ENDCHAR
STARTCHAR 00BC
ENCODING 188
SWIDTH 990 0
DWIDTH 22 0
BBX 11 21 1 -4
BITMAP
3000
F000
3000
3000
3000
3000
3000
3000
FC00
00E0
0F80
F800
C0C0
01C0
02C0
02C0
04C0
0CC0
0FE0
00C0
00C0
ENDCHAR
STARTCHAR 00BD
ENCODING 189
SWIDTH 990 0
DWIDTH 22 0
BBX 11 21 1 -3
BITMAP
3000
F000
3000
3000
3000
3000
3000
3000
FC00
00E0
0F80
F800
87C0
0060
0060
0060
00C0
0100
0200
07E0
07E0
ENDCHAR
STARTCHAR 00BE
ENCODING 190
SWIDTH 990 0
DWIDTH 22 0
BBX 11 20 1 -4
BITMAP
FC00
0600
0600
3800
0C00
0600
0600
8E00
F820
03E0
7C00
C0C0
01C0
02C0
02C0
04C0
0CC0
0FE0
00C0
00C0
ENDCHAR
STARTCHAR 00BF
ENCODING 191
SWIDTH 990 0
DWIDTH 22 0
BBX 8 16 2 0
BITMAP
0C
0C
0C
00
0C
0C
0C
1C
38
70
E0
C0
C0
E1
7F
3E
ENDCHAR
STARTCHAR 00C0
ENCODING 192
SWIDTH 990 0
DWIDTH 22 0
BBX 12 20 1 0
BITMAP
1800
0C00
0600
0000
0E00
0E00
1B00
1B00
1B00
1980
3180
3180
3180
70C0
7FC0
7FC0
E0E0
C060
C060
C070
ENDCHAR
STARTCHAR 00C1
ENCODING 193
SWIDTH 990 0
DWIDTH 22 0
BBX 12 20 1 0
BITMAP
0300
0600
0C00
0000
0E00
0E00
1B00
1B00
1B00
1980
3180
3180
3180
70C0
7FC0
7FC0
E0E0
C060
C060
C070
ENDCHAR
STARTCHAR 00C2
ENCODING 194
SWIDTH 990 0
DWIDTH 22 0
BBX 12 20 1 0
BITMAP
0E00
1B00
1100
0000
0E00
0E00
1B00
1B00
1B00
1980
3180
3180
3180
70C0
7FC0
7FC0
E0E0
C060
C060
C070
ENDCHAR
STARTCHAR 00C3
ENCODING 195
SWIDTH 990 0
DWIDTH 22 0
BBX 13 20 0 0
BITMAP
0E40
1380
0000
0000
0700
0F00
0D80
0D80
0D80
1980
18C0
18C0
30C0
3060
3FE0
3FE0
6070
6030
6030
E038
ENDCHAR
STARTCHAR 00C4
ENCODING 196
SWIDTH 990 0
DWIDTH 22 0
BBX 12 20 0 0
BITMAP
1980
1980
0000
0000
0600
0F00
0F00
0F00
1980
1980
1980
19C0
30C0
30C0
3FC0
7FE0
6060
6060
E070
C030
ENDCHAR
STARTCHAR 00C5
ENCODING 197
SWIDTH 990 0
DWIDTH 22 0
BBX 12 20 1 0
BITMAP
0F00
1F80
1080
1180
0F00
0F00
1F00
1B80
1980
1980
3980
30C0
30C0
70C0
7FE0
7FE0
6060
E070
C030
C030
ENDCHAR
STARTCHAR 00C6
ENCODING 198
SWIDTH 990 0
DWIDTH 22 0
BBX 13 16 0 0
BITMAP
0FF8
0FF8
0D80
0980
1980
1980
1980
11F0
31F0
3180
3F80
7F80
6180
6180
61F8
C1F8
ENDCHAR
STARTCHAR 00C7
ENCODING 199
SWIDTH 990 0
DWIDTH 22 0
BBX 10 20 1 -4
BITMAP
0F80
3FC0
7040
6000
E000
C000
C000
C000
C000
C000
C000
E000
6000
7040
3FC0
0F80
0200
0300
1F00
1E00
ENDCHAR
STARTCHAR 00C8
ENCODING 200
SWIDTH 990 0
DWIDTH 22 0
BBX 9 20 2 1
BITMAP
1800
1800
0C00
0000
FF80
FF80
C000
C000
C000
C000
C000
FF80
FF80
C000
C000
C000
C000
C000
FF80
FF80
ENDCHAR
STARTCHAR 00C9
ENCODING 201
SWIDTH 990 0
DWIDTH 22 0
BBX 9 20 2 1
BITMAP
0600
0C00
1800
0000
FF80
FF80
C000
C000
C000
C000
C000
FF80
FF80
C000
C000
C000
C000
C000
FF80
FF80
ENDCHAR
STARTCHAR 00CA
ENCODING 202
SWIDTH 990 0
DWIDTH 22 0
BBX 9 20 2 1
BITMAP
1C00
3600
2300
0000
FF80
FF80
C000
C000
C000
C000
C000
FF80
FF80
C000
C000
C000
C000
C000
FF80
FF80
ENDCHAR
STARTCHAR 00CB
ENCODING 203
SWIDTH 990 0
DWIDTH 22 0
BBX 9 20 2 0
BITMAP
3300
3300
0000
0000
FF80
FF80
C000
C000
C000
C000
C000
FF80
FF80
C000
C000
C000
C000
C000
FF80
FF80
ENDCHAR
STARTCHAR 00CC
ENCODING 204
SWIDTH 990 0
DWIDTH 22 0
BBX 9 20 2 0
BITMAP
3000
1800
0800
0000
FF80
FF80
1800
1800
1800
1800
1800
1800
1800
1800
1800
1800
1800
1800
FF80
FF80
ENDCHAR
STARTCHAR 00CD
ENCODING 205
SWIDTH 990 0
DWIDTH 22 0
BBX 9 20 2 1
BITMAP
0C00
0800
1800
0000
FF80
FF80
1800
1800
1800
1800
1800
1800
1800
1800
1800
1800
1800
1800
FF80
FF80
ENDCHAR
STARTCHAR 00CE
ENCODING 206
SWIDTH 990 0
DWIDTH 22 0
BBX 9 20 2 0
BITMAP
1800
3C00
6600
0000
FF80
FF80
1800
1800
1800
1800
1800
1800
1800
1800
1800
1800
1800
1800
FF80
FF80
ENDCHAR
STARTCHAR 00CF
ENCODING 207
SWIDTH 990 0
DWIDTH 22 0
BBX 9 20 2 0
BITMAP
6300
6300
0000
0000
FF80
FF80
1C00
1C00
1C00
1C00
1C00
1C00
1C00
1C00
1C00
1C00
1C00
1C00
FF80
FF80
ENDCHAR
STARTCHAR 00D0
ENCODING 208
SWIDTH 990 0
DWIDTH 22 0
BBX 12 16 0 0
BITMAP
7F00
7FC0
60E0
6060
6070
6030
6030
FC30
FC30
6030
6030
6070
6060
60E0
7FC0
7F00
ENDCHAR
STARTCHAR 00D1
ENCODING 209
SWIDTH 990 0
DWIDTH 22 0
BBX 10 20 1 0
BITMAP
3900
2700
0000
0000
E0C0
F0C0
F0C0
F0C0
D8C0
D8C0
C8C0
CCC0
CCC0
C6C0
C6C0
C6C0
C3C0
C3C0
C1C0
C1C0
ENDCHAR
STARTCHAR 00D2
ENCODING 210
SWIDTH 990 0
DWIDTH 22 0
BBX 10 20 1 0
BITMAP
1800
0800
0400
0000
1E00
3F00
6180
6180
C0C0
C0C0
C0C0
C0C0
C0C0
C0C0
C0C0
C0C0
61C0
6180
3F00
1E00
ENDCHAR
STARTCHAR 00D3
ENCODING 211
SWIDTH 990 0
DWIDTH 22 0
BBX 10 20 1 0
BITMAP
0600
0400
0C00
0000
1E00
3F00
6180
6180
C0C0
C0C0
C0C0
C0C0
C0C0
C0C0
C0C0
C0C0
61C0
6180
3F00
1E00
ENDCHAR
STARTCHAR 00D4
ENCODING 212
SWIDTH 990 0
DWIDTH 22 0
BBX 10 20 1 0
BITMAP
0C00
1E00
3300
0000
1E00
3F00
6180
6180
C0C0
C0C0
C0C0
C0C0
C0C0
C0C0
C0C0
C0C0
61C0
6180
3F00
1E00
ENDCHAR
STARTCHAR 00D5
ENCODING 213
SWIDTH 990 0
DWIDTH 22 0
BBX 10 20 1 0
BITMAP
1C80
2700
0000
0000
1E00
3F00
6180
6180
C0C0
C0C0
C0C0
C0C0
C0C0
C0C0
C0C0
C0C0
61C0
6180
3F00
1E00
ENDCHAR
STARTCHAR 00D6
ENCODING 214
SWIDTH 990 0
DWIDTH 22 0
BBX 10 20 1 0
BITMAP
3300
3300
0000
0000
1E00
3F80
6180
60C0
C0C0
C0C0
C0C0
C0C0
C0C0
C0C0
C0C0
C0C0
60C0
6180
3F80
1E00
ENDCHAR
STARTCHAR 00D7
ENCODING 215
SWIDTH 990 0
DWIDTH 22 0
BBX 9 9 2 2
BITMAP
C180
E380
3700
1E00
1C00
3E00
7300
E180
C080
ENDCHAR
STARTCHAR 00D8
ENCODING 216
SWIDTH 990 0
DWIDTH 22 0
BBX 12 16 0 0
BITMAP
0F30
1FA0
30C0
30E0
60E0
6160
6360
6660
6460
6C60
7860
7060
70C0
70C0
7F80
CF00
ENDCHAR
STARTCHAR 00D9
ENCODING 217
SWIDTH 990 0
DWIDTH 22 0
BBX 10 20 2 1
BITMAP
1800
0C00
0C00
0000
C0C0
C0C0
C0C0
C0C0
C0C0
C0C0
C0C0
C0C0
C0C0
C0C0
C0C0
C0C0
C0C0
E1C0
7F80
3E00
ENDCHAR
STARTCHAR 00DA
ENCODING 218
SWIDTH 990 0
DWIDTH 22 0
BBX 10 20 2 1
BITMAP
0600
0C00
0C00
0000
C0C0
C0C0
C0C0
C0C0
C0C0
C0C0
C0C0
C0C0
C0C0
C0C0
C0C0
C0C0
C0C0
E1C0
7F80
3E00
ENDCHAR
STARTCHAR 00DB
ENCODING 219
SWIDTH 990 0
DWIDTH 22 0
BBX 10 20 2 1
BITMAP
1E00
1200
3300
0000
C0C0
C0C0
C0C0
C0C0
C0C0
C0C0
C0C0
C0C0
C0C0
C0C0
C0C0
C0C0
C0C0
E1C0
7F80
3E00
ENDCHAR
STARTCHAR 00DC
ENCODING 220
SWIDTH 990 0
DWIDTH 22 0
BBX 10 20 2 0
BITMAP
3300
3300
0000
0000
C0C0
C0C0
C0C0
C0C0
C0C0
C0C0
C0C0
C0C0
C0C0
C0C0
C0C0
C0C0
C0C0
E1C0
7F80
1F00
ENDCHAR
STARTCHAR 00DD
ENCODING 221
SWIDTH 990 0
DWIDTH 22 0
BBX 12 20 0 0
BITMAP
0300
0200
0600
0000
C030
6060
70E0
30C0
19C0
1980
0F00
0F00
0600
0600
0600
0600
0600
0600
0600
0600
ENDCHAR
STARTCHAR 00DE
ENCODING 222
SWIDTH 990 0
DWIDTH 22 0
BBX 10 16 2 0
BITMAP
C000
C000
C000
FC00
FF80
C1C0
C0C0
C0C0
C0C0
C1C0
FF80
FF00
C000
C000
C000
C000
ENDCHAR
STARTCHAR 00DF
ENCODING 223
SWIDTH 990 0
DWIDTH 22 0
BBX 10 16 2 0
BITMAP
3E00
7F00
E180
C180
C380
CC00
CC00
CC00
CE00
C700
C180
C0C0
C0C0
C0C0
DF80
DF00
ENDCHAR
STARTCHAR 00E0
ENCODING 224
SWIDTH 990 0
DWIDTH 22 0
BBX 10 17 1 1
BITMAP
1800
0800
0400
0000
0000
3F00
7F80
01C0
00C0
0FC0
7FC0
E0C0
C0C0
C0C0
C1C0
7FC0
3EC0
ENDCHAR
STARTCHAR 00E1
ENCODING 225
SWIDTH 990 0
DWIDTH 22 0
BBX 10 17 1 1
BITMAP
0300
0600
0C00
0000
0000
3F00
7F80
01C0
00C0
07C0
7FC0
E0C0
C0C0
C0C0
C1C0
7FC0
3CC0
ENDCHAR
STARTCHAR 00E2
ENCODING 226
SWIDTH 990 0
DWIDTH 22 0
BBX 10 17 1 1
BITMAP
0E00
1A00
3100
0000
0000
3F00
7F80
01C0
00C0
0FC0
7FC0
E0C0
C0C0
C0C0
C1C0
7FC0
3CC0
ENDCHAR
STARTCHAR 00E3
ENCODING 227
SWIDTH 990 0
DWIDTH 22 0
BBX 10 16 1 0
BITMAP
1880
3780
0000
0000
3F00
7F80
01C0
00C0
0FC0
7FC0
E0C0
C0C0
C0C0
C1C0
7FC0
3EC0
ENDCHAR
STARTCHAR 00E4
ENCODING 228
SWIDTH 990 0
DWIDTH 22 0
BBX 10 16 1 0
BITMAP
3300
3300
0000
0000
3E00
7F80
01C0
00C0
0FC0
7FC0
E0C0
C0C0
C0C0
C1C0
7FC0
3CC0
ENDCHAR
STARTCHAR 00E5
ENCODING 229
SWIDTH 990 0
DWIDTH 22 0
BBX 10 19 1 0
BITMAP
1E00
3F00
2100
2100
1E00
0C00
0000
3F00
7F80
00C0
00C0
0FC0
7FC0
E0C0
C0C0
C0C0
C1C0
7FC0
3EC0
ENDCHAR
STARTCHAR 00E6
ENCODING 230
SWIDTH 990 0
DWIDTH 22 0
BBX 12 12 0 0
BITMAP
79E0
7FE0
0630
0630
0630
3FF0
7FF0
C600
C600
C600
FFF0
79E0
ENDCHAR
STARTCHAR 00E7
ENCODING 231
SWIDTH 990 0
DWIDTH 22 0
BBX 9 16 2 -4
BITMAP
1F00
3F80
6000
E000
C000
C000
C000
C000
E000
6000
3F80
1F00
0200
0300
1F00
1E00
ENDCHAR
STARTCHAR 00E8
ENCODING 232
SWIDTH 990 0
DWIDTH 22 0
BBX 11 17 1 1
BITMAP
1800
0C00
0600
0000
0000
1F00
3FC0
60C0
E060
C060
FFE0
C000
C000
E000
6000
3FC0
1F80
ENDCHAR
STARTCHAR 00E9
ENCODING 233
SWIDTH 990 0
DWIDTH 22 0
BBX 11 17 1 1
BITMAP
0180
0200
0400
0000
0000
1F00
3FC0
60C0
E060
C060
FFE0
FFE0
C000
C000
6000
3FC0
1F80
ENDCHAR
STARTCHAR 00EA
ENCODING 234
SWIDTH 990 0
DWIDTH 22 0
BBX 11 17 1 1
BITMAP
0E00
1B00
3180
0000
0000
1F00
3FC0
60C0
E060
C060
FFE0
FFE0
C000
C000
6000
3FC0
1F80
ENDCHAR
STARTCHAR 00EB
ENCODING 235
SWIDTH 990 0
DWIDTH 22 0
BBX 10 16 1 0
BITMAP
3300
3300
0000
0000
1F00
3F80
6180
E0C0
C0C0
FFC0
FFC0
C000
C000
6040
3FC0
1F80
ENDCHAR
STARTCHAR 00EC
ENCODING 236
SWIDTH 990 0
DWIDTH 22 0
BBX 10 17 2 1
BITMAP
3000
1800
1800
0C00
0000
7C00
7C00
0C00
0C00
0C00
0C00
0C00
0C00
0C00
0C00
FFC0
FFC0
ENDCHAR
STARTCHAR 00ED
ENCODING 237
SWIDTH 990 0
DWIDTH 22 0
BBX 10 17 2 1
BITMAP
0300
0600
0C00
0800
0000
7C00
7C00
0C00
0C00
0C00
0C00
0C00
0C00
0C00
0C00
0FC0
FFC0
ENDCHAR
STARTCHAR 00EE
ENCODING 238
SWIDTH 990 0
DWIDTH 22 0
BBX 10 17 2 1
BITMAP
1C00
1E00
3200
2300
0000
7C00
7C00
0C00
0C00
0C00
0C00
0C00
0C00
0C00
0C00
0FC0
FFC0
ENDCHAR
STARTCHAR 00EF
ENCODING 239
SWIDTH 990 0
DWIDTH 22 0
BBX 10 16 2 0
BITMAP
3300
3300
0000
0000
7C00
7C00
0C00
0C00
0C00
0C00
0C00
0C00
0C00
0C00
FFC0
FFC0
ENDCHAR
STARTCHAR 00F0
ENCODING 240
SWIDTH 990 0
DWIDTH 22 0
BBX 10 16 1 0
BITMAP
3800
1F00
7E00
0700
1F00
7F80
6180
C0C0
C0C0
C0C0
C0C0
C0C0
C0C0
6180
7F80
1E00
ENDCHAR
STARTCHAR 00F1
ENCODING 241
SWIDTH 990 0
DWIDTH 22 0
BBX 9 16 2 0
BITMAP
3100
6F00
0000
0000
DE00
FF00
E180
C180
C180
C180
C180
C180
C180
C180
C180
C180
ENDCHAR
STARTCHAR 00F2
ENCODING 242
SWIDTH 990 0
DWIDTH 22 0
BBX 10 17 1 1
BITMAP
3000
1800
0C00
0000
0000
1E00
7F80
6180
C0C0
C0C0
C0C0
C0C0
C0C0
C0C0
6180
7F80
1E00
ENDCHAR
STARTCHAR 00F3
ENCODING 243
SWIDTH 990 0
DWIDTH 22 0
BBX 10 17 1 1
BITMAP
0300
0600
0C00
0000
0000
1E00
7F80
6180
C0C0
C0C0
C0C0
C0C0
C0C0
C0C0
6180
7F80
1E00
ENDCHAR
STARTCHAR 00F4
ENCODING 244
SWIDTH 990 0
DWIDTH 22 0
BBX 10 17 1 1
BITMAP
0C00
1A00
3300
0000
0000
1E00
7F80
6180
C0C0
C0C0
C0C0
C0C0
C0C0
C0C0
6180
7F80
1E00
ENDCHAR
STARTCHAR 00F5
ENCODING 245
SWIDTH 990 0
DWIDTH 22 0
BBX 10 16 1 0
BITMAP
1880
3780
0000
0000
1E00
7F80
6180
C0C0
C0C0
C0C0
C0C0
C0C0
C0C0
6180
7F80
1E00
ENDCHAR
STARTCHAR 00F6
ENCODING 246
SWIDTH 990 0
DWIDTH 22 0
BBX 10 16 1 0
BITMAP
3300
3300
0000
0000
1F00
7F80
61C0
C0C0
C0C0
C0C0
C0C0
C0C0
C0C0
61C0
7F80
1F00
ENDCHAR
STARTCHAR 00F7
ENCODING 247
SWIDTH 990 0
DWIDTH 22 0
BBX 11 11 1 1
BITMAP
0600
0600
0600
0000
FFE0
FFE0
0000
0000
0600
0600
0600
ENDCHAR
STARTCHAR 00F8
ENCODING 248
SWIDTH 990 0
DWIDTH 22 0
BBX 12 12 0 0
BITMAP
0F30
3FE0
30C0
61E0
6360
6260
6460
6C60
7860
30C0
7FC0
CF00
ENDCHAR
STARTCHAR 00F9
ENCODING 249
SWIDTH 990 0
DWIDTH 22 0
BBX 9 17 2 1
BITMAP
3000
1800
0C00
0000
0000
C180
C180
C180
C180
C180
C180
C180
C180
C180
E380
7F80
3D80
ENDCHAR
STARTCHAR 00FA
ENCODING 250
SWIDTH 990 0
DWIDTH 22 0
BBX 9 17 2 1
BITMAP
0600
0C00
1800
0000
0000
C180
C180
C180
C180
C180
C180
C180
C180
C180
E380
7F80
3D80
ENDCHAR
STARTCHAR 00FB
ENCODING 251
SWIDTH 990 0
DWIDTH 22 0
BBX 9 17 2 1
BITMAP
1C00
3600
2200
0000
0000
C180
C180
C180
C180
C180
C180
C180
C180
C180
E380
7F80
3D80
ENDCHAR
STARTCHAR 00FC
ENCODING 252
SWIDTH 990 0
DWIDTH 22 0
BBX 9 16 2 0
BITMAP
6300
6300
0000
0000
C180
C180
C180
C180
C180
C180
C180
C180
C180
E380
7F80
3D80
ENDCHAR
STARTCHAR 00FD
ENCODING 253
SWIDTH 990 0
DWIDTH 22 0
BBX 11 22 1 -4
BITMAP
0180
0300
0600
0C00
0000
0000
C060
6060
60C0
30C0
31C0
3180
1980
1B00
0F00
0F00
0E00
0600
0C00
0C00
7800
7000
ENDCHAR
STARTCHAR 00FE
ENCODING 254
SWIDTH 990 0
DWIDTH 22 0
BBX 10 20 2 -4
BITMAP
C000
C000
C000
C000
DE00
FF80
E180
C0C0
C0C0
C0C0
C0C0
C0C0
C0C0
E180
FF80
DE00
C000
C000
C000
C000
ENDCHAR
STARTCHAR 00FF
ENCODING 255
SWIDTH 990 0
DWIDTH 22 0
BBX 10 20 1 -4
BITMAP
3300
3300
0000
0000
C0C0
40C0
60C0
6180
3180
3300
3300
1B00
1E00
0E00
0E00
0C00
0C00
1800
7800
7000
ENDCHAR
STARTCHAR 0106
ENCODING 262
SWIDTH 990 0
DWIDTH 22 0
BBX 10 20 1 0
BITMAP
0300
0200
0600
0000
0F80
3FC0
7040
6000
E000
C000
C000
C000
C000
C000
C000
E000
6000
7040
3FC0
0F80
ENDCHAR
STARTCHAR 0107
ENCODING 263
SWIDTH 990 0
DWIDTH 22 0
BBX 9 17 2 0
BITMAP
0300
0600
0C00
0000
0000
1F00
3F80
6080
E000
C000
C000
C000
C000
E000
6000
3F80
1F00
ENDCHAR
STARTCHAR 010C
ENCODING 268
SWIDTH 990 0
DWIDTH 22 0
BBX 10 20 1 1
BITMAP
1980
0F00
0600
0000
0F80
3FC0
7040
6000
E000
C000
C000
C000
C000
C000
C000
E000
6000
7040
3FC0
0F80
ENDCHAR
STARTCHAR 010D
ENCODING 269
SWIDTH 990 0
DWIDTH 22 0
BBX 9 17 2 1
BITMAP
1300
1A00
0C00
0000
0000
1F00
3F80
6080
E000
C000
C000
C000
C000
E000
6000
3F80
1F00
ENDCHAR
STARTCHAR 0111
ENCODING 273
SWIDTH 990 0
DWIDTH 22 0
BBX 12 16 1 0
BITMAP
00C0
07F0
07F0
00C0
1EC0
7FC0
61C0
C0C0
C0C0
C0C0
C0C0
C0C0
C0C0
61C0
7FC0
1EC0
ENDCHAR
STARTCHAR 011E
ENCODING 286
SWIDTH 990 0
DWIDTH 22 0
BBX 11 20 1 0
BITMAP
3080
3F80
0E00
0000
0F80
3FC0
7040
6000
E000
C000
C000
C000
C1E0
C1E0
C060
E060
6060
7060
3FE0
0F80
ENDCHAR
STARTCHAR 011F
ENCODING 287
SWIDTH 990 0
DWIDTH 22 0
BBX 10 21 1 -4
BITMAP
2100
3F00
0C00
0000
0000
1EC0
7FC0
61C0
C0C0
C0C0
C0C0
C0C0
C0C0
C0C0
61C0
7FC0
1EC0
00C0
0180
7F80
7E00
ENDCHAR
STARTCHAR 0130
ENCODING 304
SWIDTH 990 0
DWIDTH 22 0
BBX 9 20 2 0
BITMAP
1800
1800
0000
0000
FF80
FF80
1800
1800
1800
1800
1800
1800
1800
1800
1800
1800
1800
1800
FF80
FF80
ENDCHAR
STARTCHAR 0131
ENCODING 305
SWIDTH 990 0
DWIDTH 22 0
BBX 10 12 2 0
BITMAP
7C00
7C00
0C00
0C00
0C00
0C00
0C00
0C00
0C00
0C00
FFC0
FFC0
ENDCHAR
STARTCHAR 0141
ENCODING 321
SWIDTH 990 0
DWIDTH 22 0
BBX 12 16 0 0
BITMAP
3000
3000
3000
3000
3100
3300
3E00
3800
3000
F000
B000
3000
3000
3000
3FF0
3FF0
ENDCHAR
STARTCHAR 0142
ENCODING 322
SWIDTH 990 0
DWIDTH 22 0
BBX 10 16 1 0
BITMAP
7C00
7C00
0C00
0C00
0CC0
0D80
0F00
0C00
3C00
6C00
CC00
0C00
0C00
0C00
07C0
03C0
ENDCHAR
STARTCHAR 0152
ENCODING 338
SWIDTH 990 0
DWIDTH 22 0
BBX 12 16 1 0
BITMAP
1FF0
3FF0
6300
E300
C300
C300
C300
C3F0
C3F0
C300
C300
C300
E300
6300
3FF0
1FF0
ENDCHAR
STARTCHAR 0153
ENCODING 339
SWIDTH 990 0
DWIDTH 22 0
BBX 13 12 0 0
BITMAP
3CF0
7FF0
E318
C318
C318
C3F8
C3F8
C300
C300
C300
7FF8
3CF0
ENDCHAR
STARTCHAR 015E
ENCODING 350
SWIDTH 990 0
DWIDTH 22 0
BBX 10 20 2 -4
BITMAP
1F00
7F80
E080
C000
C000
C000
F000
7E00
1F80
01C0
00C0
00C0
00C0
81C0
FF80
7E00
0400
0600
3E00
3C00
ENDCHAR
STARTCHAR 015F
ENCODING 351
SWIDTH 990 0
DWIDTH 22 0
BBX 9 16 2 -4
BITMAP
3E00
7F00
C000
C000
E000
7E00
1F00
0380
0180
0180
FF00
7E00
0400
0600
3E00
3C00
ENDCHAR
STARTCHAR 0160
ENCODING 352
SWIDTH 990 0
DWIDTH 22 0
BBX 10 20 2 1
BITMAP
3300
1600
0C00
0000
1F00
7F80
E080
C000
C000
C000
F000
7E00
1F80
01C0
00C0
00C0
00C0
81C0
FF80
7E00
ENDCHAR
STARTCHAR 0161
ENCODING 353
SWIDTH 990 0
DWIDTH 22 0
BBX 9 17 2 0
BITMAP
6200
3400
1C00
0000
0000
3E00
7F00
C000
C000
E000
7E00
1F00
0380
0180
0180
FF00
7E00
ENDCHAR
STARTCHAR 0178
ENCODING 376
SWIDTH 990 0
DWIDTH 22 0
BBX 12 20 0 0
BITMAP
1980
1980
0000
0000
E030
6060
70E0
30C0
19C0
1980
0F00
0F00
0600
0600
0600
0600
0600
0600
0600
0600
ENDCHAR
STARTCHAR 017D
ENCODING 381
SWIDTH 990 0
DWIDTH 22 0
BBX 11 20 2 1
BITMAP
3300
1E00
0E00
0000
FFE0
FFE0
00C0
01C0
0180
0300
0700
0600
0C00
1C00
1800
3000
7000
6000
FFE0
FFE0
ENDCHAR
STARTCHAR 017E
ENCODING 382
SWIDTH 990 0
DWIDTH 22 0
BBX 9 17 2 1
BITMAP
6200
3600
1C00
1800
0000
FF80
FF80
0300
0700
0600
0C00
1800
3000
6000
6000
FF80
FF80
ENDCHAR
STARTCHAR 0192
ENCODING 402
SWIDTH 990 0
DWIDTH 22 0
BBX 13 20 0 -4
BITMAP
0078
01F8
0180
0300
0300
0300
1FE0
1FE0
0200
0600
0600
0600
0600
0600
0600
0C00
0C00
0C00
F800
F000
ENDCHAR
STARTCHAR 02C6
ENCODING 710
SWIDTH 990 0
DWIDTH 22 0
BBX 7 4 3 13
BITMAP
38
28
6C
C6
ENDCHAR
STARTCHAR 02C7
ENCODING 711
SWIDTH 990 0
DWIDTH 22 0
BBX 7 4 3 13
BITMAP
C6
6C
28
38
ENDCHAR
STARTCHAR 02D8
ENCODING 728
SWIDTH 990 0
DWIDTH 22 0
BBX 7 3 3 15
BITMAP
C6
7C
38
ENDCHAR
STARTCHAR 02D9
ENCODING 729
SWIDTH 990 0
DWIDTH 22 0
BBX 2 2 5 14
BITMAP
C0
C0
ENDCHAR
STARTCHAR 02DA
ENCODING 730
SWIDTH 990 0
DWIDTH 22 0
BBX 6 6 4 13
BITMAP
78
FC
84
84
FC
78
ENDCHAR
STARTCHAR 02DB
ENCODING 731
SWIDTH 990 0
DWIDTH 22 0
BBX 4 4 5 -3
BITMAP
C0
80
D0
F0
ENDCHAR
STARTCHAR 02DC
ENCODING 732
SWIDTH 990 0
DWIDTH 22 0
BBX 7 3 3 12
BITMAP
62
F2
9C
ENDCHAR
STARTCHAR 02DD
ENCODING 733
SWIDTH 990 0
DWIDTH 22 0
BBX 7 4 4 13
BITMAP
66
6C
C8
98
ENDCHAR
STARTCHAR 03A9
ENCODING 937
SWIDTH 990 0
DWIDTH 22 0
BBX 11 16 1 0
BITMAP
1F00
3F80
60C0
60C0
C060
C060
C060
C060
C060
C060
C060
60C0
60C0
3180
FBE0
FBE0
ENDCHAR
STARTCHAR 03C0
ENCODING 960
SWIDTH 990 0
DWIDTH 22 0
BBX 12 12 1 0
BITMAP
FFE0
FFE0
60C0
60C0
60C0
60C0
60C0
60C0
60C0
60C0
60F0
6070
ENDCHAR
STARTCHAR 1100
ENCODING 4352
SWIDTH 990 0
DWIDTH 22 0
BBX 14 8 4 8
BITMAP
FFFC
FFFC
000C
000C
000C
000C
000C
000C
ENDCHAR
STARTCHAR 1101
ENCODING 4353
SWIDTH 990 0
DWIDTH 22 0
BBX 16 7 3 8
BITMAP
FF7F
FF7F
0303
0303
0303
0303
0303
ENDCHAR
STARTCHAR 1102
ENCODING 4354
SWIDTH 990 0
DWIDTH 22 0
BBX 13 7 5 8
BITMAP
C000
C000
C000
C000
C000
C000
FFF8
ENDCHAR
STARTCHAR 1103
ENCODING 4355
SWIDTH 990 0
DWIDTH 22 0
BBX 13 7 5 9
BITMAP
FFF8
FFF8
C000
C000
C000
FFF8
FFF8
ENDCHAR
STARTCHAR 1104
ENCODING 4356
SWIDTH 990 0
DWIDTH 22 0
BBX 16 7 3 9
BITMAP
FEFF
FEFF
C0C0
C0C0
C0C0
FEFF
FEFF
ENDCHAR
STARTCHAR 1105
ENCODING 4357
SWIDTH 990 0
DWIDTH 22 0
BBX 13 9 5 7
BITMAP
FFF8
FFF8
0018
FFF8
FFF8
C000
C000
FFF8
FFF8
ENDCHAR
STARTCHAR 1106
ENCODING 4358
SWIDTH 990 0
DWIDTH 22 0
BBX 13 8 5 8
BITMAP
FFF8
FFF8
C018
C018
C018
C018
FFF8
FFF8
ENDCHAR
STARTCHAR 1107
ENCODING 4359
SWIDTH 990 0
DWIDTH 22 0
BBX 13 7 5 8
BITMAP
C018
C018
FFF8
FFF8
C018
C018
FFF8
ENDCHAR
STARTCHAR 1108
ENCODING 4360
SWIDTH 990 0
DWIDTH 22 0
BBX 16 7 3 8
BITMAP
C6C3
C6C3
FEFF
FEFF
C6C3
C6C3
FEFF
ENDCHAR
STARTCHAR 1109
ENCODING 4361
SWIDTH 990 0
DWIDTH 22 0
BBX 17 7 3 8
BITMAP
018000
018000
03C000
03E000
0E3000
381C00
E00780
ENDCHAR
STARTCHAR 110A
ENCODING 4362
SWIDTH 990 0
DWIDTH 22 0
BBX 18 6 2 9
BITMAP
0C0C00
0C0C00
1E0E00
1E1F00
333380
E1E1C0
ENDCHAR
STARTCHAR 110B
ENCODING 4363
SWIDTH 990 0
DWIDTH 22 0
BBX 13 7 4 9
BITMAP
1FC0
7070
C018
C018
C018
7070
1FC0
ENDCHAR
STARTCHAR 110C
ENCODING 4364
SWIDTH 990 0
DWIDTH 22 0
BBX 16 7 3 9
BITMAP
FFFE
FFFE
0380
06C0
0C60
F01E
C007
ENDCHAR
STARTCHAR 110D
ENCODING 4365
SWIDTH 990 0
DWIDTH 22 0
BBX 15 7 3 9
BITMAP
FFFE
FFFE
1830
3838
6C78
C6C6
8082
ENDCHAR
STARTCHAR 110E
ENCODING 4366
SWIDTH 990 0
DWIDTH 22 0
BBX 17 8 3 7
BITMAP
018000
018000
7FFF00
7FFF00
03C000
06E000
1C3C00
F00F80
ENDCHAR
STARTCHAR 110F
ENCODING 4367
SWIDTH 990 0
DWIDTH 22 0
BBX 13 8 5 8
BITMAP
FFF8
FFF8
0018
FFF8
FFF8
0018
0018
0018
ENDCHAR
STARTCHAR 1110
ENCODING 4368
SWIDTH 990 0
DWIDTH 22 0
BBX 13 8 5 8
BITMAP
FFF8
FFF8
C000
FFF0
FFF0
C000
FFF8
FFF8
ENDCHAR
STARTCHAR 1111
ENCODING 4369
SWIDTH 990 0
DWIDTH 22 0
BBX 15 8 4 8
BITMAP
FFFC
FFFC
1830
1830
1830
1830
FFFE
FFFE
ENDCHAR
STARTCHAR 1112
ENCODING 4370
SWIDTH 990 0
DWIDTH 22 0
BBX 15 10 3 6
BITMAP
0180
0180
FFFE
0000
0FF0
3FFC
6006
6006
3FFC
0FF0
ENDCHAR
STARTCHAR 1113
ENCODING 4371
SWIDTH 990 0
DWIDTH 22 0
BBX 14 8 4 8
BITMAP
C1FC
C1FC
C00C
C00C
C00C
C60C
FC0C
E00C
ENDCHAR
STARTCHAR 1114
ENCODING 4372
SWIDTH 990 0
DWIDTH 22 0
BBX 16 7 3 8
BITMAP
C0C0
C0C0
C0C0
C0C0
C0C0
C0C0
FFFF
ENDCHAR
STARTCHAR 1115
ENCODING 4373
SWIDTH 990 0
DWIDTH 22 0
BBX 16 7 3 8
BITMAP
C0FF
C0FF
C0C0
C0C0
C0C0
C0C0
FEFF
ENDCHAR
STARTCHAR 1116
ENCODING 4374
SWIDTH 990 0
DWIDTH 22 0
BBX 16 7 3 8
BITMAP
C0C3
C0C3
C0FF
C0FF
C0C3
C0C3
FEFF
ENDCHAR
STARTCHAR 1117
ENCODING 4375
SWIDTH 990 0
DWIDTH 22 0
BBX 15 8 3 8
BITMAP
FEFE
FEFE
C006
C006
C006
C006
FE06
FE06
ENDCHAR
STARTCHAR 1118
ENCODING 4376
SWIDTH 990 0
DWIDTH 22 0
BBX 15 8 3 7
BITMAP
FEC0
FEC0
06C0
FEC0
FEC0
C0C0
C0C0
FFFE
ENDCHAR
STARTCHAR 1119
ENCODING 4377
SWIDTH 990 0
DWIDTH 22 0
BBX 17 9 3 7
BITMAP
FE7F00
FE7F00
060300
FE7F00
FE7F00
C06000
C06000
FF7F80
F87F80
ENDCHAR
STARTCHAR 111A
ENCODING 4378
SWIDTH 990 0
DWIDTH 22 0
BBX 16 10 3 6
BITMAP
FE18
FE18
07FF
0618
FE7E
FEE7
C0C3
C0C3
FE7F
F83C
ENDCHAR
STARTCHAR 111B
ENCODING 4379
SWIDTH 990 0
DWIDTH 22 0
BBX 13 15 5 1
BITMAP
FFF8
FFF8
0018
FFF8
FFF8
C000
FFF8
FFF8
0F00
3080
2040
2040
2040
3080
0F00
ENDCHAR
STARTCHAR 111C
ENCODING 4380
SWIDTH 990 0
DWIDTH 22 0
BBX 15 7 3 8
BITMAP
FEC6
FEC6
C6C6
C6FE
C6FE
C6C6
FEFE
ENDCHAR
STARTCHAR 111D
ENCODING 4381
SWIDTH 990 0
DWIDTH 22 0
BBX 13 15 5 1
BITMAP
FFF8
FFF8
C018
C018
C018
C018
FFF8
FFF8
0F00
1080
2040
2040
2040
1080
0F00
ENDCHAR
STARTCHAR 111E
ENCODING 4382
SWIDTH 990 0
DWIDTH 22 0
BBX 15 8 3 8
BITMAP
C6FE
C6FE
FE06
FE06
C606
C606
FE06
0006
ENDCHAR
STARTCHAR 111F
ENCODING 4383
SWIDTH 990 0
DWIDTH 22 0
BBX 16 7 3 8
BITMAP
C6C0
C6C0
FEC0
FEC0
C6C0
C6C0
FEFF
ENDCHAR
STARTCHAR 1120
ENCODING 4384
SWIDTH 990 0
DWIDTH 22 0
BBX 15 7 3 8
BITMAP
C6FE
C6FE
FEC0
FEC0
C6C0
C6C0
FEFE
ENDCHAR
STARTCHAR 1121
ENCODING 4385
SWIDTH 990 0
DWIDTH 22 0
BBX 16 7 3 8
BITMAP
C630
C630
FE30
FE38
C678
C6CC
FE87
ENDCHAR
STARTCHAR 1122
ENCODING 4386
SWIDTH 990 0
DWIDTH 22 0
BBX 16 7 3 8
BITMAP
885F
885F
F843
F8C3
88C3
89A3
FB33
ENDCHAR
STARTCHAR 1123
ENCODING 4387
SWIDTH 990 0
DWIDTH 22 0
BBX 16 8 3 8
BITMAP
888F
888F
F888
F888
89C8
8B48
FE6F
0020
ENDCHAR
STARTCHAR 1124
ENCODING 4388
SWIDTH 990 0
DWIDTH 22 0
BBX 16 8 3 8
BITMAP
9089
9089
F08F
F18F
91C9
9349
F62F
0020
ENDCHAR
STARTCHAR 1125
ENCODING 4389
SWIDTH 990 0
DWIDTH 22 0
BBX 15 7 3 8
BITMAP
9088
9088
F088
F188
91DC
9354
F626
ENDCHAR
STARTCHAR 1126
ENCODING 4390
SWIDTH 990 0
DWIDTH 22 0
BBX 15 7 3 8
BITMAP
90BE
90BE
9088
F088
F19C
9354
F626
ENDCHAR
STARTCHAR 1127
ENCODING 4391
SWIDTH 990 0
DWIDTH 22 0
BBX 16 9 3 7
BITMAP
C6FE
C6FE
C618
FE18
FE38
C63C
C666
FEC3
0080
ENDCHAR
STARTCHAR 1128
ENCODING 4392
SWIDTH 990 0
DWIDTH 22 0
BBX 16 8 3 7
BITMAP
C618
C6FF
FE18
FE18
C63C
C636
FEE3
0081
ENDCHAR
STARTCHAR 1129
ENCODING 4393
SWIDTH 990 0
DWIDTH 22 0
BBX 15 7 3 8
BITMAP
C6FE
C6FE
FEC0
FEFE
C6FE
C6C0
FEFE
ENDCHAR
STARTCHAR 112A
ENCODING 4394
SWIDTH 990 0
DWIDTH 22 0
BBX 15 7 3 8
BITMAP
C6FE
C6FE
FE64
FE64
C664
C664
FEFE
ENDCHAR
STARTCHAR 112B
ENCODING 4395
SWIDTH 990 0
DWIDTH 22 0
BBX 13 14 5 2
BITMAP
C018
C018
FFF8
FFF8
C018
C018
FFF8
0000
0F00
1080
2040
2040
10C0
0F00
ENDCHAR
STARTCHAR 112C
ENCODING 4396
SWIDTH 990 0
DWIDTH 22 0
BBX 16 14 3 2
BITMAP
C6C3
C6C3
FEFF
FEFF
C6C3
C6C3
FEFF
0000
07C0
0C20
0810
0810
0C30
03C0
ENDCHAR
STARTCHAR 112D
ENCODING 4397
SWIDTH 990 0
DWIDTH 22 0
BBX 15 8 3 7
BITMAP
18FE
18FE
1806
1806
3C06
6606
C306
8106
ENDCHAR
STARTCHAR 112E
ENCODING 4398
SWIDTH 990 0
DWIDTH 22 0
BBX 16 8 3 8
BITMAP
1860
1860
1860
1860
3C60
6660
C37F
8100
ENDCHAR
STARTCHAR 112F
ENCODING 4399
SWIDTH 990 0
DWIDTH 22 0
BBX 15 8 3 7
BITMAP
187E
187E
1860
1860
3C60
6660
C37E
817E
ENDCHAR
STARTCHAR 1130
ENCODING 4400
SWIDTH 990 0
DWIDTH 22 0
BBX 16 9 3 7
BITMAP
187F
187F
1803
187F
3C7F
6660
E360
C37F
007F
ENDCHAR
STARTCHAR 1131
ENCODING 4401
SWIDTH 990 0
DWIDTH 22 0
BBX 16 8 3 7
BITMAP
187F
187F
1863
1863
3C63
6463
E27F
C37F
ENDCHAR
STARTCHAR 1132
ENCODING 4402
SWIDTH 990 0
DWIDTH 22 0
BBX 16 8 3 8
BITMAP
18C3
18C3
18FF
18FF
3CC3
64C3
C2FF
8000
ENDCHAR
STARTCHAR 1133
ENCODING 4403
SWIDTH 990 0
DWIDTH 22 0
BBX 17 8 3 7
BITMAP
222F80
222F80
222180
23E180
63E180
522180
DA2180
8BE180
ENDCHAR
STARTCHAR 1134
ENCODING 4404
SWIDTH 990 0
DWIDTH 22 0
BBX 15 7 3 8
BITMAP
1088
1088
1088
3198
2954
6B74
C622
ENDCHAR
STARTCHAR 1135
ENCODING 4405
SWIDTH 990 0
DWIDTH 22 0
BBX 17 9 4 7
BITMAP
183E00
187F00
18E380
18C180
3CC180
34C180
666380
C37F00
800800
ENDCHAR
STARTCHAR 1136
ENCODING 4406
SWIDTH 990 0
DWIDTH 22 0
BBX 16 8 3 7
BITMAP
18FE
18FE
1818
1818
3C3C
2434
6266
C083
ENDCHAR
STARTCHAR 1137
ENCODING 4407
SWIDTH 990 0
DWIDTH 22 0
BBX 16 8 3 8
BITMAP
18FF
18FF
1830
1830
3C38
666C
C2C7
8081
ENDCHAR
STARTCHAR 1138
ENCODING 4408
SWIDTH 990 0
DWIDTH 22 0
BBX 15 8 3 7
BITMAP
18FE
18FE
1806
18FE
3CFE
3406
E606
C206
ENDCHAR
STARTCHAR 1139
ENCODING 4409
SWIDTH 990 0
DWIDTH 22 0
BBX 15 8 3 7
BITMAP
18FE
18FE
18C0
18FE
3CFE
64C0
E3FE
C1FE
ENDCHAR
STARTCHAR 113A
ENCODING 4410
SWIDTH 990 0
DWIDTH 22 0
BBX 15 8 3 7
BITMAP
18FE
18FE
1864
1864
3C64
6664
C3FE
80FE
ENDCHAR
STARTCHAR 113B
ENCODING 4411
SWIDTH 990 0
DWIDTH 22 0
BBX 17 10 3 7
BITMAP
001800
181800
18FF80
180000
183C00
18FF00
3CC300
66C300
C3FE00
813C00
ENDCHAR
STARTCHAR 113C
ENCODING 4412
SWIDTH 990 0
DWIDTH 22 0
BBX 14 10 3 7
BITMAP
00C0
01E0
0330
0618
0C0C
1804
3000
6000
E000
4000
ENDCHAR
STARTCHAR 113D
ENCODING 4413
SWIDTH 990 0
DWIDTH 22 0
BBX 18 10 2 7
BITMAP
018400
03CE00
077B00
0E3180
0C60C0
18C040
318000
630000
C60000
840000
ENDCHAR
STARTCHAR 113E
ENCODING 4414
SWIDTH 990 0
DWIDTH 22 0
BBX 14 10 5 7
BITMAP
0C00
1E00
3300
6180
C0C0
8060
0030
0018
000C
0008
ENDCHAR
STARTCHAR 113F
ENCODING 4415
SWIDTH 990 0
DWIDTH 22 0
BBX 18 10 2 6
BITMAP
184000
3CE000
77B000
631800
C18C00
80C600
006300
003180
0018C0
000840
ENDCHAR
STARTCHAR 1140
ENCODING 4416
SWIDTH 990 0
DWIDTH 22 0
BBX 13 8 4 9
BITMAP
0200
0700
0D80
08C0
1060
3030
7FF0
FFF8
ENDCHAR
STARTCHAR 1141
ENCODING 4417
SWIDTH 990 0
DWIDTH 22 0
BBX 15 8 3 8
BITMAP
3CFE
7EFE
C306
8106
8106
8106
4206
3C06
ENDCHAR
STARTCHAR 1142
ENCODING 4418
SWIDTH 990 0
DWIDTH 22 0
BBX 16 8 3 8
BITMAP
3C7F
7E7F
C360
8160
8160
C360
7E7F
3C7F
ENDCHAR
STARTCHAR 1143
ENCODING 4419
SWIDTH 990 0
DWIDTH 22 0
BBX 16 8 3 8
BITMAP
3C7F
7E7F
C363
8163
8163
C363
7E7F
3C7F
ENDCHAR
STARTCHAR 1144
ENCODING 4420
SWIDTH 990 0
DWIDTH 22 0
BBX 16 9 3 7
BITMAP
3E63
7F63
C3E3
81FF
81FF
81E3
C3E3
7F7F
0800
ENDCHAR
STARTCHAR 1145
ENCODING 4421
SWIDTH 990 0
DWIDTH 22 0
BBX 17 8 3 8
BITMAP
3E1800
431800
819800
819C00
81B600
C3E700
7F4380
184000
ENDCHAR
STARTCHAR 1146
ENCODING 4422
SWIDTH 990 0
DWIDTH 22 0
BBX 17 8 3 9
BITMAP
3C1800
7E1800
C33C00
812400
816600
C34300
7EFF00
3CFF80
ENDCHAR
STARTCHAR 1147
ENCODING 4423
SWIDTH 990 0
DWIDTH 22 0
BBX 17 9 2 7
BITMAP
3C1E00
7E3F00
C36180
814080
814080
814080
C36180
7E3F00
180C00
ENDCHAR
STARTCHAR 1148
ENCODING 4424
SWIDTH 990 0
DWIDTH 22 0
BBX 17 8 3 8
BITMAP
3E7F00
431800
819800
819C00
81BC00
C3E700
7FC380
180000
ENDCHAR
STARTCHAR 1149
ENCODING 4425
SWIDTH 990 0
DWIDTH 22 0
BBX 18 9 2 7
BITMAP
3C0C00
7E7F80
E37F80
C10C00
C10C00
C11E00
E33300
7EE1C0
184080
ENDCHAR
STARTCHAR 114A
ENCODING 4426
SWIDTH 990 0
DWIDTH 22 0
BBX 16 8 3 8
BITMAP
3C7F
7E7F
C360
817E
817E
C360
7E7F
3C7F
ENDCHAR
STARTCHAR 114B
ENCODING 4427
SWIDTH 990 0
DWIDTH 22 0
BBX 16 8 3 8
BITMAP
3C7F
7E7F
C322
8122
8122
C322
7E7F
3C7F
ENDCHAR
STARTCHAR 114C
ENCODING 4428
SWIDTH 990 0
DWIDTH 22 0
BBX 13 8 4 10
BITMAP
0300
1FE0
7070
C018
C018
C018
7070
1FC0
ENDCHAR
STARTCHAR 114D
ENCODING 4429
SWIDTH 990 0
DWIDTH 22 0
BBX 18 9 3 7
BITMAP
7F1F00
7F3F80
0C61C0
0C40C0
1E40C0
1A40C0
3361C0
E1BF80
000400
ENDCHAR
STARTCHAR 114E
ENCODING 4430
SWIDTH 990 0
DWIDTH 22 0
BBX 14 11 3 5
BITMAP
3FFC
3FFC
01E0
0330
0618
0C1C
1808
3000
6000
C000
8000
ENDCHAR
STARTCHAR 114F
ENCODING 4431
SWIDTH 990 0
DWIDTH 22 0
BBX 19 11 2 4
BITMAP
3FFFC0
3FFFC0
01EF00
033D80
0638C0
0C7060
186020
30C000
618000
C30000
860000
ENDCHAR
STARTCHAR 1150
ENCODING 4432
SWIDTH 990 0
DWIDTH 22 0
BBX 14 11 5 5
BITMAP
FFF0
FFF0
1E00
3300
6180
E0C0
4060
0030
0018
000C
0004
ENDCHAR
STARTCHAR 1151
ENCODING 4433
SWIDTH 990 0
DWIDTH 22 0
BBX 19 11 2 4
BITMAP
7FFF80
7FFF80
1EF000
379800
638C00
C1C600
80C300
006180
0030C0
001860
000C20
ENDCHAR
STARTCHAR 1152
ENCODING 4434
SWIDTH 990 0
DWIDTH 22 0
BBX 15 8 3 7
BITMAP
18FE
FFFE
FF06
18FE
18FE
3C06
6606
C106
ENDCHAR
STARTCHAR 1153
ENCODING 4435
SWIDTH 990 0
DWIDTH 22 0
BBX 17 10 2 7
BITMAP
180C00
180C00
FFFF80
180000
181E00
187F80
3C6180
666180
C37F00
011E00
ENDCHAR
STARTCHAR 1154
ENCODING 4436
SWIDTH 990 0
DWIDTH 22 0
BBX 14 13 3 3
BITMAP
00C0
00C0
3FFC
3FFC
01E0
0330
0618
0C0C
1808
3000
6000
C000
8000
ENDCHAR
STARTCHAR 1155
ENCODING 4437
SWIDTH 990 0
DWIDTH 22 0
BBX 14 12 5 3
BITMAP
0C00
FFF0
FFF0
1E00
3F00
3380
61C0
C0E0
0070
0030
0018
000C
ENDCHAR
STARTCHAR 1156
ENCODING 4438
SWIDTH 990 0
DWIDTH 22 0
BBX 16 7 3 8
BITMAP
FE63
FE63
647F
647F
6463
6463
FE7F
ENDCHAR
STARTCHAR 1157
ENCODING 4439
SWIDTH 990 0
DWIDTH 22 0
BBX 15 15 4 1
BITMAP
FFFC
FFFC
1830
1830
1830
1830
FFFE
FFFE
07C0
0C60
1830
1830
1830
0C60
07C0
ENDCHAR
STARTCHAR 1158
ENCODING 4440
SWIDTH 990 0
DWIDTH 22 0
BBX 17 11 3 5
BITMAP
180C00
180C00
FF7F80
000000
3C1E00
7E7F00
C36180
C36180
E77380
7E3F00
180C00
ENDCHAR
STARTCHAR 1159
ENCODING 4441
SWIDTH 990 0
DWIDTH 22 0
BBX 15 9 3 7
BITMAP
FFFE
FFFE
03C0
1FF8
700E
6006
700E
3FFC
03C0
ENDCHAR
STARTCHAR 115F
ENCODING 4447
SWIDTH 990 0
DWIDTH 22 0
BBX 0 0 0 0
BITMAP
ENDCHAR
STARTCHAR 1160
ENCODING 4448
SWIDTH 990 0
DWIDTH 22 0
BBX 0 0 0 0
BITMAP
ENDCHAR
STARTCHAR 1161
ENCODING 4449
SWIDTH 990 0
DWIDTH 22 0
BBX 5 16 10 0
BITMAP
C0
C0
C0
C0
C0
C0
F8
F8
C0
C0
C0
C0
C0
C0
C0
C0
ENDCHAR
STARTCHAR 1162
ENCODING 4450
SWIDTH 990 0
DWIDTH 22 0
BBX 7 16 8 0
BITMAP
C6
C6
C6
C6
C6
C6
C6
FE
FE
C6
C6
C6
C6
C6
C6
C6
ENDCHAR
STARTCHAR 1163
ENCODING 4451
SWIDTH 990 0
DWIDTH 22 0
BBX 5 16 10 0
BITMAP
C0
C0
C0
C0
F8
F8
C0
C0
C0
F8
F8
C0
C0
C0
C0
C0
ENDCHAR
STARTCHAR 1164
ENCODING 4452
SWIDTH 990 0
DWIDTH 22 0
BBX 7 16 8 0
BITMAP
C6
C6
C6
C6
FE
FE
C6
C6
C6
FE
FE
C6
C6
C6
C6
C6
ENDCHAR
STARTCHAR 1165
ENCODING 4453
SWIDTH 990 0
DWIDTH 22 0
BBX 7 16 7 0
BITMAP
06
06
06
06
06
06
06
FE
FE
06
06
06
06
06
06
06
ENDCHAR
STARTCHAR 1166
ENCODING 4454
SWIDTH 990 0
DWIDTH 22 0
BBX 10 16 5 0
BITMAP
0CC0
0CC0
0CC0
0CC0
0CC0
0CC0
FCC0
FCC0
0CC0
0CC0
0CC0
0CC0
0CC0
0CC0
0CC0
0CC0
ENDCHAR
STARTCHAR 1167
ENCODING 4455
SWIDTH 990 0
DWIDTH 22 0
BBX 7 16 7 0
BITMAP
06
06
06
06
FE
FE
06
06
06
FE
FE
06
06
06
06
06
ENDCHAR
STARTCHAR 1168
ENCODING 4456
SWIDTH 990 0
DWIDTH 22 0
BBX 10 16 5 0
BITMAP
0CC0
0CC0
0CC0
0CC0
FCC0
FCC0
0CC0
0CC0
0CC0
FCC0
FCC0
0CC0
0CC0
0CC0
0CC0
0CC0
ENDCHAR
STARTCHAR 1169
ENCODING 4457
SWIDTH 990 0
DWIDTH 22 0
BBX 19 7 1 5
BITMAP
006000
006000
006000
006000
006000
006000
FFFFE0
ENDCHAR
STARTCHAR 116A
ENCODING 4458
SWIDTH 990 0
DWIDTH 22 0
BBX 20 16 1 0
BITMAP
000180
000180
000180
000180
000180
030180
0301F0
0301F0
030180
030180
030180
030180
FFFD80
000180
000180
000180
ENDCHAR
STARTCHAR 116B
ENCODING 4459
SWIDTH 990 0
DWIDTH 22 0
BBX 18 16 1 0
BITMAP
000CC0
000CC0
000CC0
000CC0
000CC0
060CC0
060FC0
060FC0
060CC0
060CC0
060CC0
060CC0
FFECC0
000CC0
000CC0
000CC0
ENDCHAR
STARTCHAR 116C
ENCODING 4460
SWIDTH 990 0
DWIDTH 22 0
BBX 17 16 2 0
BITMAP
000180
000180
000180
000180
030180
030180
030180
030180
030180
030180
030180
030180
FFFD80
000180
000180
000180
ENDCHAR
STARTCHAR 116D
ENCODING 4461
SWIDTH 990 0
DWIDTH 22 0
BBX 19 8 1 4
BITMAP
060C00
060C00
060C00
060C00
060C00
060C00
060C00
FFFFE0
ENDCHAR
STARTCHAR 116E
ENCODING 4462
SWIDTH 990 0
DWIDTH 22 0
BBX 19 11 1 -1
BITMAP
FFFFE0
FFFFE0
006000
006000
006000
006000
006000
006000
006000
006000
006000
ENDCHAR
STARTCHAR 116F
ENCODING 4463
SWIDTH 990 0
DWIDTH 22 0
BBX 17 16 2 0
BITMAP
000180
000180
000180
000180
000180
000180
FFFD80
FFFD80
030180
030180
033F80
033F80
030180
030180
030180
030180
ENDCHAR
STARTCHAR 1170
ENCODING 4464
SWIDTH 990 0
DWIDTH 22 0
BBX 18 16 1 0
BITMAP
000CC0
000CC0
000CC0
000CC0
000CC0
000CC0
FFECC0
FFECC0
060CC0
06FCC0
06FCC0
060CC0
060CC0
060CC0
060CC0
0000C0
ENDCHAR
STARTCHAR 1171
ENCODING 4465
SWIDTH 990 0
DWIDTH 22 0
BBX 17 16 2 0
BITMAP
000180
000180
000180
000180
000180
000180
FFFD80
FFFD80
030180
030180
030180
030180
030180
030180
030180
030180
ENDCHAR
STARTCHAR 1172
ENCODING 4466
SWIDTH 990 0
DWIDTH 22 0
BBX 19 11 1 -1
BITMAP
FFFFE0
FFFFE0
060C00
060C00
060C00
060C00
060C00
060C00
060C00
060C00
060C00
ENDCHAR
STARTCHAR 1173
ENCODING 4467
SWIDTH 990 0
DWIDTH 22 0
BBX 19 2 1 5
BITMAP
FFFFE0
FFFFE0
ENDCHAR
STARTCHAR 1174
ENCODING 4468
SWIDTH 990 0
DWIDTH 22 0
BBX 17 16 2 0
BITMAP
000180
000180
000180
000180
000180
000180
000180
000180
000180
000180
000180
FFFD80
FFFD80
000180
000180
000180
ENDCHAR
STARTCHAR 1175
ENCODING 4469
SWIDTH 990 0
DWIDTH 22 0
BBX 2 16 10 0
BITMAP
C0
C0
C0
C0
C0
C0
C0
C0
C0
C0
C0
C0
C0
C0
C0
C0
ENDCHAR
STARTCHAR 1176
ENCODING 4470
SWIDTH 990 0
DWIDTH 22 0
BBX 20 17 1 -2
BITMAP
000180
000180
000180
000180
000180
000180
0001F0
0001F0
000180
000180
006180
006180
006180
006000
006000
006000
FFFFE0
ENDCHAR
STARTCHAR 1177
ENCODING 4471
SWIDTH 990 0
DWIDTH 22 0
BBX 20 19 1 -3
BITMAP
000180
000180
000180
000180
0001F0
0001F0
000180
000180
000180
000180
000000
FFFFE0
FFFFE0
006000
006000
006000
006000
006000
006000
ENDCHAR
STARTCHAR 1178
ENCODING 4472
SWIDTH 990 0
DWIDTH 22 0
BBX 20 17 1 -2
BITMAP
000180
000180
000180
0001F0
0001F0
000180
000180
000180
0001F0
0001F0
006180
006180
006180
006000
006000
006000
FFFFE0
ENDCHAR
STARTCHAR 1179
ENCODING 4473
SWIDTH 990 0
DWIDTH 22 0
BBX 20 17 1 -2
BITMAP
000180
000180
000180
0001F0
0001F0
000180
000180
000180
0001F0
0001F0
063180
063180
063180
063000
063000
063000
FFFFE0
ENDCHAR
STARTCHAR 117A
ENCODING 4474
SWIDTH 990 0
DWIDTH 22 0
BBX 19 17 1 -2
BITMAP
000180
000180
000180
000180
001F80
001F80
000180
000180
000180
000180
000180
006180
006180
006000
006000
006000
FFFFE0
ENDCHAR
STARTCHAR 117B
ENCODING 4475
SWIDTH 990 0
DWIDTH 22 0
BBX 19 19 1 -3
BITMAP
000300
000300
000300
000300
007F00
007F00
000300
000300
000300
000300
000000
FFFFE0
FFFFE0
006000
006000
006000
006000
006000
006000
ENDCHAR
STARTCHAR 117C
ENCODING 4476
SWIDTH 990 0
DWIDTH 22 0
BBX 19 17 1 -1
BITMAP
000300
000300
000300
000300
000300
007F00
007F00
000300
000300
000300
000300
000300
000300
000000
000000
FFFFE0
FFFFE0
ENDCHAR
STARTCHAR 117D
ENCODING 4477
SWIDTH 990 0
DWIDTH 22 0
BBX 19 17 1 -2
BITMAP
000300
000300
001F00
001F00
000300
000300
001F00
001F00
000300
000300
000300
006300
006300
006000
006000
006000
FFFFE0
ENDCHAR
STARTCHAR 117E
ENCODING 4478
SWIDTH 990 0
DWIDTH 22 0
BBX 19 19 1 -3
BITMAP
000300
001F00
001F00
000300
000300
000300
001F00
001F00
000300
000300
000000
FFFFE0
FFFFE0
006000
006000
006000
006000
006000
006000
ENDCHAR
STARTCHAR 117F
ENCODING 4479
SWIDTH 990 0
DWIDTH 22 0
BBX 17 16 2 0
BITMAP
000180
000180
000180
000180
003F80
003F80
030180
030180
030180
030180
030180
030180
FFF980
000180
000180
000180
ENDCHAR
STARTCHAR 1180
ENCODING 4480
SWIDTH 990 0
DWIDTH 22 0
BBX 18 16 1 0
BITMAP
000CC0
000CC0
000CC0
000CC0
060CC0
06FCC0
06FCC0
060CC0
060CC0
060CC0
060CC0
060CC0
FFECC0
000CC0
000CC0
000CC0
ENDCHAR
STARTCHAR 1181
ENCODING 4481
SWIDTH 990 0
DWIDTH 22 0
BBX 17 16 2 0
BITMAP
000D80
000D80
000D80
00FD80
00FD80
0C0D80
0C0D80
0CFD80
0CFD80
0C0D80
0C0D80
0C0D80
FFCD80
000D80
000D80
000D80
ENDCHAR
STARTCHAR 1182
ENCODING 4482
SWIDTH 990 0
DWIDTH 22 0
BBX 19 16 1 -1
BITMAP
006000
006000
006000
006000
006000
FFFFE0
000000
000000
006000
006000
006000
006000
006000
006000
006000
FFFFE0
ENDCHAR
STARTCHAR 1183
ENCODING 4483
SWIDTH 990 0
DWIDTH 22 0
BBX 19 17 1 -2
BITMAP
006000
006000
006000
006000
006000
FFFFE0
000000
000000
000000
FFFFE0
FFFFE0
006000
006000
006000
006000
006000
006000
ENDCHAR
STARTCHAR 1184
ENCODING 4484
SWIDTH 990 0
DWIDTH 22 0
BBX 20 16 1 0
BITMAP
000180
000180
000180
000180
0C61F0
0C61F0
0C6180
0C6180
0C6180
0C61F0
0C61F0
0C6180
FFFD80
000180
000180
000180
ENDCHAR
STARTCHAR 1185
ENCODING 4485
SWIDTH 990 0
DWIDTH 22 0
BBX 18 16 1 0
BITMAP
000CC0
000CC0
000CC0
000CC0
198FC0
198FC0
198CC0
198CC0
198CC0
198FC0
198FC0
FFECC0
000CC0
000CC0
000CC0
000CC0
ENDCHAR
STARTCHAR 1186
ENCODING 4486
SWIDTH 990 0
DWIDTH 22 0
BBX 18 16 1 0
BITMAP
0000C0
0000C0
0000C0
000FC0
000FC0
0000C0
0CC0C0
0CCFC0
0CCFC0
0CC0C0
0CC0C0
0CC0C0
FFFCC0
0000C0
0000C0
0000C0
ENDCHAR
STARTCHAR 1187
ENCODING 4487
SWIDTH 990 0
DWIDTH 22 0
BBX 19 16 1 0
BITMAP
060C00
060C00
060C00
060C00
060C00
060C00
FFFFE0
000000
000000
006000
006000
006000
006000
006000
006000
FFFFE0
ENDCHAR
STARTCHAR 1188
ENCODING 4488
SWIDTH 990 0
DWIDTH 22 0
BBX 17 16 2 0
BITMAP
000180
000180
000180
000180
0C6180
0C6180
0C6180
0C6180
0C6180
0C6180
0C6180
0C6180
FFFD80
000180
000180
000180
ENDCHAR
STARTCHAR 1189
ENCODING 4489
SWIDTH 990 0
DWIDTH 22 0
BBX 19 16 2 0
BITMAP
000600
000600
000600
000600
000600
000600
FFF600
FFF7E0
0607E0
060600
060600
060600
060600
060600
060600
000600
ENDCHAR
STARTCHAR 118A
ENCODING 4490
SWIDTH 990 0
DWIDTH 22 0
BBX 17 16 1 0
BITMAP
001980
001980
001980
001980
001980
001980
FFDF80
FFDF80
0C1980
0C1980
0C1980
0C1980
0C1980
0C1980
0C1980
001980
ENDCHAR
STARTCHAR 118B
ENCODING 4491
SWIDTH 990 0
DWIDTH 22 0
BBX 18 20 1 -4
BITMAP
0000C0
0000C0
0000C0
0000C0
FFF8C0
FFF8C0
0300C0
0300C0
031FC0
031FC0
0300C0
0300C0
0300C0
0000C0
0000C0
FFF8C0
FFF8C0
0000C0
0000C0
0000C0
ENDCHAR
STARTCHAR 118C
ENCODING 4492
SWIDTH 990 0
DWIDTH 22 0
BBX 18 16 1 0
BITMAP
0006C0
0006C0
0006C0
0006C0
FFE6C0
7FE6C0
0606C0
06FEC0
06FEC0
0606C0
06FEC0
06FEC0
0606C0
0606C0
0606C0
0000C0
ENDCHAR
STARTCHAR 118D
ENCODING 4493
SWIDTH 990 0
DWIDTH 22 0
BBX 19 17 1 -2
BITMAP
FFFFE0
FFFFE0
006000
006000
006000
006000
006000
006000
000000
FFFFE0
FFFFE0
006000
006000
006000
006000
006000
006000
ENDCHAR
STARTCHAR 118E
ENCODING 4494
SWIDTH 990 0
DWIDTH 22 0
BBX 20 16 2 0
BITMAP
000300
000300
000300
000300
000300
FFFB00
FFFB00
1983F0
1983F0
198300
198300
198300
198300
198300
198300
000300
ENDCHAR
STARTCHAR 118F
ENCODING 4495
SWIDTH 990 0
DWIDTH 22 0
BBX 17 16 2 0
BITMAP
000180
000180
000180
000180
000180
FFF980
FFF980
18C180
18C180
18DF80
18DF80
18C180
18C180
18C180
18C180
000180
ENDCHAR
STARTCHAR 1190
ENCODING 4496
SWIDTH 990 0
DWIDTH 22 0
BBX 19 16 0 0
BITMAP
000660
000660
000660
000660
000660
FFE660
7FE660
198660
198660
19FE60
19FE60
198660
198660
198660
198660
000660
ENDCHAR
STARTCHAR 1191
ENCODING 4497
SWIDTH 990 0
DWIDTH 22 0
BBX 17 16 2 0
BITMAP
000180
000180
000180
000180
000180
FFF980
FFF980
18C180
18DF80
18DF80
18C180
18DF80
18DF80
18C180
18C180
18C180
ENDCHAR
STARTCHAR 1192
ENCODING 4498
SWIDTH 990 0
DWIDTH 22 0
BBX 19 16 1 0
BITMAP
000660
000660
000660
000660
000660
FFE660
7FE660
198660
19BE60
19BE60
198660
19BE60
19BE60
198660
198660
000060
ENDCHAR
STARTCHAR 1193
ENCODING 4499
SWIDTH 990 0
DWIDTH 22 0
BBX 19 17 1 -2
BITMAP
FFFFE0
FFFFE0
060C00
060C00
060C00
060C00
060C00
060C00
000000
FFFFE0
FFFFE0
006000
006000
006000
006000
006000
006000
ENDCHAR
STARTCHAR 1194
ENCODING 4500
SWIDTH 990 0
DWIDTH 22 0
BBX 17 16 2 0
BITMAP
000180
000180
000180
000180
000180
FFF980
FFF980
18C180
18C180
18C180
18C180
18C180
18C180
18C180
18C180
18C180
ENDCHAR
STARTCHAR 1195
ENCODING 4501
SWIDTH 990 0
DWIDTH 22 0
BBX 19 14 1 0
BITMAP
FFFFE0
FFFFE0
000000
000000
000000
FFFFE0
FFFFE0
006000
006000
006000
006000
006000
006000
006000
ENDCHAR
STARTCHAR 1196
ENCODING 4502
SWIDTH 990 0
DWIDTH 22 0
BBX 19 7 1 5
BITMAP
FFFFE0
FFFFE0
000000
000000
000000
FFFFE0
FFFFE0
ENDCHAR
STARTCHAR 1197
ENCODING 4503
SWIDTH 990 0
DWIDTH 22 0
BBX 19 20 1 -4
BITMAP
000180
000180
000180
000180
000180
000180
000180
FFFD80
FFFD80
000180
000000
FFFFE0
FFFFE0
006000
006000
006000
006000
006000
006000
006000
ENDCHAR
STARTCHAR 1198
ENCODING 4504
SWIDTH 990 0
DWIDTH 22 0
BBX 10 16 9 0
BITMAP
C600
C600
C600
C600
C600
C600
C7C0
C7C0
C600
C600
C600
C600
C600
C600
C600
0600
ENDCHAR
STARTCHAR 1199
ENCODING 4505
SWIDTH 990 0
DWIDTH 22 0
BBX 10 16 9 0
BITMAP
C600
C600
C600
C600
C7C0
C7C0
C600
C600
C600
C7C0
C7C0
C600
C600
C600
C600
0600
ENDCHAR
STARTCHAR 119A
ENCODING 4506
SWIDTH 990 0
DWIDTH 22 0
BBX 19 17 1 -2
BITMAP
000180
000180
000180
000180
000180
000180
000180
000180
000180
006180
006180
006000
006000
006000
006000
006000
FFFFE0
ENDCHAR
STARTCHAR 119B
ENCODING 4507
SWIDTH 990 0
DWIDTH 22 0
BBX 19 19 1 -3
BITMAP
000180
000180
000180
000180
000180
000180
000180
000180
000000
000000
FFFFE0
FFFFE0
006000
006000
006000
006000
006000
006000
006000
ENDCHAR
STARTCHAR 119C
ENCODING 4508
SWIDTH 990 0
DWIDTH 22 0
BBX 19 17 1 -1
BITMAP
000180
000180
000180
000180
000180
000180
000180
000180
000180
000180
000180
000180
000180
000000
000000
FFFFE0
FFFFE0
ENDCHAR
STARTCHAR 119D
ENCODING 4509
SWIDTH 990 0
DWIDTH 22 0
BBX 4 19 9 -3
BITMAP
60
60
60
60
60
60
60
60
60
60
60
60
60
00
00
60
F0
F0
60
ENDCHAR
STARTCHAR 119E
ENCODING 4510
SWIDTH 990 0
DWIDTH 22 0
BBX 4 4 9 7
BITMAP
60
F0
F0
60
ENDCHAR
STARTCHAR 119F
ENCODING 4511
SWIDTH 990 0
DWIDTH 22 0
BBX 11 16 5 0
BITMAP
0060
0060
0060
0060
0060
1FE0
1FE0
0060
6060
F060
F060
6060
0060
0060
0060
0060
ENDCHAR
STARTCHAR 11A0
ENCODING 4512
SWIDTH 990 0
DWIDTH 22 0
BBX 19 18 1 -3
BITMAP
00C000
01E000
01E000
00C000
000000
000000
000000
000000
000000
FFFFE0
FFFFE0
006000
006000
006000
006000
006000
006000
006000
ENDCHAR
STARTCHAR 11A1
ENCODING 4513
SWIDTH 990 0
DWIDTH 22 0
BBX 11 16 6 0
BITMAP
0060
0060
0060
0060
0060
6060
F060
F060
6060
0060
0060
0060
0060
0060
0060
0060
ENDCHAR
STARTCHAR 11A2
ENCODING 4514
SWIDTH 990 0
DWIDTH 22 0
BBX 11 4 6 5
BITMAP
60C0
F1E0
F1E0
60C0
ENDCHAR
STARTCHAR 11A8
ENCODING 4520
SWIDTH 990 0
DWIDTH 22 0
BBX 14 8 4 -4
BITMAP
FFFC
FFFC
000C
000C
000C
000C
000C
000C
ENDCHAR
STARTCHAR 11A9
ENCODING 4521
SWIDTH 990 0
DWIDTH 22 0
BBX 16 8 3 -4
BITMAP
FF7F
FF7F
0303
0303
0303
0303
0303
0303
ENDCHAR
STARTCHAR 11AA
ENCODING 4522
SWIDTH 990 0
DWIDTH 22 0
BBX 16 8 3 -4
BITMAP
FE30
FE30
0630
0630
0678
066C
06C6
0683
ENDCHAR
STARTCHAR 11AB
ENCODING 4523
SWIDTH 990 0
DWIDTH 22 0
BBX 13 6 5 -3
BITMAP
C000
C000
C000
C000
C000
FFF8
ENDCHAR
STARTCHAR 11AC
ENCODING 4524
SWIDTH 990 0
DWIDTH 22 0
BBX 14 8 4 -5
BITMAP
C1FC
C1FC
C030
C030
C078
C0C8
FDCC
0104
ENDCHAR
STARTCHAR 11AD
ENCODING 4525
SWIDTH 990 0
DWIDTH 22 0
BBX 16 10 3 -4
BITMAP
0030
0030
C1FF
C000
C078
C1FE
C186
C186
FDCE
0078
ENDCHAR
STARTCHAR 11AE
ENCODING 4526
SWIDTH 990 0
DWIDTH 22 0
BBX 13 7 5 -3
BITMAP
FFF8
FFF8
C000
C000
C000
FFF8
FFF8
ENDCHAR
STARTCHAR 11AF
ENCODING 4527
SWIDTH 990 0
DWIDTH 22 0
BBX 13 9 5 -3
BITMAP
FFF8
FFF8
0018
0018
FFF8
FFF8
C000
FFF8
FFF8
ENDCHAR
STARTCHAR 11B0
ENCODING 4528
SWIDTH 990 0
DWIDTH 22 0
BBX 15 9 3 -5
BITMAP
FEFE
FEFE
0606
FE06
FE06
C006
C006
FF06
FC06
ENDCHAR
STARTCHAR 11B1
ENCODING 4529
SWIDTH 990 0
DWIDTH 22 0
BBX 16 9 3 -4
BITMAP
FEFF
FEFF
06C3
FEC3
FEC3
C0C3
C0C3
FFFF
FCFF
ENDCHAR
STARTCHAR 11B2
ENCODING 4530
SWIDTH 990 0
DWIDTH 22 0
BBX 15 8 3 -4
BITMAP
FEC6
FEC6
06C6
FEFE
FEFE
C0C6
C0C6
FFFE
ENDCHAR
STARTCHAR 11B3
ENCODING 4531
SWIDTH 990 0
DWIDTH 22 0
BBX 17 9 3 -4
BITMAP
FE1800
FE1800
061800
FE1800
FE3C00
C03600
C06700
FFC380
FC0000
ENDCHAR
STARTCHAR 11B4
ENCODING 4532
SWIDTH 990 0
DWIDTH 22 0
BBX 15 9 3 -4
BITMAP
FEFE
FEFE
06C0
FEFE
FEFE
C0C0
C0C0
FFFE
FCFE
ENDCHAR
STARTCHAR 11B5
ENCODING 4533
SWIDTH 990 0
DWIDTH 22 0
BBX 15 9 3 -4
BITMAP
FEFE
FEFE
0664
FE64
FE64
C064
C064
FFFE
FCFE
ENDCHAR
STARTCHAR 11B6
ENCODING 4534
SWIDTH 990 0
DWIDTH 22 0
BBX 16 10 3 -4
BITMAP
0018
0018
FEFF
0600
FE3C
FEFF
C0C3
C0C3
FEE6
FE3C
ENDCHAR
STARTCHAR 11B7
ENCODING 4535
SWIDTH 990 0
DWIDTH 22 0
BBX 13 7 5 -3
BITMAP
FFF8
FFF8
C018
C018
C018
FFF8
FFF8
ENDCHAR
STARTCHAR 11B8
ENCODING 4536
SWIDTH 990 0
DWIDTH 22 0
BBX 13 7 5 -4
BITMAP
C018
C018
FFF8
FFF8
C018
C018
FFF8
ENDCHAR
STARTCHAR 11B9
ENCODING 4537
SWIDTH 990 0
DWIDTH 22 0
BBX 16 7 3 -3
BITMAP
C630
C630
FE30
FE38
C678
C64C
FE87
ENDCHAR
STARTCHAR 11BA
ENCODING 4538
SWIDTH 990 0
DWIDTH 22 0
BBX 17 7 3 -4
BITMAP
018000
018000
03C000
076000
0C3000
381C00
E00780
ENDCHAR
STARTCHAR 11BB
ENCODING 4539
SWIDTH 990 0
DWIDTH 22 0
BBX 18 7 2 -4
BITMAP
0C0C00
0C0C00
0C0C00
1E1E00
331300
61B180
C040C0
ENDCHAR
STARTCHAR 11BC
ENCODING 4540
SWIDTH 990 0
DWIDTH 22 0
BBX 13 8 4 -3
BITMAP
0700
3FE0
7070
C018
C018
C018
7070
1FC0
ENDCHAR
STARTCHAR 11BD
ENCODING 4541
SWIDTH 990 0
DWIDTH 22 0
BBX 17 7 2 -4
BITMAP
7FFF00
7FFF00
008000
01C000
077000
1C1C00
F00780
ENDCHAR
STARTCHAR 11BE
ENCODING 4542
SWIDTH 990 0
DWIDTH 22 0
BBX 17 7 3 -4
BITMAP
018000
7FFF00
7FFF00
038000
07E000
1C3800
F00F80
ENDCHAR
STARTCHAR 11BF
ENCODING 4543
SWIDTH 990 0
DWIDTH 22 0
BBX 13 8 5 -4
BITMAP
FFF8
FFF8
0018
FFF8
FFF8
0018
0018
0018
ENDCHAR
STARTCHAR 11C0
ENCODING 4544
SWIDTH 990 0
DWIDTH 22 0
BBX 13 7 5 -3
BITMAP
FFF8
FFF8
FFF0
FFF0
C000
FFF8
FFF8
ENDCHAR
STARTCHAR 11C1
ENCODING 4545
SWIDTH 990 0
DWIDTH 22 0
BBX 15 8 4 -3
BITMAP
FFFC
FFFC
1830
1830
1830
1830
FFFE
FFFE
ENDCHAR
STARTCHAR 11C2
ENCODING 4546
SWIDTH 990 0
DWIDTH 22 0
BBX 15 10 3 -4
BITMAP
0180
0180
FFFE
0000
0FF0
3FFC
6006
6006
3FFC
0FF0
ENDCHAR
STARTCHAR 11C3
ENCODING 4547
SWIDTH 990 0
DWIDTH 22 0
BBX 16 9 3 -4
BITMAP
FEFF
FEFF
0603
06FF
06FF
06C0
06C0
06FF
06FC
ENDCHAR
STARTCHAR 11C4
ENCODING 4548
SWIDTH 990 0
DWIDTH 22 0
BBX 15 9 3 -4
BITMAP
F09E
F09E
1082
1082
1182
11C2
1342
1622
0020
ENDCHAR
STARTCHAR 11C5
ENCODING 4549
SWIDTH 990 0
DWIDTH 22 0
BBX 14 8 4 -4
BITMAP
C1FC
C1FC
C00C
C00C
C00C
C60C
FC0C
E00C
ENDCHAR
STARTCHAR 11C6
ENCODING 4550
SWIDTH 990 0
DWIDTH 22 0
BBX 15 7 3 -4
BITMAP
C0FE
C0FE
C0C0
C0C0
C0C0
C0C0
FEFE
ENDCHAR
STARTCHAR 11C7
ENCODING 4551
SWIDTH 990 0
DWIDTH 22 0
BBX 15 7 4 -4
BITMAP
C030
C030
C030
C078
C64C
FCC6
E182
ENDCHAR
STARTCHAR 11C8
ENCODING 4552
SWIDTH 990 0
DWIDTH 22 0
BBX 17 8 3 -2
BITMAP
C01800
C01800
C03C00
C02400
C06600
C2C200
FEFF00
F1FF80
ENDCHAR
STARTCHAR 11C9
ENCODING 4553
SWIDTH 990 0
DWIDTH 22 0
BBX 14 9 4 -4
BITMAP
C1FC
C1FC
C180
C1FC
C1FC
C180
CF80
FDFC
81FC
ENDCHAR
STARTCHAR 11CA
ENCODING 4554
SWIDTH 990 0
DWIDTH 22 0
BBX 15 8 3 -4
BITMAP
FEFE
FEFE
C006
C006
C006
FE06
FE06
0006
ENDCHAR
STARTCHAR 11CB
ENCODING 4555
SWIDTH 990 0
DWIDTH 22 0
BBX 17 9 3 -4
BITMAP
FE7F00
FE7F00
C00300
C07F00
C07F00
C06000
C06000
FE7F80
FE7F80
ENDCHAR
STARTCHAR 11CC
ENCODING 4556
SWIDTH 990 0
DWIDTH 22 0
BBX 15 8 3 -5
BITMAP
F788
F788
F088
F098
8094
80B4
F8E2
0080
ENDCHAR
STARTCHAR 11CD
ENCODING 4557
SWIDTH 990 0
DWIDTH 22 0
BBX 15 8 3 -4
BITMAP
FEC0
FEC0
06C0
FEC0
FEC0
C0C0
C0C0
FFFE
ENDCHAR
STARTCHAR 11CE
ENCODING 4558
SWIDTH 990 0
DWIDTH 22 0
BBX 15 9 3 -4
BITMAP
FEFE
FEFE
06C0
FEC0
FEC0
C0C0
C0C0
FFFE
FFFE
ENDCHAR
STARTCHAR 11CF
ENCODING 4559
SWIDTH 990 0
DWIDTH 22 0
BBX 18 10 3 -4
BITMAP
000600
F3C600
F3DFC0
120000
F20F00
F21980
821080
821080
FBD980
000F00
ENDCHAR
STARTCHAR 11D0
ENCODING 4560
SWIDTH 990 0
DWIDTH 22 0
BBX 17 8 3 -3
BITMAP
FE7F00
FE7F00
060300
FE7F00
FE7F00
C06000
FF7F80
FF7F80
ENDCHAR
STARTCHAR 11D1
ENCODING 4561
SWIDTH 990 0
DWIDTH 22 0
BBX 15 8 3 -5
BITMAP
F3DE
F3DE
F242
F242
8242
8242
FBC2
0002
ENDCHAR
STARTCHAR 11D2
ENCODING 4562
SWIDTH 990 0
DWIDTH 22 0
BBX 16 7 3 -4
BITMAP
F3C4
F3C4
F244
F24C
824E
825B
FBF1
ENDCHAR
STARTCHAR 11D3
ENCODING 4563
SWIDTH 990 0
DWIDTH 22 0
BBX 16 7 3 -4
BITMAP
F244
F244
F3C4
F3CC
824A
825A
FBF1
ENDCHAR
STARTCHAR 11D4
ENCODING 4564
SWIDTH 990 0
DWIDTH 22 0
BBX 18 10 3 -4
BITMAP
000600
000600
F25FC0
124600
F3CB00
F3D080
825080
825080
FBD980
000F00
ENDCHAR
STARTCHAR 11D5
ENCODING 4565
SWIDTH 990 0
DWIDTH 22 0
BBX 17 15 2 -4
BITMAP
00C180
00C180
00FF80
FEFF80
FEC180
06C180
FEFF80
FE0000
C03E00
FEF700
FEC180
00C180
00C180
006300
003E00
ENDCHAR
STARTCHAR 11D6
ENCODING 4566
SWIDTH 990 0
DWIDTH 22 0
BBX 16 7 2 -4
BITMAP
FC44
FC44
FC44
FCCC
C0AA
FDBB
FD11
ENDCHAR
STARTCHAR 11D7
ENCODING 4567
SWIDTH 990 0
DWIDTH 22 0
BBX 18 9 3 -4
BITMAP
FE0800
FE0C00
061C00
FE1600
FE3200
C02300
C06100
FF7F80
FCFFC0
ENDCHAR
STARTCHAR 11D8
ENCODING 4568
SWIDTH 990 0
DWIDTH 22 0
BBX 15 8 3 -4
BITMAP
FEFE
FEFE
0606
FEFE
FEFE
C006
FF06
FF06
ENDCHAR
STARTCHAR 11D9
ENCODING 4569
SWIDTH 990 0
DWIDTH 22 0
BBX 16 9 3 -4
BITMAP
FEFF
FEFF
0618
FE7E
FEE7
C0C3
C0C3
FE7E
FC3C
ENDCHAR
STARTCHAR 11DA
ENCODING 4570
SWIDTH 990 0
DWIDTH 22 0
BBX 15 8 3 -4
BITMAP
FEFE
FEFE
C606
C606
C606
C606
FE06
FE06
ENDCHAR
STARTCHAR 11DB
ENCODING 4571
SWIDTH 990 0
DWIDTH 22 0
BBX 16 8 3 -3
BITMAP
FEFF
FEFF
C603
C6FF
C6FF
C6C0
FEFF
FEFF
ENDCHAR
STARTCHAR 11DC
ENCODING 4572
SWIDTH 990 0
DWIDTH 22 0
BBX 15 7 3 -4
BITMAP
FEC6
FEC6
C6FE
C6FE
C6C6
C6C6
FEFE
ENDCHAR
STARTCHAR 11DD
ENCODING 4573
SWIDTH 990 0
DWIDTH 22 0
BBX 15 8 4 -4
BITMAP
FE30
FE30
C630
C630
C678
C64C
FEC6
FE82
ENDCHAR
STARTCHAR 11DE
ENCODING 4574
SWIDTH 990 0
DWIDTH 22 0
BBX 15 7 3 -4
BITMAP
F888
8888
8888
8998
8954
FB36
FA22
ENDCHAR
STARTCHAR 11DF
ENCODING 4575
SWIDTH 990 0
DWIDTH 22 0
BBX 17 8 3 -2
BITMAP
FE0800
FE1800
C61C00
C63400
C62200
C64300
FEFF00
FEFF80
ENDCHAR
STARTCHAR 11E0
ENCODING 4576
SWIDTH 990 0
DWIDTH 22 0
BBX 16 8 3 -4
BITMAP
FE18
FEFF
C6FF
C618
C638
C63C
FEE7
FEC1
ENDCHAR
STARTCHAR 11E1
ENCODING 4577
SWIDTH 990 0
DWIDTH 22 0
BBX 16 10 3 -4
BITMAP
0018
0018
FEFF
C600
C63C
C6FF
C6C3
FEC3
FEE6
003C
ENDCHAR
STARTCHAR 11E2
ENCODING 4578
SWIDTH 990 0
DWIDTH 22 0
BBX 13 15 5 -4
BITMAP
FFF8
FFF8
C018
C018
C018
C018
FFF8
FFF8
0000
0F00
1080
2040
2040
10C0
0F00
ENDCHAR
STARTCHAR 11E3
ENCODING 4579
SWIDTH 990 0
DWIDTH 22 0
BBX 16 8 3 -4
BITMAP
C67F
C67F
C603
FE7F
FE7F
C660
C660
FE7F
ENDCHAR
STARTCHAR 11E4
ENCODING 4580
SWIDTH 990 0
DWIDTH 22 0
BBX 15 8 3 -4
BITMAP
C6FE
C6FE
C664
FE64
FE64
C664
C664
FEFE
ENDCHAR
STARTCHAR 11E5
ENCODING 4581
SWIDTH 990 0
DWIDTH 22 0
BBX 16 10 3 -4
BITMAP
0018
C618
C6FF
C600
FE3C
FEFE
C6C3
C6C3
FEE6
003C
ENDCHAR
STARTCHAR 11E6
ENCODING 4582
SWIDTH 990 0
DWIDTH 22 0
BBX 13 15 5 -4
BITMAP
C018
C018
FFF8
FFF8
C018
C018
FFF8
0000
0000
0F00
1080
2040
2040
10C0
0F00
ENDCHAR
STARTCHAR 11E7
ENCODING 4583
SWIDTH 990 0
DWIDTH 22 0
BBX 15 8 3 -5
BITMAP
18FE
18FE
1806
1806
3C06
3606
6606
C306
ENDCHAR
STARTCHAR 11E8
ENCODING 4584
SWIDTH 990 0
DWIDTH 22 0
BBX 15 8 3 -5
BITMAP
187E
187E
1860
1860
3C60
6660
E37E
C17E
ENDCHAR
STARTCHAR 11E9
ENCODING 4585
SWIDTH 990 0
DWIDTH 22 0
BBX 16 9 3 -4
BITMAP
187F
187F
1803
187F
3C7F
3C60
6660
C37F
817F
ENDCHAR
STARTCHAR 11EA
ENCODING 4586
SWIDTH 990 0
DWIDTH 22 0
BBX 16 7 3 -3
BITMAP
18C3
18C3
18FF
18FF
3CC3
66C3
C3FF
ENDCHAR
STARTCHAR 11EB
ENCODING 4587
SWIDTH 990 0
DWIDTH 22 0
BBX 13 8 4 -2
BITMAP
0200
0700
0D80
08C0
1060
3030
7FF0
FFF8
ENDCHAR
STARTCHAR 11EC
ENCODING 4588
SWIDTH 990 0
DWIDTH 22 0
BBX 15 8 3 -4
BITMAP
18FE
7EFE
C306
8106
8106
8106
4206
3C06
ENDCHAR
STARTCHAR 11ED
ENCODING 4589
SWIDTH 990 0
DWIDTH 22 0
BBX 18 8 2 -4
BITMAP
39F7C0
45F7C0
8230C0
8230C0
8230C0
C630C0
7C30C0
3830C0
ENDCHAR
STARTCHAR 11EE
ENCODING 4590
SWIDTH 990 0
DWIDTH 22 0
BBX 17 8 2 -4
BITMAP
3C1E00
7E3F00
C36180
814080
814080
C36180
7E3F00
3C1E00
ENDCHAR
STARTCHAR 11EF
ENCODING 4591
SWIDTH 990 0
DWIDTH 22 0
BBX 16 8 3 -4
BITMAP
187F
7E7F
C303
817F
817F
8103
4203
3C03
ENDCHAR
STARTCHAR 11F0
ENCODING 4592
SWIDTH 990 0
DWIDTH 22 0
BBX 13 8 4 -2
BITMAP
0300
1FE0
7070
C018
C018
C018
7070
1FC0
ENDCHAR
STARTCHAR 11F1
ENCODING 4593
SWIDTH 990 0
DWIDTH 22 0
BBX 17 9 3 -3
BITMAP
080000
1C1800
3E1800
631800
C19800
C1BC00
E1A600
7F6380
1E4100
ENDCHAR
STARTCHAR 11F2
ENCODING 4594
SWIDTH 990 0
DWIDTH 22 0
BBX 19 10 3 -4
BITMAP
080000
080000
7F0600
C38600
81CF00
80D900
80D980
81F0C0
43B0C0
3E7FE0
ENDCHAR
STARTCHAR 11F3
ENCODING 4595
SWIDTH 990 0
DWIDTH 22 0
BBX 16 7 3 -4
BITMAP
FE63
FE63
647F
647F
6463
6463
FE7F
ENDCHAR
STARTCHAR 11F4
ENCODING 4596
SWIDTH 990 0
DWIDTH 22 0
BBX 15 15 4 -4
BITMAP
FFFC
FFFC
1830
1830
1830
1830
FFFE
FFFE
0000
07C0
1C60
1830
1830
1C70
07C0
ENDCHAR
STARTCHAR 11F5
ENCODING 4597
SWIDTH 990 0
DWIDTH 22 0
BBX 16 10 3 -4
BITMAP
1800
1800
FF60
1860
7E60
E760
C360
C360
6760
3C7F
ENDCHAR
STARTCHAR 11F6
ENCODING 4598
SWIDTH 990 0
DWIDTH 22 0
BBX 16 11 3 -5
BITMAP
1800
187F
FF7F
0003
3C7F
7E7F
C360
C360
E77F
7E7F
1800
ENDCHAR
STARTCHAR 11F7
ENCODING 4599
SWIDTH 990 0
DWIDTH 22 0
BBX 16 10 3 -4
BITMAP
1800
1800
FF7F
1863
7E63
E763
C363
C363
7E7F
3C7F
ENDCHAR
STARTCHAR 11F8
ENCODING 4600
SWIDTH 990 0
DWIDTH 22 0
BBX 16 10 3 -4
BITMAP
1800
1800
FF63
1863
7E7F
E77F
C363
C363
7E7F
3C00
ENDCHAR
STARTCHAR 11F9
ENCODING 4601
SWIDTH 990 0
DWIDTH 22 0
BBX 15 9 3 -4
BITMAP
FFFE
FFFE
0000
0FF0
3FFC
6006
6006
3FFC
0FF0
ENDCHAR
STARTCHAR 2013
ENCODING 8211
SWIDTH 990 0
DWIDTH 22 0
BBX 13 2 0 5
BITMAP
FFF8
FFF8
ENDCHAR
STARTCHAR 2014
ENCODING 8212
SWIDTH 990 0
DWIDTH 22 0
BBX 13 2 0 5
BITMAP
FFF8
FFF8
ENDCHAR
STARTCHAR 2015
ENCODING 8213
SWIDTH 990 0
DWIDTH 22 0
BBX 22 2 0 6
BITMAP
FFFFFC
FFFFFC
ENDCHAR
STARTCHAR 2018
ENCODING 8216
SWIDTH 990 0
DWIDTH 22 0
BBX 3 6 5 10
BITMAP
60
60
40
C0
C0
C0
ENDCHAR
STARTCHAR 2019
ENCODING 8217
SWIDTH 990 0
DWIDTH 22 0
BBX 3 6 5 10
BITMAP
60
60
60
60
C0
C0
ENDCHAR
STARTCHAR 201A
ENCODING 8218
SWIDTH 990 0
DWIDTH 22 0
BBX 3 6 4 -3
BITMAP
60
60
60
60
C0
C0
ENDCHAR
STARTCHAR 201C
ENCODING 8220
SWIDTH 990 0
DWIDTH 22 0
BBX 8 6 2 10
BITMAP
63
63
62
C6
C6
C6
ENDCHAR
STARTCHAR 201D
ENCODING 8221
SWIDTH 990 0
DWIDTH 22 0
BBX 8 6 2 10
BITMAP
63
63
63
67
C6
C6
ENDCHAR
STARTCHAR 201E
ENCODING 8222
SWIDTH 990 0
DWIDTH 22 0
BBX 8 6 2 -3
BITMAP
63
63
63
67
C6
C6
ENDCHAR
STARTCHAR 2020
ENCODING 8224
SWIDTH 990 0
DWIDTH 22 0
BBX 10 18 2 -2
BITMAP
0C00
0C00
0C00
0C00
0C00
FFC0
FFC0
0C00
0C00
0C00
0C00
0C00
0C00
0C00
0C00
0C00
0C00
0C00
ENDCHAR
STARTCHAR 2021
ENCODING 8225
SWIDTH 990 0
DWIDTH 22 0
BBX 10 18 2 -2
BITMAP
0C00
0C00
0C00
0C00
0C00
FFC0
FFC0
0C00
0C00
0C00
0C00
0C00
FFC0
FFC0
0C00
0C00
0C00
0C00
ENDCHAR
STARTCHAR 2022
ENCODING 8226
SWIDTH 990 0
DWIDTH 22 0
BBX 6 6 3 5
BITMAP
78
FC
FC
FC
FC
78
ENDCHAR
STARTCHAR 2025
ENCODING 8229
SWIDTH 990 0
DWIDTH 22 0
BBX 7 2 2 2
BITMAP
C6
C6
ENDCHAR
STARTCHAR 2026
ENCODING 8230
SWIDTH 990 0
DWIDTH 22 0
BBX 12 3 1 0
BITMAP
C630
C630
C630
ENDCHAR
STARTCHAR 2030
ENCODING 8240
SWIDTH 990 0
DWIDTH 22 0
BBX 13 15 0 0
BITMAP
7800
FC00
8400
8400
FC70
7980
0E00
3800
4000
38F0
7DF8
4508
4508
7DF8
38F0
ENDCHAR
STARTCHAR 2032
ENCODING 8242
SWIDTH 990 0
DWIDTH 22 0
BBX 2 5 4 11
BITMAP
40
40
40
C0
C0
ENDCHAR
STARTCHAR 2033
ENCODING 8243
SWIDTH 990 0
DWIDTH 22 0
BBX 5 5 5 11
BITMAP
48
48
D8
D8
90
ENDCHAR
STARTCHAR 2039
ENCODING 8249
SWIDTH 990 0
DWIDTH 22 0
BBX 5 9 4 2
BITMAP
08
18
30
60
C0
E0
30
18
08
ENDCHAR
STARTCHAR 203A
ENCODING 8250
SWIDTH 990 0
DWIDTH 22 0
BBX 5 9 4 2
BITMAP
80
C0
60
30
18
38
60
C0
80
ENDCHAR
STARTCHAR 203B
ENCODING 8251
SWIDTH 990 0
DWIDTH 22 0
BBX 12 12 4 3
BITMAP
8010
4620
2040
1080
0900
0600
6660
0900
1080
2040
4620
8010
ENDCHAR
STARTCHAR 2074
ENCODING 8308
SWIDTH 990 0
DWIDTH 22 0
BBX 7 9 0 6
BITMAP
0C
1C
14
24
64
44
FE
04
04
ENDCHAR
STARTCHAR 207F
ENCODING 8319
SWIDTH 990 0
DWIDTH 22 0
BBX 6 8 5 8
BITMAP
B8
CC
84
84
84
84
84
84
ENDCHAR
STARTCHAR 2081
ENCODING 8321
SWIDTH 990 0
DWIDTH 22 0
BBX 6 10 2 0
BITMAP
20
E0
20
20
20
20
20
20
FC
FC
ENDCHAR
STARTCHAR 2082
ENCODING 8322
SWIDTH 990 0
DWIDTH 22 0
BBX 6 9 1 0
BITMAP
78
04
04
0C
18
30
60
FC
FC
ENDCHAR
STARTCHAR 2083
ENCODING 8323
SWIDTH 990 0
DWIDTH 22 0
BBX 6 10 1 0
BITMAP
78
4C
04
04
0C
38
0C
04
8C
F8
ENDCHAR
STARTCHAR 2084
ENCODING 8324
SWIDTH 990 0
DWIDTH 22 0
BBX 7 9 0 0
BITMAP
0C
0C
14
24
64
44
FE
04
04
ENDCHAR
STARTCHAR 20AC
ENCODING 8364
SWIDTH 990 0
DWIDTH 22 0
BBX 11 16 0 0
BITMAP
07C0
0FE0
1800
1800
3000
7F80
FF80
3000
7F00
FF00
3000
3000
1800
1C20
0FE0
07C0
ENDCHAR
STARTCHAR 2122
ENCODING 8482
SWIDTH 990 0
DWIDTH 22 0
BBX 12 6 0 10
BITMAP
FB30
2370
22D0
22D0
2210
2210
ENDCHAR
STARTCHAR 215B
ENCODING 8539
SWIDTH 990 0
DWIDTH 22 0
BBX 15 18 0 1
BITMAP
E000
A030
2020
2040
20C0
2080
2180
2100
FB3C
0242
0642
0442
0C3C
0866
1042
3042
203C
6000
ENDCHAR
STARTCHAR 215C
ENCODING 8540
SWIDTH 990 0
DWIDTH 22 0
BBX 16 17 0 1
BITMAP
0018
F810
0430
0420
3860
0C40
04C0
0C9E
F9A1
0121
0321
021E
0633
0421
0C21
081E
1000
ENDCHAR
STARTCHAR 215D
ENCODING 8541
SWIDTH 990 0
DWIDTH 22 0
BBX 17 17 0 0
BITMAP
7C0800
401800
401000
7C3000
0E2000
066000
064000
8ECF00
FC9080
019080
011080
020F00
021980
041080
041080
080F00
080000
ENDCHAR
STARTCHAR 215E
ENCODING 8542
SWIDTH 990 0
DWIDTH 22 0
BBX 16 17 0 1
BITMAP
0018
FC10
0C30
0820
1840
10C0
1080
219E
2121
0321
0221
061E
0433
0C21
0821
181E
1000
ENDCHAR
STARTCHAR 2202
ENCODING 8706
SWIDTH 990 0
DWIDTH 22 0
BBX 9 15 2 0
BITMAP
0800
3E00
3300
0180
0180
0180
3D80
6580
E380
C380
C380
C300
C300
6600
3C00
ENDCHAR
STARTCHAR 2206
ENCODING 8710
SWIDTH 990 0
DWIDTH 22 0
BBX 13 15 0 0
BITMAP
0700
0700
0580
0D80
0D80
18C0
18C0
18C0
3060
3060
3030
6030
6030
FFF8
FFF8
ENDCHAR
STARTCHAR 220F
ENCODING 8719
SWIDTH 990 0
DWIDTH 22 0
BBX 10 20 2 -4
BITMAP
FFC0
FFC0
C0C0
C0C0
C0C0
C0C0
C0C0
C0C0
C0C0
C0C0
C0C0
C0C0
C0C0
C0C0
C0C0
C0C0
C0C0
C0C0
C0C0
C0C0
ENDCHAR
STARTCHAR 2211
ENCODING 8721
SWIDTH 990 0
DWIDTH 22 0
BBX 10 20 2 -4
BITMAP
FFC0
FFC0
6000
2000
3000
1800
0800
0C00
0600
0200
0600
0400
0C00
1800
1000
3000
6000
6000
FFC0
FFC0
ENDCHAR
STARTCHAR 2212
ENCODING 8722
SWIDTH 990 0
DWIDTH 22 0
BBX 11 2 1 6
BITMAP
FFE0
FFE0
ENDCHAR
STARTCHAR 2215
ENCODING 8725
SWIDTH 990 0
DWIDTH 22 0
BBX 10 18 1 -2
BITMAP
00C0
00C0
0180
0180
0300
0300
0600
0600
0E00
0C00
0C00
1800
1800
3000
3000
6000
6000
C000
ENDCHAR
STARTCHAR 2219
ENCODING 8729
SWIDTH 990 0
DWIDTH 22 0
BBX 2 3 5 6
BITMAP
C0
C0
C0
ENDCHAR
STARTCHAR 221A
ENCODING 8730
SWIDTH 990 0
DWIDTH 22 0
BBX 12 18 1 0
BITMAP
0030
0030
0020
0060
0060
0040
00C0
00C0
6080
F180
3180
1100
1B00
1B00
0A00
0E00
0E00
0400
ENDCHAR
STARTCHAR 221E
ENCODING 8734
SWIDTH 990 0
DWIDTH 22 0
BBX 12 8 1 3
BITMAP
71C0
F9E0
8F30
8610
8610
8F30
F9E0
70C0
ENDCHAR
STARTCHAR 222B
ENCODING 8747
SWIDTH 990 0
DWIDTH 22 0
BBX 10 20 1 -5
BITMAP
03C0
06C0
0480
0400
0C00
0C00
0C00
0C00
0C00
0C00
0C00
0C00
0C00
0C00
0C00
0C00
0C00
4800
F800
F000
ENDCHAR
STARTCHAR 2248
ENCODING 8776
SWIDTH 990 0
DWIDTH 22 0
BBX 11 7 1 3
BITMAP
7820
FFE0
83C0
0000
7820
FFE0
83C0
ENDCHAR
STARTCHAR 2260
ENCODING 8800
SWIDTH 990 0
DWIDTH 22 0
BBX 11 12 1 1
BITMAP
0040
00C0
0180
FFE0
FFE0
0600
0C00
FFE0
FFE0
3000
6000
4000
ENDCHAR
STARTCHAR 2264
ENCODING 8804
SWIDTH 990 0
DWIDTH 22 0
BBX 11 11 1 1
BITMAP
0060
07E0
3F00
F800
F000
3E00
07E0
00E0
0000
FFE0
FFE0
ENDCHAR
STARTCHAR 2265
ENCODING 8805
SWIDTH 990 0
DWIDTH 22 0
BBX 11 11 1 1
BITMAP
C000
F800
1F80
03E0
01E0
0F80
FC00
E000
0000
FFE0
FFE0
ENDCHAR
STARTCHAR 243C
ENCODING 9276
SWIDTH 990 0
DWIDTH 22 0
BBX 22 21 0 -4
BITMAP
002000
002000
002000
002000
002000
002000
002000
002000
002000
FFFFFC
FFFFFC
002000
002000
002000
002000
002000
002000
002000
002000
002000
002000
ENDCHAR
STARTCHAR 2500
ENCODING 9472
SWIDTH 990 0
DWIDTH 22 0
BBX 22 2 0 6
BITMAP
FFFFFC
FFFFFC
ENDCHAR
STARTCHAR 2501
ENCODING 9473
SWIDTH 990 0
DWIDTH 22 0
BBX 22 2 0 6
BITMAP
FFFFFC
FFFFFC
ENDCHAR
STARTCHAR 2502
ENCODING 9474
SWIDTH 990 0
DWIDTH 22 0
BBX 1 21 0 -4
BITMAP
80
80
80
80
80
80
80
80
80
80
80
80
80
80
80
80
80
80
80
80
80
ENDCHAR
STARTCHAR 2503
ENCODING 9475
SWIDTH 990 0
DWIDTH 22 0
BBX 2 21 10 -4
BITMAP
C0
C0
C0
C0
C0
C0
C0
C0
C0
C0
C0
C0
C0
C0
C0
C0
C0
C0
C0
C0
C0
ENDCHAR
STARTCHAR 250C
ENCODING 9484
SWIDTH 990 0
DWIDTH 22 0
BBX 11 12 0 -4
BITMAP
FFE0
FFE0
8000
8000
8000
8000
8000
8000
8000
8000
8000
8000
ENDCHAR
STARTCHAR 250D
ENCODING 9485
SWIDTH 990 0
DWIDTH 22 0
BBX 11 12 10 -4
BITMAP
FFE0
FFE0
8000
8000
8000
8000
8000
8000
8000
8000
8000
8000
ENDCHAR
STARTCHAR 250E
ENCODING 9486
SWIDTH 990 0
DWIDTH 22 0
BBX 12 11 10 -4
BITMAP
FFF0
C000
C000
C000
C000
C000
C000
C000
C000
C000
C000
ENDCHAR
STARTCHAR 250F
ENCODING 9487
SWIDTH 990 0
DWIDTH 22 0
BBX 12 12 10 -4
BITMAP
FFF0
FFF0
C000
C000
C000
C000
C000
C000
C000
C000
C000
C000
ENDCHAR
STARTCHAR 2510
ENCODING 9488
SWIDTH 990 0
DWIDTH 22 0
BBX 11 12 1 -4
BITMAP
FFE0
FFE0
0020
0020
0020
0020
0020
0020
0020
0020
0020
0020
ENDCHAR
STARTCHAR 2511
ENCODING 9489
SWIDTH 990 0
DWIDTH 22 0
BBX 11 12 0 -4
BITMAP
FFE0
FFE0
0020
0020
0020
0020
0020
0020
0020
0020
0020
0020
ENDCHAR
STARTCHAR 2512
ENCODING 9490
SWIDTH 990 0
DWIDTH 22 0
BBX 12 11 0 -4
BITMAP
FFF0
0030
0030
0030
0030
0030
0030
0030
0030
0030
0030
ENDCHAR
STARTCHAR 2513
ENCODING 9491
SWIDTH 990 0
DWIDTH 22 0
BBX 12 12 0 -4
BITMAP
FFF0
FFF0
0030
0030
0030
0030
0030
0030
0030
0030
0030
0030
ENDCHAR
STARTCHAR 2514
ENCODING 9492
SWIDTH 990 0
DWIDTH 22 0
BBX 11 11 0 6
BITMAP
8000
8000
8000
8000
8000
8000
8000
8000
8000
8000
FFE0
ENDCHAR
STARTCHAR 2515
ENCODING 9493
SWIDTH 990 0
DWIDTH 22 0
BBX 11 12 10 6
BITMAP
8000
8000
8000
8000
8000
8000
8000
8000
8000
8000
FFE0
FFE0
ENDCHAR
STARTCHAR 2516
ENCODING 9494
SWIDTH 990 0
DWIDTH 22 0
BBX 12 11 10 7
BITMAP
C000
C000
C000
C000
C000
C000
C000
C000
C000
C000
FFF0
ENDCHAR
STARTCHAR 2517
ENCODING 9495
SWIDTH 990 0
DWIDTH 22 0
BBX 12 12 10 6
BITMAP
C000
C000
C000
C000
C000
C000
C000
C000
C000
C000
FFF0
FFF0
ENDCHAR
STARTCHAR 2518
ENCODING 9496
SWIDTH 990 0
DWIDTH 22 0
BBX 11 11 1 6
BITMAP
0020
0020
0020
0020
0020
0020
0020
0020
0020
0020
FFE0
ENDCHAR
STARTCHAR 2519
ENCODING 9497
SWIDTH 990 0
DWIDTH 22 0
BBX 11 12 0 6
BITMAP
0020
0020
0020
0020
0020
0020
0020
0020
0020
0020
FFE0
FFE0
ENDCHAR
STARTCHAR 251A
ENCODING 9498
SWIDTH 990 0
DWIDTH 22 0
BBX 12 11 0 7
BITMAP
0030
0030
0030
0030
0030
0030
0030
0030
0030
0030
FFF0
ENDCHAR
STARTCHAR 251B
ENCODING 9499
SWIDTH 990 0
DWIDTH 22 0
BBX 12 12 0 6
BITMAP
0030
0030
0030
0030
0030
0030
0030
0030
0030
0030
FFF0
FFF0
ENDCHAR
STARTCHAR 251C
ENCODING 9500
SWIDTH 990 0
DWIDTH 22 0
BBX 11 21 6 -4
BITMAP
8000
8000
8000
8000
8000
8000
8000
8000
8000
FFE0
FFE0
8000
8000
8000
8000
8000
8000
8000
8000
8000
8000
ENDCHAR
STARTCHAR 251D
ENCODING 9501
SWIDTH 990 0
DWIDTH 22 0
BBX 11 21 10 -4
BITMAP
8000
8000
8000
8000
8000
8000
8000
8000
8000
FFE0
FFE0
8000
8000
8000
8000
8000
8000
8000
8000
8000
8000
ENDCHAR
STARTCHAR 251E
ENCODING 9502
SWIDTH 990 0
DWIDTH 22 0
BBX 12 21 10 -3
BITMAP
C000
C000
C000
C000
C000
C000
C000
C000
C000
C000
FFF0
8000
8000
8000
8000
8000
8000
8000
8000
8000
8000
ENDCHAR
STARTCHAR 251F
ENCODING 9503
SWIDTH 990 0
DWIDTH 22 0
BBX 12 21 10 -3
BITMAP
8000
8000
8000
8000
8000
8000
8000
8000
8000
8000
FFF0
C000
C000
C000
C000
C000
C000
C000
C000
C000
C000
ENDCHAR
STARTCHAR 2520
ENCODING 9504
SWIDTH 990 0
DWIDTH 22 0
BBX 12 21 10 -4
BITMAP
C000
C000
C000
C000
C000
C000
C000
C000
C000
C000
FFF0
C000
C000
C000
C000
C000
C000
C000
C000
C000
C000
ENDCHAR
STARTCHAR 2521
ENCODING 9505
SWIDTH 990 0
DWIDTH 22 0
BBX 12 22 10 -4
BITMAP
C000
C000
C000
C000
C000
C000
C000
C000
C000
C000
FFF0
FFF0
8000
8000
8000
8000
8000
8000
8000
8000
8000
8000
ENDCHAR
STARTCHAR 2522
ENCODING 9506
SWIDTH 990 0
DWIDTH 22 0
BBX 12 22 10 -4
BITMAP
8000
8000
8000
8000
8000
8000
8000
8000
8000
8000
FFF0
FFF0
C000
C000
C000
C000
C000
C000
C000
C000
C000
C000
ENDCHAR
STARTCHAR 2523
ENCODING 9507
SWIDTH 990 0
DWIDTH 22 0
BBX 12 21 10 -4
BITMAP
C000
C000
C000
C000
C000
C000
C000
C000
C000
FFF0
FFF0
C000
C000
C000
C000
C000
C000
C000
C000
C000
C000
ENDCHAR
STARTCHAR 2524
ENCODING 9508
SWIDTH 990 0
DWIDTH 22 0
BBX 11 21 1 -4
BITMAP
0020
0020
0020
0020
0020
0020
0020
0020
0020
FFE0
FFE0
0020
0020
0020
0020
0020
0020
0020
0020
0020
0020
ENDCHAR
STARTCHAR 2525
ENCODING 9509
SWIDTH 990 0
DWIDTH 22 0
BBX 11 21 0 -4
BITMAP
0020
0020
0020
0020
0020
0020
0020
0020
0020
FFE0
FFE0
0020
0020
0020
0020
0020
0020
0020
0020
0020
0020
ENDCHAR
STARTCHAR 2526
ENCODING 9510
SWIDTH 990 0
DWIDTH 22 0
BBX 12 21 0 -3
BITMAP
0030
0030
0030
0030
0030
0030
0030
0030
0030
0030
FFF0
0020
0020
0020
0020
0020
0020
0020
0020
0020
0020
ENDCHAR
STARTCHAR 2527
ENCODING 9511
SWIDTH 990 0
DWIDTH 22 0
BBX 12 21 0 -4
BITMAP
0020
0020
0020
0020
0020
0020
0020
0020
0020
0020
FFF0
0030
0030
0030
0030
0030
0030
0030
0030
0030
0030
ENDCHAR
STARTCHAR 2528
ENCODING 9512
SWIDTH 990 0
DWIDTH 22 0
BBX 12 21 0 -4
BITMAP
0030
0030
0030
0030
0030
0030
0030
0030
0030
0030
FFF0
0030
0030
0030
0030
0030
0030
0030
0030
0030
0030
ENDCHAR
STARTCHAR 2529
ENCODING 9513
SWIDTH 990 0
DWIDTH 22 0
BBX 12 22 0 -4
BITMAP
0030
0030
0030
0030
0030
0030
0030
0030
0030
0030
FFF0
FFF0
0020
0020
0020
0020
0020
0020
0020
0020
0020
0020
ENDCHAR
STARTCHAR 252A
ENCODING 9514
SWIDTH 990 0
DWIDTH 22 0
BBX 12 21 0 -4
BITMAP
0020
0020
0020
0020
0020
0020
0020
0020
0020
FFF0
FFF0
0030
0030
0030
0030
0030
0030
0030
0030
0030
0030
ENDCHAR
STARTCHAR 252B
ENCODING 9515
SWIDTH 990 0
DWIDTH 22 0
BBX 12 21 0 -4
BITMAP
0030
0030
0030
0030
0030
0030
0030
0030
0030
FFF0
FFF0
0030
0030
0030
0030
0030
0030
0030
0030
0030
0030
ENDCHAR
STARTCHAR 252C
ENCODING 9516
SWIDTH 990 0
DWIDTH 22 0
BBX 22 12 0 -4
BITMAP
FFFFFC
FFFFFC
002000
002000
002000
002000
002000
002000
002000
002000
002000
002000
ENDCHAR
STARTCHAR 252D
ENCODING 9517
SWIDTH 990 0
DWIDTH 22 0
BBX 21 12 0 -4
BITMAP
FFE000
FFFFF8
002000
002000
002000
002000
002000
002000
002000
002000
002000
002000
ENDCHAR
STARTCHAR 252E
ENCODING 9518
SWIDTH 990 0
DWIDTH 22 0
BBX 21 12 0 -4
BITMAP
003FF8
FFFFF8
002000
002000
002000
002000
002000
002000
002000
002000
002000
002000
ENDCHAR
STARTCHAR 252F
ENCODING 9519
SWIDTH 990 0
DWIDTH 22 0
BBX 22 12 0 -4
BITMAP
FFFFFC
FFFFFC
002000
002000
002000
002000
002000
002000
002000
002000
002000
002000
ENDCHAR
STARTCHAR 2530
ENCODING 9520
SWIDTH 990 0
DWIDTH 22 0
BBX 22 11 0 -4
BITMAP
FFFFFC
003000
003000
003000
003000
003000
003000
003000
003000
003000
003000
ENDCHAR
STARTCHAR 2531
ENCODING 9521
SWIDTH 990 0
DWIDTH 22 0
BBX 22 12 0 -4
BITMAP
FFF000
FFFFFC
003000
003000
003000
003000
003000
003000
003000
003000
003000
003000
ENDCHAR
STARTCHAR 2532
ENCODING 9522
SWIDTH 990 0
DWIDTH 22 0
BBX 22 12 0 -4
BITMAP
003FFC
FFFFFC
003000
003000
003000
003000
003000
003000
003000
003000
003000
003000
ENDCHAR
STARTCHAR 2533
ENCODING 9523
SWIDTH 990 0
DWIDTH 22 0
BBX 22 12 0 -4
BITMAP
FFFFFC
FFFFFC
003000
003000
003000
003000
003000
003000
003000
003000
003000
003000
ENDCHAR
STARTCHAR 2534
ENCODING 9524
SWIDTH 990 0
DWIDTH 22 0
BBX 22 11 0 6
BITMAP
002000
002000
002000
002000
002000
002000
002000
002000
002000
002000
FFFFFC
ENDCHAR
STARTCHAR 2535
ENCODING 9525
SWIDTH 990 0
DWIDTH 22 0
BBX 21 12 0 6
BITMAP
002000
002000
002000
002000
002000
002000
002000
002000
002000
002000
FFE000
FFFFF8
ENDCHAR
STARTCHAR 2536
ENCODING 9526
SWIDTH 990 0
DWIDTH 22 0
BBX 21 12 0 6
BITMAP
002000
002000
002000
002000
002000
002000
002000
002000
002000
002000
003FF8
FFFFF8
ENDCHAR
STARTCHAR 2537
ENCODING 9527
SWIDTH 990 0
DWIDTH 22 0
BBX 22 12 0 6
BITMAP
002000
002000
002000
002000
002000
002000
002000
002000
002000
002000
FFFFFC
FFFFFC
ENDCHAR
STARTCHAR 2538
ENCODING 9528
SWIDTH 990 0
DWIDTH 22 0
BBX 22 11 0 7
BITMAP
003000
003000
003000
003000
003000
003000
003000
003000
003000
003000
FFFFFC
ENDCHAR
STARTCHAR 2539
ENCODING 9529
SWIDTH 990 0
DWIDTH 22 0
BBX 22 12 0 6
BITMAP
003000
003000
003000
003000
003000
003000
003000
003000
003000
003000
FFF000
FFFFFC
ENDCHAR
STARTCHAR 253A
ENCODING 9530
SWIDTH 990 0
DWIDTH 22 0
BBX 22 12 0 6
BITMAP
003000
003000
003000
003000
003000
003000
003000
003000
003000
003000
003FFC
FFFFFC
ENDCHAR
STARTCHAR 253B
ENCODING 9531
SWIDTH 990 0
DWIDTH 22 0
BBX 22 12 0 6
BITMAP
003000
003000
003000
003000
003000
003000
003000
003000
003000
003000
FFFFFC
FFFFFC
ENDCHAR
STARTCHAR 253D
ENCODING 9533
SWIDTH 990 0
DWIDTH 22 0
BBX 21 21 0 -4
BITMAP
002000
002000
002000
002000
002000
002000
002000
002000
002000
FFE000
FFFFF8
002000
002000
002000
002000
002000
002000
002000
002000
002000
002000
ENDCHAR
STARTCHAR 253E
ENCODING 9534
SWIDTH 990 0
DWIDTH 22 0
BBX 21 21 0 -4
BITMAP
002000
002000
002000
002000
002000
002000
002000
002000
002000
003FF8
FFFFF8
002000
002000
002000
002000
002000
002000
002000
002000
002000
002000
ENDCHAR
STARTCHAR 253F
ENCODING 9535
SWIDTH 990 0
DWIDTH 22 0
BBX 22 21 0 -4
BITMAP
002000
002000
002000
002000
002000
002000
002000
002000
002000
FFFFFC
FFFFFC
002000
002000
002000
002000
002000
002000
002000
002000
002000
002000
ENDCHAR
STARTCHAR 2540
ENCODING 9536
SWIDTH 990 0
DWIDTH 22 0
BBX 22 21 0 -3
BITMAP
003000
003000
003000
003000
003000
003000
003000
003000
003000
003000
FFFFFC
002000
002000
002000
002000
002000
002000
002000
002000
002000
002000
ENDCHAR
STARTCHAR 2541
ENCODING 9537
SWIDTH 990 0
DWIDTH 22 0
BBX 22 21 0 -4
BITMAP
002000
002000
002000
002000
002000
002000
002000
002000
002000
002000
FFFFFC
003000
003000
003000
003000
003000
003000
003000
003000
003000
003000
ENDCHAR
STARTCHAR 2542
ENCODING 9538
SWIDTH 990 0
DWIDTH 22 0
BBX 22 21 0 -4
BITMAP
003000
003000
003000
003000
003000
003000
003000
003000
003000
003000
FFFFFC
003000
003000
003000
003000
003000
003000
003000
003000
003000
003000
ENDCHAR
STARTCHAR 2543
ENCODING 9539
SWIDTH 990 0
DWIDTH 22 0
BBX 22 22 0 -4
BITMAP
003000
003000
003000
003000
003000
003000
003000
003000
003000
003000
FFF000
FFFFFC
002000
002000
002000
002000
002000
002000
002000
002000
002000
002000
ENDCHAR
STARTCHAR 2544
ENCODING 9540
SWIDTH 990 0
DWIDTH 22 0
BBX 22 22 0 -4
BITMAP
003000
003000
003000
003000
003000
003000
003000
003000
003000
003000
003FFC
FFFFFC
002000
002000
002000
002000
002000
002000
002000
002000
002000
002000
ENDCHAR
STARTCHAR 2545
ENCODING 9541
SWIDTH 990 0
DWIDTH 22 0
BBX 22 21 0 -4
BITMAP
002000
002000
002000
002000
002000
002000
002000
002000
002000
FFF000
FFFFFC
003000
003000
003000
003000
003000
003000
003000
003000
003000
003000
ENDCHAR
STARTCHAR 2546
ENCODING 9542
SWIDTH 990 0
DWIDTH 22 0
BBX 22 22 0 -4
BITMAP
002000
002000
002000
002000
002000
002000
002000
002000
002000
002000
003FFC
FFFFFC
003000
003000
003000
003000
003000
003000
003000
003000
003000
003000
ENDCHAR
STARTCHAR 2547
ENCODING 9543
SWIDTH 990 0
DWIDTH 22 0
BBX 22 22 0 -4
BITMAP
003000
003000
003000
003000
003000
003000
003000
003000
003000
003000
FFFFFC
FFFFFC
002000
002000
002000
002000
002000
002000
002000
002000
002000
002000
ENDCHAR
STARTCHAR 2548
ENCODING 9544
SWIDTH 990 0
DWIDTH 22 0
BBX 22 21 0 -4
BITMAP
002000
002000
002000
002000
002000
002000
002000
002000
002000
FFFFFC
FFFFFC
003000
003000
003000
003000
003000
003000
003000
003000
003000
003000
ENDCHAR
STARTCHAR 2549
ENCODING 9545
SWIDTH 990 0
DWIDTH 22 0
BBX 22 21 0 -4
BITMAP
003000
003000
003000
003000
003000
003000
003000
003000
003000
FFF000
FFFFFC
003000
003000
003000
003000
003000
003000
003000
003000
003000
003000
ENDCHAR
STARTCHAR 254A
ENCODING 9546
SWIDTH 990 0
DWIDTH 22 0
BBX 22 21 0 -4
BITMAP
003000
003000
003000
003000
003000
003000
003000
003000
003000
003FFC
FFFFFC
003000
003000
003000
003000
003000
003000
003000
003000
003000
003000
ENDCHAR
STARTCHAR 254B
ENCODING 9547
SWIDTH 990 0
DWIDTH 22 0
BBX 22 21 0 -4
BITMAP
003000
003000
003000
003000
003000
003000
003000
003000
003000
FFFFFC
FFFFFC
003000
003000
003000
003000
003000
003000
003000
003000
003000
003000
ENDCHAR
STARTCHAR 2592
ENCODING 9618
SWIDTH 990 0
DWIDTH 22 0
BBX 19 18 0 -3
BITMAP
DB7B60
000000
000000
DB7B60
000000
000000
DB7B60
112000
000000
DB7B60
000000
100000
DB7B60
000000
100000
DB7B60
000000
DB7B60
ENDCHAR
STARTCHAR 25A0
ENCODING 9632
SWIDTH 990 0
DWIDTH 22 0
BBX 13 13 4 1
BITMAP
FFF8
FFF8
FFF8
FFF8
FFF8
FFF8
FFF8
FFF8
FFF8
FFF8
FFF8
FFF8
FFF8
ENDCHAR
STARTCHAR 25A1
ENCODING 9633
SWIDTH 990 0
DWIDTH 22 0
BBX 13 13 4 1
BITMAP
FFF8
8008
8008
8008
8008
8008
8008
8008
8008
8008
8008
8008
FFF8
ENDCHAR
STARTCHAR 25A3
ENCODING 9635
SWIDTH 990 0
DWIDTH 22 0
BBX 17 17 2 -2
BITMAP
FFFF80
800080
800080
800080
8FF880
8FF880
8FF880
8FF880
8FF880
8FF880
8FF880
8FF880
8FF880
800080
800080
800080
FFFF80
ENDCHAR
STARTCHAR 25A4
ENCODING 9636
SWIDTH 990 0
DWIDTH 22 0
BBX 17 17 2 -2
BITMAP
FFFF80
800080
800080
800080
FFFF80
800080
800080
800080
FFFF80
800080
800080
800080
FFFF80
800080
800080
800080
FFFF80
ENDCHAR
STARTCHAR 25A5
ENCODING 9637
SWIDTH 990 0
DWIDTH 22 0
BBX 17 17 2 -2
BITMAP
FFFF80
888880
888880
888880
888880
888880
888880
888880
888880
888880
888880
888880
888880
888880
888880
888880
FFFF80
ENDCHAR
STARTCHAR 25A6
ENCODING 9638
SWIDTH 990 0
DWIDTH 22 0
BBX 17 17 2 -2
BITMAP
FFFF80
888880
888880
888880
FFFF80
888880
888880
888880
FFFF80
888880
888880
888880
FFFF80
888880
888880
888880
FFFF80
ENDCHAR
STARTCHAR 25A7
ENCODING 9639
SWIDTH 990 0
DWIDTH 22 0
BBX 17 17 2 -2
BITMAP
FFFF80
C0C080
A06080
903080
881880
840C80
820680
810380
C08180
E04080
A02080
901080
880880
840480
820280
810180
FFFF80
ENDCHAR
STARTCHAR 25A8
ENCODING 9640
SWIDTH 990 0
DWIDTH 22 0
BBX 17 17 2 -2
BITMAP
FFFF80
810180
820280
840480
880880
901080
A02080
C04080
808180
810380
820680
840C80
881880
903080
A06080
C0C080
FFFF80
ENDCHAR
STARTCHAR 25A9
ENCODING 9641
SWIDTH 990 0
DWIDTH 22 0
BBX 17 17 2 -2
BITMAP
FFFF80
C1C180
A26280
943480
881880
9C1C80
B22680
E14380
C08180
C14380
A22680
941C80
881880
943480
A26280
C1C180
FFFF80
ENDCHAR
STARTCHAR 25B2
ENCODING 9650
SWIDTH 990 0
DWIDTH 22 0
BBX 14 13 3 1
BITMAP
0100
0300
0780
0780
0FC0
0FC0
1FE0
1FE0
3FF0
3FF8
7FF8
FFFC
FFFC
ENDCHAR
STARTCHAR 25B3
ENCODING 9651
SWIDTH 990 0
DWIDTH 22 0
BBX 17 13 2 1
BITMAP
00C000
00C000
012000
033000
021000
040800
0C0C00
080400
100200
300300
200100
400080
FFFF80
ENDCHAR
STARTCHAR 25B6
ENCODING 9654
SWIDTH 990 0
DWIDTH 22 0
BBX 14 17 4 -2
BITMAP
8000
E000
F000
FC00
FE00
FF80
FFC0
FFF0
FFFC
FFF0
FFE0
FF80
FF00
FC00
F000
E000
8000
ENDCHAR
STARTCHAR 25B7
ENCODING 9655
SWIDTH 990 0
DWIDTH 22 0
BBX 14 17 4 -2
BITMAP
8000
E000
B000
8C00
8200
8180
8040
8030
800C
8030
8060
8180
8300
8C00
9000
E000
8000
ENDCHAR
STARTCHAR 25BC
ENCODING 9660
SWIDTH 990 0
DWIDTH 22 0
BBX 14 13 4 -1
BITMAP
FFFC
FFF8
7FF8
7FF0
3FF0
1FE0
1FC0
0FC0
0F80
0780
0700
0300
0200
ENDCHAR
STARTCHAR 25BD
ENCODING 9661
SWIDTH 990 0
DWIDTH 22 0
BBX 17 13 2 -1
BITMAP
FFFF80
400080
200100
300200
100200
080400
0C0C00
040800
021000
023000
012000
00C000
00C000
ENDCHAR
STARTCHAR 25C0
ENCODING 9664
SWIDTH 990 0
DWIDTH 22 0
BBX 14 17 4 -2
BITMAP
0004
001C
003C
00FC
01FC
07FC
1FFC
3FFC
FFFC
3FFC
1FFC
07FC
01FC
00FC
003C
001C
0004
ENDCHAR
STARTCHAR 25C1
ENCODING 9665
SWIDTH 990 0
DWIDTH 22 0
BBX 14 17 4 -2
BITMAP
0004
001C
0024
00C4
0304
0604
1804
3004
C004
2004
1804
0604
0104
00C4
0024
001C
0004
ENDCHAR
STARTCHAR 25C6
ENCODING 9670
SWIDTH 990 0
DWIDTH 22 0
BBX 20 19 1 -3
BITMAP
006000
00F000
01F800
03FC00
07FE00
0FFF00
1FFF80
3FFFC0
7FFFE0
FFFFF0
7FFFE0
3FFFC0
1FFF80
0FFF00
07FE00
03FC00
01F800
00F000
006000
ENDCHAR
STARTCHAR 25C7
ENCODING 9671
SWIDTH 990 0
DWIDTH 22 0
BBX 20 19 1 -3
BITMAP
006000
00B000
011800
020C00
040600
080300
100180
2000C0
400060
800030
400020
200040
100080
080300
040600
020C00
011800
00B000
006000
ENDCHAR
STARTCHAR 25C8
ENCODING 9672
SWIDTH 990 0
DWIDTH 22 0
BBX 20 19 1 -3
BITMAP
006000
00D000
018800
036400
06F200
0DF900
1BFC80
37FE40
6FFF20
9FFF90
4FFF20
27FE40
13FC80
09F900
04F200
026400
010800
009000
006000
ENDCHAR
STARTCHAR 25CA
ENCODING 9674
SWIDTH 990 0
DWIDTH 22 0
BBX 11 22 1 -4
BITMAP
0400
0400
0A00
0A00
1100
1100
3080
2080
6040
4040
C060
4060
4040
20C0
2080
3180
1100
1B00
0A00
0E00
0400
0400
ENDCHAR
STARTCHAR 25CB
ENCODING 9675
SWIDTH 990 0
DWIDTH 22 0
BBX 12 13 3 3
BITMAP
0F00
30C0
6060
4020
8010
8010
8010
8010
8010
4020
6060
30C0
0F00
ENDCHAR
STARTCHAR 25CE
ENCODING 9678
SWIDTH 990 0
DWIDTH 22 0
BBX 19 19 1 -3
BITMAP
03F800
0E0E00
180300
200180
61F0C0
460C40
CC0660
880220
900120
900120
900120
900120
C80260
4C0640
660CC0
21F180
180300
0E0E00
03F800
ENDCHAR
STARTCHAR 25CF
ENCODING 9679
SWIDTH 990 0
DWIDTH 22 0
BBX 10 10 5 3
BITMAP
1E00
7F80
7F80
FFC0
FFC0
FFC0
FFC0
7F80
7F80
1E00
ENDCHAR
STARTCHAR 25D0
ENCODING 9680
SWIDTH 990 0
DWIDTH 22 0
BBX 18 17 2 -1
BITMAP
03F000
0F8C00
1F8200
3F8100
7F8080
7F8080
FF8040
FF8040
FF8040
FF8040
FF8040
7F8080
7F8080
3F8100
1F8200
0F8C00
03F000
ENDCHAR
STARTCHAR 25D1
ENCODING 9681
SWIDTH 990 0
DWIDTH 22 0
BBX 18 17 2 -1
BITMAP
03F000
0C7C00
107E00
207F00
407F80
407F80
807FC0
807FC0
807FC0
807FC0
807FC0
407F80
407F80
207F00
107E00
0C7C00
03F000
ENDCHAR
STARTCHAR 2605
ENCODING 9733
SWIDTH 990 0
DWIDTH 22 0
BBX 17 16 2 0
BITMAP
008000
00C000
01C000
01E000
01E000
FFFF80
3FFF00
1FFE00
0FF800
07F800
07F800
0FF800
0F3C00
0C1C00
180400
000200
ENDCHAR
STARTCHAR 2606
ENCODING 9734
SWIDTH 990 0
DWIDTH 22 0
BBX 17 16 2 -1
BITMAP
008000
00C000
00C000
014000
012000
FF3F80
200100
100600
0C0C00
041000
040800
08C800
0B2800
0C1C00
180400
100200
ENDCHAR
STARTCHAR 260E
ENCODING 9742
SWIDTH 990 0
DWIDTH 22 0
BBX 20 14 1 0
BITMAP
00F000
1FFF80
7A05E0
FA05F0
FBFDF0
F30CF0
060600
0C0300
1C0300
3C0380
3C0380
3E07C0
7F0FC0
7FFFC0
ENDCHAR
STARTCHAR 260F
ENCODING 9743
SWIDTH 990 0
DWIDTH 22 0
BBX 20 14 1 0
BITMAP
07FE00
180180
67FE60
CB0D30
87FE10
8EFE10
F30FF0
060600
0C0300
140280
240280
220680
410C40
7FFFC0
ENDCHAR
STARTCHAR 261C
ENCODING 9756
SWIDTH 990 0
DWIDTH 22 0
BBX 20 9 1 2
BITMAP
1FFC00
E01F30
7FE0F0
063C30
06D430
05EE30
023430
01D8F0
00FF00
ENDCHAR
STARTCHAR 261E
ENCODING 9758
SWIDTH 990 0
DWIDTH 22 0
BBX 21 9 1 2
BITMAP
03FFC0
CC4078
F07EF0
C1A500
C2D700
C0BA00
C54600
F0B800
0EF000
ENDCHAR
STARTCHAR 2661
ENCODING 9825
SWIDTH 990 0
DWIDTH 22 0
BBX 17 18 2 -3
BITMAP
1E3E00
3F7F00
616380
C1C180
C1C180
C08180
C00180
E00380
600300
600700
300600
380C00
180C00
0C1800
063000
036000
03C000
018000
ENDCHAR
STARTCHAR 2664
ENCODING 9828
SWIDTH 990 0
DWIDTH 22 0
BBX 14 18 4 -3
BITMAP
0300
0380
0680
0C40
1860
1020
2010
6010
4008
C008
8004
8004
8004
8ECC
7AF8
0680
0440
0FC0
ENDCHAR
STARTCHAR 2667
ENCODING 9831
SWIDTH 990 0
DWIDTH 22 0
BBX 18 19 2 -4
BITMAP
01E000
03F000
071800
060800
060800
060800
020800
021000
3D3F00
433080
800040
800040
800040
C130C0
7F3F80
3D2F00
012000
013000
01F000
ENDCHAR
STARTCHAR 2668
ENCODING 9832
SWIDTH 990 0
DWIDTH 22 0
BBX 18 19 2 -3
BITMAP
004000
004000
004000
02C800
069800
069800
069800
069800
06D800
067800
067800
0E7A00
765980
C6D840
C49040
E080C0
780780
3FFF00
0FF800
ENDCHAR
STARTCHAR 2669
ENCODING 9833
SWIDTH 990 0
DWIDTH 22 0
BBX 5 18 2 -2
BITMAP
08
08
08
08
08
08
08
08
08
08
08
08
08
08
78
F8
F0
E0
ENDCHAR
STARTCHAR 266A
ENCODING 9834
SWIDTH 990 0
DWIDTH 22 0
BBX 10 15 0 1
BITMAP
0800
0C00
0E00
0F00
0B80
08C0
0840
0840
0840
0880
0880
0900
7800
F000
E000
ENDCHAR
STARTCHAR 266C
ENCODING 9836
SWIDTH 990 0
DWIDTH 22 0
BBX 15 17 2 -1
BITMAP
003E
07FE
0FE2
0E0E
08FE
0FFA
0F82
0802
0802
0802
0802
081E
083E
183C
7838
F000
E000
ENDCHAR
STARTCHAR 266D
ENCODING 9837
SWIDTH 990 0
DWIDTH 22 0
BBX 7 14 3 -1
BITMAP
80
80
80
80
BC
CE
86
86
86
84
8C
98
B0
C0
ENDCHAR
STARTCHAR 3000
ENCODING 12288
SWIDTH 990 0
DWIDTH 22 0
BBX 0 0 0 0
BITMAP
ENDCHAR
STARTCHAR 3001
ENCODING 12289
SWIDTH 990 0
DWIDTH 22 0
BBX 4 4 2 -1
BITMAP
80
60
30
30
ENDCHAR
STARTCHAR 3002
ENCODING 12290
SWIDTH 990 0
DWIDTH 22 0
BBX 5 5 2 -3
BITMAP
70
88
88
88
70
ENDCHAR
STARTCHAR 3003
ENCODING 12291
SWIDTH 990 0
DWIDTH 22 0
BBX 7 8 7 3
BITMAP
36
36
26
24
64
48
48
80
ENDCHAR
STARTCHAR 3008
ENCODING 12296
SWIDTH 990 0
DWIDTH 22 0
BBX 9 18 2 -2
BITMAP
0100
0200
0600
0C00
0800
1000
2000
4000
8000
4000
2000
3000
1800
0800
0400
0200
0100
0180
ENDCHAR
STARTCHAR 3009
ENCODING 12297
SWIDTH 990 0
DWIDTH 22 0
BBX 9 18 1 -2
BITMAP
4000
6000
3000
1000
0800
0400
0200
0100
0180
0100
0200
0400
0800
1800
3000
2000
4000
8000
ENDCHAR
STARTCHAR 300A
ENCODING 12298
SWIDTH 990 0
DWIDTH 22 0
BBX 8 18 3 -2
BITMAP
05
09
0A
14
24
28
58
90
A0
90
50
28
24
14
1A
09
05
04
ENDCHAR
STARTCHAR 300B
ENCODING 12299
SWIDTH 990 0
DWIDTH 22 0
BBX 8 18 2 -2
BITMAP
A0
90
50
48
24
14
12
09
05
09
1A
14
24
28
50
90
A0
20
ENDCHAR
STARTCHAR 300C
ENCODING 12300
SWIDTH 990 0
DWIDTH 22 0
BBX 7 11 5 5
BITMAP
FE
80
80
80
80
80
80
80
80
80
80
ENDCHAR
STARTCHAR 300D
ENCODING 12301
SWIDTH 990 0
DWIDTH 22 0
BBX 7 11 1 -4
BITMAP
02
02
02
02
02
02
02
02
02
02
FE
ENDCHAR
STARTCHAR 300E
ENCODING 12302
SWIDTH 990 0
DWIDTH 22 0
BBX 7 9 3 7
BITMAP
FE
A0
A0
A0
A0
A0
A0
A0
E0
ENDCHAR
STARTCHAR 300F
ENCODING 12303
SWIDTH 990 0
DWIDTH 22 0
BBX 7 11 1 -4
BITMAP
0E
0A
0A
0A
0A
0A
0A
0A
0A
FA
FE
ENDCHAR
STARTCHAR 3010
ENCODING 12304
SWIDTH 990 0
DWIDTH 22 0
BBX 6 19 4 -3
BITMAP
FC
F8
F0
F0
F0
E0
E0
E0
E0
E0
E0
E0
E0
E0
F0
F0
F0
F8
FC
ENDCHAR
STARTCHAR 3011
ENCODING 12305
SWIDTH 990 0
DWIDTH 22 0
BBX 6 19 1 -3
BITMAP
FC
7C
3C
3C
3C
3C
1C
1C
1C
1C
1C
1C
1C
3C
3C
3C
3C
7C
FC
ENDCHAR
STARTCHAR 3013
ENCODING 12307
SWIDTH 990 0
DWIDTH 22 0
BBX 21 7 1 3
BITMAP
FFFFF8
000000
000000
000000
000000
000000
FFFFF8
ENDCHAR
STARTCHAR 3014
ENCODING 12308
SWIDTH 990 0
DWIDTH 22 0
BBX 5 20 4 -3
BITMAP
F0
80
80
80
80
80
80
80
80
80
80
80
80
80
80
80
80
80
70
08
ENDCHAR
STARTCHAR 3015
ENCODING 12309
SWIDTH 990 0
DWIDTH 22 0
BBX 6 21 1 -4
BITMAP
80
7C
04
04
04
04
04
04
04
04
04
04
04
04
04
04
04
04
04
38
C0
ENDCHAR
STARTCHAR 3041
ENCODING 12353
SWIDTH 990 0
DWIDTH 22 0
BBX 11 14 5 -3
BITMAP
0C00
0C00
0B80
FC00
0800
0900
0FC0
3B40
6A20
CC20
8C20
F460
E0C0
0180
ENDCHAR
STARTCHAR 3042
ENCODING 12354
SWIDTH 990 0
DWIDTH 22 0
BBX 14 18 4 -3
BITMAP
0400
0600
0600
0660
7FC0
7C00
0400
04C0
04C0
07F0
1C88
358C
6704
C604
CE0C
FA08
F038
00E0
ENDCHAR
STARTCHAR 3043
ENCODING 12355
SWIDTH 990 0
DWIDTH 22 0
BBX 13 12 5 -2
BITMAP
8000
8040
8060
8020
8030
8010
8018
C818
5800
5000
3000
2000
ENDCHAR
STARTCHAR 3044
ENCODING 12356
SWIDTH 990 0
DWIDTH 22 0
BBX 14 14 5 -1
BITMAP
8000
8020
8020
8010
8010
8018
8008
8008
800C
C80C
5000
5000
7000
3000
ENDCHAR
STARTCHAR 3045
ENCODING 12357
SWIDTH 990 0
DWIDTH 22 0
BBX 8 13 7 -1
BITMAP
3C
0C
00
00
0C
FF
81
01
01
03
02
0C
38
ENDCHAR
STARTCHAR 3046
ENCODING 12358
SWIDTH 990 0
DWIDTH 22 0
BBX 12 17 5 -1
BITMAP
3C00
07C0
0000
0000
0000
FFE0
F870
0030
0030
0030
0030
0060
0060
00C0
0380
0F00
0400
ENDCHAR
STARTCHAR 3047
ENCODING 12359
SWIDTH 990 0
DWIDTH 22 0
BBX 12 14 6 -3
BITMAP
1800
0F00
0000
0100
7F00
0600
0400
0C00
1800
1E00
3F00
6300
6300
C3F0
ENDCHAR
STARTCHAR 3048
ENCODING 12360
SWIDTH 990 0
DWIDTH 22 0
BBX 13 18 4 -2
BITMAP
1E00
0780
0000
0000
0180
7F80
7D80
0300
0200
0400
0C00
1E00
1F00
3100
2100
6100
C1F8
C1F8
ENDCHAR
STARTCHAR 3049
ENCODING 12361
SWIDTH 990 0
DWIDTH 22 0
BBX 12 13 5 -2
BITMAP
1000
1000
1040
FE60
3810
1000
1180
1FC0
3860
D020
9060
B3C0
6300
ENDCHAR
STARTCHAR 304A
ENCODING 12362
SWIDTH 990 0
DWIDTH 22 0
BBX 14 16 4 -1
BITMAP
0800
0800
0800
0898
FF8C
3E04
0800
0800
0BE0
1E10
3808
6808
C808
C818
D810
71E0
ENDCHAR
STARTCHAR 304B
ENCODING 12363
SWIDTH 990 0
DWIDTH 22 0
BBX 15 18 4 -2
BITMAP
0800
0800
0800
0800
1F80
7FC8
F8CC
1044
1044
1046
3042
2042
2042
6040
60C0
4780
C780
8000
ENDCHAR
STARTCHAR 304C
ENCODING 12364
SWIDTH 990 0
DWIDTH 22 0
BBX 16 18 4 -1
BITMAP
0802
080D
0805
0802
1F80
7FC8
F8CC
1044
1044
1046
3042
2042
2042
6040
60C0
4780
C780
8000
ENDCHAR
STARTCHAR 304D
ENCODING 12365
SWIDTH 990 0
DWIDTH 22 0
BBX 13 20 5 -4
BITMAP
0800
0C00
0C40
05C0
FF80
3E08
0318
0170
7FC0
7FC0
00C0
0060
0620
3FF0
7070
6000
6000
7020
3FE0
0700
ENDCHAR
STARTCHAR 304E
ENCODING 12366
SWIDTH 990 0
DWIDTH 22 0
BBX 15 21 5 -3
BITMAP
000C
0816
0C0A
0C4C
05C0
FF80
3E08
0318
0170
7FC0
7FC0
00C0
0060
0620
3FF0
7070
6000
6000
7020
3FE0
0700
ENDCHAR
STARTCHAR 304F
ENCODING 12367
SWIDTH 990 0
DWIDTH 22 0
BBX 9 17 5 -2
BITMAP
0300
0600
0400
0C00
3800
6000
C000
8000
8000
8000
4000
6000
3800
0C00
0600
0300
0180
ENDCHAR
STARTCHAR 3050
ENCODING 12368
SWIDTH 990 0
DWIDTH 22 0
BBX 13 17 5 -2
BITMAP
0310
0618
0428
0C10
3810
6000
C000
8000
8000
8000
4000
6000
3800
0C00
0600
0300
0180
ENDCHAR
STARTCHAR 3051
ENCODING 12369
SWIDTH 990 0
DWIDTH 22 0
BBX 14 18 4 -2
BITMAP
C020
8020
8020
8020
803C
8FF0
8F20
8020
8020
8020
8020
8020
8020
8020
C060
40C0
43C0
0200
ENDCHAR
STARTCHAR 3052
ENCODING 12370
SWIDTH 990 0
DWIDTH 22 0
BBX 16 19 4 -3
BITMAP
0002
C02A
8027
8024
8020
803C
8FF0
8F20
8020
8020
8020
8020
8020
8020
8020
C060
40C0
43C0
0200
ENDCHAR
STARTCHAR 3053
ENCODING 12371
SWIDTH 990 0
DWIDTH 22 0
BBX 12 15 6 0
BITMAP
07C0
7FC0
0000
0000
0000
0000
0000
0000
0000
C000
8000
8000
8000
C030
3FC0
ENDCHAR
STARTCHAR 3054
ENCODING 12372
SWIDTH 990 0
DWIDTH 22 0
BBX 15 16 5 1
BITMAP
0004
000A
01EE
3FE4
2004
0000
0000
0000
0000
0000
C000
C000
8000
8000
C030
3FE0
ENDCHAR
STARTCHAR 3055
ENCODING 12373
SWIDTH 990 0
DWIDTH 22 0
BBX 10 17 5 -2
BITMAP
0800
0800
0C40
05C0
7F00
0200
0300
0100
0980
7F80
E1C0
8040
8000
8000
C000
7FC0
1F80
ENDCHAR
STARTCHAR 3056
ENCODING 12374
SWIDTH 990 0
DWIDTH 22 0
BBX 14 18 5 -2
BITMAP
0018
083C
0814
0C48
05C0
7F00
0200
0300
0100
0980
7F80
E1C0
8040
8000
8000
C000
7FC0
1F80
ENDCHAR
STARTCHAR 3057
ENCODING 12375
SWIDTH 990 0
DWIDTH 22 0
BBX 12 17 5 -2
BITMAP
C000
4000
4000
4000
4000
4000
4000
4000
4000
4000
4030
4020
4060
4060
60C0
3F80
1F00
ENDCHAR
STARTCHAR 3058
ENCODING 12376
SWIDTH 990 0
DWIDTH 22 0
BBX 12 17 5 -2
BITMAP
C000
4080
40C0
4340
4180
4080
4000
4000
4000
4000
4030
4020
4060
4060
60C0
3F80
1F00
ENDCHAR
STARTCHAR 3059
ENCODING 12377
SWIDTH 990 0
DWIDTH 22 0
BBX 15 18 3 -2
BITMAP
0180
0080
0080
FFFE
FFFE
0080
0080
0F80
1180
10C0
11C0
0FC0
06C0
00C0
0180
0380
0F00
0C00
ENDCHAR
STARTCHAR 305A
ENCODING 12378
SWIDTH 990 0
DWIDTH 22 0
BBX 15 19 3 -2
BITMAP
0004
0194
008C
0080
FFFE
FFFE
0080
0080
0F80
1180
10C0
11C0
0FC0
06C0
00C0
0180
0380
0F00
0800
ENDCHAR
STARTCHAR 305B
ENCODING 12379
SWIDTH 990 0
DWIDTH 22 0
BBX 15 16 4 -1
BITMAP
0020
1020
1020
1020
10FE
1FFE
F820
9020
1020
1020
11E0
11E0
1000
1000
1008
1FF8
ENDCHAR
STARTCHAR 305C
ENCODING 12380
SWIDTH 990 0
DWIDTH 22 0
BBX 17 16 4 -1
BITMAP
002300
102780
102200
102200
10FE00
1FFE00
F82000
902000
102000
102000
11E000
11E000
100000
100000
100800
1FF800
ENDCHAR
STARTCHAR 305D
ENCODING 12381
SWIDTH 990 0
DWIDTH 22 0
BBX 13 18 5 -3
BITMAP
7F80
7FC0
0180
0300
0E00
1800
3000
63F8
FFF0
F380
8600
0C00
0800
0800
0800
0C00
0600
01E0
ENDCHAR
STARTCHAR 305E
ENCODING 12382
SWIDTH 990 0
DWIDTH 22 0
BBX 15 18 5 -3
BITMAP
7F84
7FC4
019A
030A
0E0C
1800
3000
63F8
FFF0
F380
8600
0C00
0800
0800
0800
0C00
0600
01E0
ENDCHAR
STARTCHAR 305F
ENCODING 12383
SWIDTH 990 0
DWIDTH 22 0
BBX 15 18 3 -2
BITMAP
0800
0800
0800
0800
1F00
FE00
90FC
10C0
1000
1000
1000
1000
3000
3000
2100
2182
20FE
6000
ENDCHAR
STARTCHAR 3060
ENCODING 12384
SWIDTH 990 0
DWIDTH 22 0
BBX 16 18 3 -2
BITMAP
0804
081A
080D
0804
1F00
FE00
90FC
10C0
1000
1000
1000
1000
3000
3000
2100
2182
20FE
6000
ENDCHAR
STARTCHAR 3061
ENCODING 12385
SWIDTH 990 0
DWIDTH 22 0
BBX 11 17 6 -1
BITMAP
1000
1000
1000
1000
1180
FF80
3000
2000
2000
2780
7FC0
7060
6020
0020
0060
01C0
0F00
ENDCHAR
STARTCHAR 3062
ENCODING 12386
SWIDTH 990 0
DWIDTH 22 0
BBX 14 17 6 0
BITMAP
1018
106C
1034
1010
1180
FF80
3000
2000
2000
2780
7FC0
7060
6020
0020
0060
01C0
0F00
ENDCHAR
STARTCHAR 3063
ENCODING 12387
SWIDTH 990 0
DWIDTH 22 0
BBX 13 10 5 -2
BITMAP
0180
1FF0
F038
0018
0018
0018
0018
0030
00E0
07C0
ENDCHAR
STARTCHAR 3064
ENCODING 12388
SWIDTH 990 0
DWIDTH 22 0
BBX 15 12 4 -1
BITMAP
03F0
1FFC
F80C
C006
0006
0006
0006
0006
000C
0018
03F0
07C0
ENDCHAR
STARTCHAR 3065
ENCODING 12389
SWIDTH 990 0
DWIDTH 22 0
BBX 17 17 4 -1
BITMAP
000600
000300
001D80
000600
000200
03F000
1FFC00
F80C00
C00600
000600
000600
000600
000600
000C00
001800
03F000
07C000
ENDCHAR
STARTCHAR 3066
ENCODING 12390
SWIDTH 990 0
DWIDTH 22 0
BBX 15 15 4 -1
BITMAP
03FE
FF70
40C0
0180
0300
0300
0600
0600
0600
0600
0600
0300
0380
00F8
0078
ENDCHAR
STARTCHAR 3067
ENCODING 12391
SWIDTH 990 0
DWIDTH 22 0
BBX 17 15 4 -1
BITMAP
03FE00
FF7000
40C300
018580
030680
030300
060000
060000
060000
060000
060000
030000
038000
00F800
007800
ENDCHAR
STARTCHAR 3068
ENCODING 12392
SWIDTH 990 0
DWIDTH 22 0
BBX 11 15 5 -1
BITMAP
0800
0800
0800
0800
0840
09E0
0F00
1800
7000
6000
C000
C000
C000
6000
3FE0
ENDCHAR
STARTCHAR 3069
ENCODING 12393
SWIDTH 990 0
DWIDTH 22 0
BBX 15 17 5 -1
BITMAP
0008
0004
0832
0808
0800
0800
0840
09E0
0F00
1800
7000
6000
C000
C000
C000
6000
3FE0
ENDCHAR
STARTCHAR 306A
ENCODING 12394
SWIDTH 990 0
DWIDTH 22 0
BBX 13 17 5 -2
BITMAP
0400
0C00
0F80
FC00
18F0
1018
3070
20C0
6080
C080
8080
0080
0FC0
1FE0
1050
1040
0FC0
ENDCHAR
STARTCHAR 306B
ENCODING 12395
SWIDTH 990 0
DWIDTH 22 0
BBX 13 14 5 1
BITMAP
C000
C000
C7F0
81F0
8000
8000
8000
8000
8000
9000
9800
8800
8FF8
C7F8
ENDCHAR
STARTCHAR 306C
ENCODING 12396
SWIDTH 990 0
DWIDTH 22 0
BBX 16 15 4 -1
BITMAP
0100
41E0
47F8
5E08
720C
6204
6204
E204
B404
9CFC
8D1C
9D1F
F113
01F1
0040
ENDCHAR
STARTCHAR 306D
ENCODING 12397
SWIDTH 990 0
DWIDTH 22 0
BBX 15 18 4 -3
BITMAP
0800
0800
0800
0800
0E78
3CF8
6F0C
0E04
1C04
1804
3804
6804
687C
C8F8
889E
08F2
0860
0800
ENDCHAR
STARTCHAR 306E
ENCODING 12398
SWIDTH 990 0
DWIDTH 22 0
BBX 15 14 4 -2
BITMAP
07E0
1830
208C
4184
C186
8102
8302
8202
8602
8C06
F804
700C
0038
00E0
ENDCHAR
STARTCHAR 306F
ENCODING 12399
SWIDTH 990 0
DWIDTH 22 0
BBX 14 15 5 -1
BITMAP
C020
C020
8020
8FFC
8FF8
8020
8020
8020
8020
8120
87E0
8C30
882C
8C64
C7C0
ENDCHAR
STARTCHAR 3070
ENCODING 12400
SWIDTH 990 0
DWIDTH 22 0
BBX 16 18 5 0
BITMAP
0006
000B
8025
C022
C020
8020
8FFC
8FF8
8020
8020
8020
8020
8120
87E0
8C38
882C
8C64
C7C0
ENDCHAR
STARTCHAR 3071
ENCODING 12401
SWIDTH 990 0
DWIDTH 22 0
BBX 16 19 5 -3
BITMAP
0006
0009
8029
C029
C026
8020
8FFC
8FF8
8020
8020
8020
8020
8120
87E0
8C38
882C
8C64
CFC0
0380
ENDCHAR
STARTCHAR 3072
ENCODING 12402
SWIDTH 990 0
DWIDTH 22 0
BBX 14 16 4 -1
BITMAP
0860
7C60
D830
3030
2038
202C
6024
4024
4020
4020
4020
4060
4040
60C0
3F80
1F00
ENDCHAR
STARTCHAR 3073
ENCODING 12403
SWIDTH 990 0
DWIDTH 22 0
BBX 16 18 4 -1
BITMAP
0006
000B
086D
7C62
D830
3030
2038
202C
6024
4024
4020
4020
4020
4060
4040
60C0
3F80
1F00
ENDCHAR
STARTCHAR 3074
ENCODING 12404
SWIDTH 990 0
DWIDTH 22 0
BBX 16 17 4 -2
BITMAP
0006
0869
F869
9036
3030
2038
202C
4026
4020
4020
4020
4020
4060
6040
30C0
3F80
0400
ENDCHAR
STARTCHAR 3075
ENCODING 12405
SWIDTH 990 0
DWIDTH 22 0
BBX 14 15 4 -1
BITMAP
0400
0700
01C0
0300
0000
0000
0E00
0330
0198
088C
1844
7040
C040
0FC0
0780
ENDCHAR
STARTCHAR 3076
ENCODING 12406
SWIDTH 990 0
DWIDTH 22 0
BBX 16 15 4 -1
BITMAP
0400
070C
01C2
031D
0006
0000
0E00
0330
0198
088C
1844
7040
C040
0FC0
0780
ENDCHAR
STARTCHAR 3077
ENCODING 12407
SWIDTH 990 0
DWIDTH 22 0
BBX 15 15 4 0
BITMAP
0700
03CC
01D2
0212
000C
0000
0E00
0318
0188
08C4
1844
7040
C040
0FC0
0780
ENDCHAR
STARTCHAR 3078
ENCODING 12408
SWIDTH 990 0
DWIDTH 22 0
BBX 16 11 3 1
BITMAP
0300
0780
0C80
18C0
7060
E030
0018
000C
0006
0003
0001
ENDCHAR
STARTCHAR 3079
ENCODING 12409
SWIDTH 990 0
DWIDTH 22 0
BBX 17 12 3 2
BITMAP
000300
030D80
078680
0C8300
18C000
306000
E03000
001800
000C00
000600
000300
000100
ENDCHAR
STARTCHAR 307A
ENCODING 12410
SWIDTH 990 0
DWIDTH 22 0
BBX 16 11 3 1
BITMAP
0006
0309
0789
0C86
18C0
7060
C030
0018
000C
0006
0003
ENDCHAR
STARTCHAR 307B
ENCODING 12411
SWIDTH 990 0
DWIDTH 22 0
BBX 13 16 5 0
BITMAP
87F0
C340
C040
8040
8040
8FF8
8040
8040
8040
8040
8340
8FC0
8870
8858
8FC0
C780
ENDCHAR
STARTCHAR 307C
ENCODING 12412
SWIDTH 990 0
DWIDTH 22 0
BBX 16 17 5 0
BITMAP
0006
87F3
C34D
C046
8042
8040
8FF8
8040
8040
8040
8040
8340
8FC0
8870
8858
8FC0
C780
ENDCHAR
STARTCHAR 307D
ENCODING 12413
SWIDTH 990 0
DWIDTH 22 0
BBX 17 16 5 0
BITMAP
87F700
C7C880
C04880
804700
804000
8FF800
804000
804000
804000
804000
834000
8FC000
887000
885800
8FC000
C78000
ENDCHAR
STARTCHAR 307E
ENCODING 12414
SWIDTH 990 0
DWIDTH 22 0
BBX 12 18 5 -2
BITMAP
0200
0200
0200
0220
FFE0
1E00
0200
0220
7FE0
3E00
0200
0200
0200
3E00
43C0
4270
4600
3C00
ENDCHAR
STARTCHAR 307F
ENCODING 12415
SWIDTH 990 0
DWIDTH 22 0
BBX 15 16 4 -1
BITMAP
0FC0
0F40
00C0
0080
0180
0100
0308
0E08
7FC8
E4F8
CC1C
9816
F010
6030
0060
03C0
ENDCHAR
STARTCHAR 3080
ENCODING 12416
SWIDTH 990 0
DWIDTH 22 0
BBX 13 17 5 -3
BITMAP
1800
1800
1E00
FC00
9800
1870
3838
F808
9800
9800
9800
F030
7030
2030
2030
2060
1FC0
ENDCHAR
STARTCHAR 3081
ENCODING 12417
SWIDTH 990 0
DWIDTH 22 0
BBX 14 16 4 -2
BITMAP
00C0
40C0
4080
63E0
2FB0
3988
310C
7304
CB04
8E04
8604
8E0C
9A18
F030
60E0
0080
ENDCHAR
STARTCHAR 3082
ENCODING 12418
SWIDTH 990 0
DWIDTH 22 0
BBX 13 18 5 -1
BITMAP
0400
0C00
0C00
0C00
7F00
0800
0800
1800
9000
FF10
7F18
1008
1008
1008
1008
1818
1FF0
07E0
ENDCHAR
STARTCHAR 3083
ENCODING 12419
SWIDTH 990 0
DWIDTH 22 0
BBX 13 14 5 -2
BITMAP
0200
0260
63F0
6798
3C88
3888
F810
98E0
0800
0C00
0400
0600
0600
0200
ENDCHAR
STARTCHAR 3084
ENCODING 12420
SWIDTH 990 0
DWIDTH 22 0
BBX 16 16 3 -3
BITMAP
0180
20FC
307E
11E3
1B21
0E21
3C03
E43E
0638
0200
0200
0300
0100
0180
0080
00C0
ENDCHAR
STARTCHAR 3085
ENCODING 12421
SWIDTH 990 0
DWIDTH 22 0
BBX 12 13 6 -3
BITMAP
0100
8100
87C0
8D60
9130
B110
A110
F910
C930
CFE0
C380
0300
0200
ENDCHAR
STARTCHAR 3086
ENCODING 12422
SWIDTH 990 0
DWIDTH 22 0
BBX 15 17 4 -3
BITMAP
0040
0040
8040
83F8
8E4C
8846
9842
B042
A042
A842
EC44
C64C
C3F8
C040
00C0
0080
0300
ENDCHAR
STARTCHAR 3087
ENCODING 12423
SWIDTH 990 0
DWIDTH 22 0
BBX 11 13 6 -2
BITMAP
0400
0400
0400
07C0
0700
0400
0400
0400
7E00
FF80
84E0
8C20
7800
ENDCHAR
STARTCHAR 3088
ENCODING 12424
SWIDTH 990 0
DWIDTH 22 0
BBX 14 16 5 -1
BITMAP
0600
0600
0600
0600
0610
07F0
0600
0600
0600
0600
0600
7F00
FFE0
8638
8E04
7C00
ENDCHAR
STARTCHAR 3089
ENCODING 12425
SWIDTH 990 0
DWIDTH 22 0
BBX 11 18 6 -2
BITMAP
0C00
0780
0000
0000
0000
6000
4000
4000
C200
DFC0
B0E0
E020
0020
0020
0040
00C0
0780
0C00
ENDCHAR
STARTCHAR 308A
ENCODING 12426
SWIDTH 990 0
DWIDTH 22 0
BBX 10 17 6 -2
BITMAP
8200
8F80
9880
90C0
B0C0
A040
E040
E040
C040
C040
C040
00C0
0080
0180
0300
0600
0C00
ENDCHAR
STARTCHAR 308B
ENCODING 12427
SWIDTH 990 0
DWIDTH 22 0
BBX 13 18 5 -2
BITMAP
3FC0
3E60
00C0
0180
0300
0400
0800
13C0
3FE0
7010
E018
8008
0008
0F08
1F98
10F0
1FE0
0F80
ENDCHAR
STARTCHAR 308C
ENCODING 12428
SWIDTH 990 0
DWIDTH 22 0
BBX 17 19 3 -3
BITMAP
080000
080000
080000
080000
1E7000
7DF800
0F0800
0E0800
0C0800
180800
180800
380800
280800
480980
C80900
080B00
080F00
080600
080000
ENDCHAR
STARTCHAR 308D
ENCODING 12429
SWIDTH 990 0
DWIDTH 22 0
BBX 13 20 4 -4
BITMAP
0040
3FE0
38C0
0080
0100
0300
0600
0C00
1800
1BE0
3FF0
7810
6018
C008
8008
0008
0010
0030
00E0
0380
ENDCHAR
STARTCHAR 308E
ENCODING 12430
SWIDTH 990 0
DWIDTH 22 0
BBX 12 15 5 -1
BITMAP
0800
0800
0C00
FC00
0C80
0FE0
1C20
1830
3810
2810
6810
C820
0860
08C0
0800
ENDCHAR
STARTCHAR 308F
ENCODING 12431
SWIDTH 990 0
DWIDTH 22 0
BBX 15 18 4 -2
BITMAP
0400
0400
0400
FF00
FE00
06F0
05FC
0704
0C06
0C02
1C02
3402
2406
6404
440C
0418
0430
0400
ENDCHAR
STARTCHAR 3090
ENCODING 12432
SWIDTH 990 0
DWIDTH 22 0
BBX 15 19 3 -2
BITMAP
1FC0
1CC0
00C0
0180
0180
0100
03F0
0FF8
1A0C
2606
6402
4C02
8802
8802
99C6
B234
E21C
E218
01E0
ENDCHAR
STARTCHAR 3091
ENCODING 12433
SWIDTH 990 0
DWIDTH 22 0
BBX 17 18 2 -2
BITMAP
0FE000
0FE000
018000
066000
0FF800
1E0800
380C00
638400
044400
044400
078800
03F000
060000
0E0600
1F1300
71B180
C0E080
004000
ENDCHAR
STARTCHAR 3092
ENCODING 12434
SWIDTH 990 0
DWIDTH 22 0
BBX 16 18 3 -2
BITMAP
0100
0300
0300
8208
FFF8
0600
0C00
1FC0
1C67
707C
61E0
0730
0E30
1C30
1800
1800
1FFF
07FC
ENDCHAR
STARTCHAR 3093
ENCODING 12435
SWIDTH 990 0
DWIDTH 22 0
BBX 15 18 4 -2
BITMAP
0200
0200
0600
0400
0C00
0C00
0800
1800
1900
1780
3C80
3080
3086
6084
408C
4088
C0F8
0070
ENDCHAR
STARTCHAR 30A1
ENCODING 12449
SWIDTH 990 0
DWIDTH 22 0
BBX 10 13 6 -2
BITMAP
FFC0
FFC0
0040
00C0
0B80
0E00
0800
1800
1000
1000
3000
6000
4000
ENDCHAR
STARTCHAR 30A2
ENCODING 12450
SWIDTH 990 0
DWIDTH 22 0
BBX 13 15 4 -2
BITMAP
FFF0
FFF0
0018
0030
0060
05C0
0700
0400
0400
0C00
0C00
0800
1800
1000
3000
ENDCHAR
STARTCHAR 30A3
ENCODING 12451
SWIDTH 990 0
DWIDTH 22 0
BBX 9 14 5 -2
BITMAP
0180
0300
0300
0600
0C00
1C00
3400
6400
C400
0400
0400
0400
0400
0400
ENDCHAR
STARTCHAR 30A4
ENCODING 12452
SWIDTH 990 0
DWIDTH 22 0
BBX 10 18 4 -3
BITMAP
0040
00C0
00C0
0180
0100
0300
0600
0E00
1A00
3200
6200
C200
0200
0200
0200
0200
0200
0200
ENDCHAR
STARTCHAR 30A5
ENCODING 12453
SWIDTH 990 0
DWIDTH 22 0
BBX 11 13 6 -3
BITMAP
0400
0400
0400
FFE0
8060
8060
8060
0040
00C0
00C0
0180
0700
0C00
ENDCHAR
STARTCHAR 30A6
ENCODING 12454
SWIDTH 990 0
DWIDTH 22 0
BBX 13 16 4 -2
BITMAP
0200
0200
0200
FFF8
FFF8
8018
8018
8018
8010
0030
0030
0060
0060
00C0
0380
0600
ENDCHAR
STARTCHAR 30A7
ENCODING 12455
SWIDTH 990 0
DWIDTH 22 0
BBX 12 9 5 0
BITMAP
7FE0
7FE0
0400
0400
0400
0400
0400
FFF0
FFF0
ENDCHAR
STARTCHAR 30A8
ENCODING 12456
SWIDTH 990 0
DWIDTH 22 0
BBX 15 11 3 1
BITMAP
3FFC
3FFC
0100
0100
0100
0100
0100
0100
0100
FFFE
FFFE
ENDCHAR
STARTCHAR 30A9
ENCODING 12457
SWIDTH 990 0
DWIDTH 22 0
BBX 12 13 4 -3
BITMAP
0100
0100
7FF0
7FF0
0100
0D00
0900
1900
3100
6100
C100
0700
0600
ENDCHAR
STARTCHAR 30AA
ENCODING 12458
SWIDTH 990 0
DWIDTH 22 0
BBX 14 16 3 -2
BITMAP
0040
0040
0040
7FFC
7FFC
0040
0340
0240
0640
0C40
1840
3040
E040
0040
0040
0180
ENDCHAR
STARTCHAR 30AB
ENCODING 12459
SWIDTH 990 0
DWIDTH 22 0
BBX 12 15 4 -1
BITMAP
0400
0400
0400
7FF0
7FF0
0410
0410
0410
0C10
0810
0810
1030
2020
C0E0
0180
ENDCHAR
STARTCHAR 30AC
ENCODING 12460
SWIDTH 990 0
DWIDTH 22 0
BBX 16 17 4 -1
BITMAP
0004
0006
041B
0405
0404
7FF0
7FF0
0410
0410
0410
0C10
0810
0810
1030
3020
C0E0
0180
ENDCHAR
STARTCHAR 30AD
ENCODING 12461
SWIDTH 990 0
DWIDTH 22 0
BBX 13 17 4 -1
BITMAP
0400
0400
0600
0620
03E0
7E00
6200
0300
0338
03E0
3F00
F100
0180
0180
0080
0080
0080
ENDCHAR
STARTCHAR 30AE
ENCODING 12462
SWIDTH 990 0
DWIDTH 22 0
BBX 16 18 4 -1
BITMAP
0006
041B
040D
0604
0620
03E0
7E00
6200
0300
0338
03E0
3F00
F100
0180
0180
0080
0080
0080
ENDCHAR
STARTCHAR 30AF
ENCODING 12463
SWIDTH 990 0
DWIDTH 22 0
BBX 11 15 5 -1
BITMAP
0C00
0C00
1FE0
1FE0
3020
6060
8040
0040
0080
0180
0300
0600
0C00
3000
E000
ENDCHAR
STARTCHAR 30B0
ENCODING 12464
SWIDTH 990 0
DWIDTH 22 0
BBX 15 17 5 -1
BITMAP
002C
0036
0C1A
0C08
1FE0
1FE0
3020
6060
8040
0040
0080
0180
0300
0600
0C00
3000
E000
ENDCHAR
STARTCHAR 30B1
ENCODING 12465
SWIDTH 990 0
DWIDTH 22 0
BBX 14 16 4 -1
BITMAP
0800
0800
1800
1FFC
3FFC
6080
4080
8080
0080
0180
0180
0100
0300
0200
0400
1800
ENDCHAR
STARTCHAR 30B2
ENCODING 12466
SWIDTH 990 0
DWIDTH 22 0
BBX 16 18 4 -1
BITMAP
0006
000B
0805
0802
1802
1FFC
3FFC
6080
4080
8080
0080
0180
0180
0100
0300
0200
0400
1800
ENDCHAR
STARTCHAR 30B3
ENCODING 12467
SWIDTH 990 0
DWIDTH 22 0
BBX 11 13 5 -2
BITMAP
FFE0
FFE0
0020
0020
0020
0020
0020
0020
0020
0020
FFE0
FFE0
0020
ENDCHAR
STARTCHAR 30B4
ENCODING 12468
SWIDTH 990 0
DWIDTH 22 0
BBX 15 18 5 -2
BITMAP
0008
000C
0016
001A
000C
FFE4
FFE0
0020
0020
0020
0020
0020
0020
0020
0020
FFE0
FFE0
0020
ENDCHAR
STARTCHAR 30B5
ENCODING 12469
SWIDTH 990 0
DWIDTH 22 0
BBX 15 16 4 -3
BITMAP
0820
0820
0820
FFFE
FFFE
0820
0820
0820
0820
0020
0060
0040
0040
0080
0180
0100
ENDCHAR
STARTCHAR 30B6
ENCODING 12470
SWIDTH 990 0
DWIDTH 22 0
BBX 17 19 4 -3
BITMAP
000200
000B00
000D80
082680
082200
082000
FFFE00
FFFE00
082000
082000
082000
082000
002000
006000
004000
004000
008000
018000
010000
ENDCHAR
STARTCHAR 30B7
ENCODING 12471
SWIDTH 990 0
DWIDTH 22 0
BBX 13 16 4 -1
BITMAP
1000
0800
0400
0200
0000
C000
6000
3008
1818
0010
0020
00C0
0180
0700
1E00
3800
ENDCHAR
STARTCHAR 30B8
ENCODING 12472
SWIDTH 990 0
DWIDTH 22 0
BBX 15 16 4 -1
BITMAP
100C
0816
041A
020C
0004
C000
6000
3008
1818
0010
0020
00C0
0180
0700
1E00
3800
ENDCHAR
STARTCHAR 30B9
ENCODING 12473
SWIDTH 990 0
DWIDTH 22 0
BBX 13 15 5 -1
BITMAP
7FC0
7FE0
0060
0060
0040
00C0
0080
0180
0300
07C0
0C60
1830
3018
C000
8000
ENDCHAR
STARTCHAR 30BA
ENCODING 12474
SWIDTH 990 0
DWIDTH 22 0
BBX 15 18 5 0
BITMAP
000C
0034
001A
7FC8
7FE0
0060
0060
0040
00C0
0080
0180
0300
07C0
0C60
1830
3018
C000
8000
ENDCHAR
STARTCHAR 30BB
ENCODING 12475
SWIDTH 990 0
DWIDTH 22 0
BBX 14 15 3 0
BITMAP
0400
0400
0400
0400
0418
05FC
0F08
FC08
8418
0410
0400
0400
0400
0600
03F8
ENDCHAR
STARTCHAR 30BC
ENCODING 12476
SWIDTH 990 0
DWIDTH 22 0
BBX 16 17 3 1
BITMAP
0004
0012
040B
0404
0404
0400
0418
05FC
0F08
FC08
8418
0410
0400
0400
0400
0600
03F8
ENDCHAR
STARTCHAR 30BD
ENCODING 12477
SWIDTH 990 0
DWIDTH 22 0
BBX 12 14 5 -2
BITMAP
8010
C010
6030
2030
0020
0060
0040
00C0
0180
0300
0600
0C00
3800
6000
ENDCHAR
STARTCHAR 30BE
ENCODING 12478
SWIDTH 990 0
DWIDTH 22 0
BBX 15 19 5 -2
BITMAP
0008
000C
001E
000A
0004
8010
C010
6030
2030
0020
0060
0060
00C0
0180
0300
0600
0C00
3800
6000
ENDCHAR
STARTCHAR 30BF
ENCODING 12479
SWIDTH 990 0
DWIDTH 22 0
BBX 11 16 5 -2
BITMAP
0400
0C00
0FE0
1FE0
1060
2060
6040
8EC0
0380
0180
03C0
0660
0C00
1800
7000
C000
ENDCHAR
STARTCHAR 30C0
ENCODING 12480
SWIDTH 990 0
DWIDTH 22 0
BBX 15 18 5 -2
BITMAP
0008
0034
041A
0C0A
0FE8
1FE0
1060
2060
6040
8EC0
0380
0180
03C0
0660
0C00
1800
7000
C000
ENDCHAR
STARTCHAR 30C1
ENCODING 12481
SWIDTH 990 0
DWIDTH 22 0
BBX 14 17 4 -1
BITMAP
0030
01E0
1F80
1080
0080
0080
FFFC
FFFC
0080
0080
0080
0180
0100
0300
0600
0C00
1800
ENDCHAR
STARTCHAR 30C2
ENCODING 12482
SWIDTH 990 0
DWIDTH 22 0
BBX 17 18 4 -2
BITMAP
000200
003300
01ED80
1F8680
108300
008000
008000
FFFC00
FFFC00
008000
008000
008000
018000
010000
030000
060000
0C0000
180000
ENDCHAR
STARTCHAR 30C3
ENCODING 12483
SWIDTH 990 0
DWIDTH 22 0
BBX 11 12 6 -2
BITMAP
1000
1840
8C60
4040
40C0
0080
0180
0300
0200
0C00
1800
3000
ENDCHAR
STARTCHAR 30C4
ENCODING 12484
SWIDTH 990 0
DWIDTH 22 0
BBX 14 14 4 -1
BITMAP
0600
0208
C10C
6018
2018
0010
0030
0060
0040
00C0
0180
0300
0C00
1800
ENDCHAR
STARTCHAR 30C5
ENCODING 12485
SWIDTH 990 0
DWIDTH 22 0
BBX 16 18 4 -2
BITMAP
0004
000A
000D
0004
0600
0208
C10C
6018
2018
0010
0030
0060
0040
00C0
0180
0300
0C00
1800
ENDCHAR
STARTCHAR 30C6
ENCODING 12486
SWIDTH 990 0
DWIDTH 22 0
BBX 13 15 4 -3
BITMAP
3FF0
3FF0
0000
FFF8
FFF8
0100
0100
0100
0100
0300
0200
0600
0400
0800
3000
ENDCHAR
STARTCHAR 30C7
ENCODING 12487
SWIDTH 990 0
DWIDTH 22 0
BBX 16 18 4 -2
BITMAP
0004
001A
000B
3FE4
3FE4
0000
FFF8
FFF8
0100
0100
0100
0100
0300
0200
0600
0C00
1800
3000
ENDCHAR
STARTCHAR 30C8
ENCODING 12488
SWIDTH 990 0
DWIDTH 22 0
BBX 7 17 9 -2
BITMAP
80
80
80
80
80
80
C0
F0
9C
86
80
80
80
80
80
80
80
ENDCHAR
STARTCHAR 30C9
ENCODING 12489
SWIDTH 990 0
DWIDTH 22 0
BBX 9 17 9 -1
BITMAP
8600
8300
8D80
8600
8200
8000
C000
F000
9C00
8600
8000
8000
8000
8000
8000
8000
8000
ENDCHAR
STARTCHAR 30CA
ENCODING 12490
SWIDTH 990 0
DWIDTH 22 0
BBX 13 17 4 -2
BITMAP
0200
0200
0200
0200
0200
FFF8
FFF8
0200
0200
0200
0600
0400
0400
0C00
1800
3000
2000
ENDCHAR
STARTCHAR 30CB
ENCODING 12491
SWIDTH 990 0
DWIDTH 22 0
BBX 14 11 4 1
BITMAP
3FF0
3FF0
0000
0000
0000
0000
0000
0000
0000
FFFC
FFFC
ENDCHAR
STARTCHAR 30CC
ENCODING 12492
SWIDTH 990 0
DWIDTH 22 0
BBX 11 15 5 -2
BITMAP
7FC0
7FE0
0060
0040
0040
60C0
3880
0F80
0300
0380
06C0
0C20
1820
7000
C000
ENDCHAR
STARTCHAR 30CD
ENCODING 12493
SWIDTH 990 0
DWIDTH 22 0
BBX 13 19 5 -2
BITMAP
0C00
0200
0100
0100
0000
3F00
3F80
0180
0100
0300
06C0
0E30
1A18
3208
E200
0200
0200
0200
0200
ENDCHAR
STARTCHAR 30CE
ENCODING 12494
SWIDTH 990 0
DWIDTH 22 0
BBX 11 13 5 0
BITMAP
0020
0020
0060
0040
00C0
0080
0180
0300
0600
0C00
1800
3000
C000
ENDCHAR
STARTCHAR 30CF
ENCODING 12495
SWIDTH 990 0
DWIDTH 22 0
BBX 14 9 4 3
BITMAP
08C0
0860
1830
1810
1018
3008
6008
C00C
8000
ENDCHAR
STARTCHAR 30D0
ENCODING 12496
SWIDTH 990 0
DWIDTH 22 0
BBX 16 12 4 2
BITMAP
0004
0012
000D
08C5
0860
1830
1810
1018
3008
6008
C00C
8000
ENDCHAR
STARTCHAR 30D1
ENCODING 12497
SWIDTH 990 0
DWIDTH 22 0
BBX 16 12 4 2
BITMAP
0006
0009
0009
0046
08E0
0860
0830
1818
1008
300C
6004
C004
ENDCHAR
STARTCHAR 30D2
ENCODING 12498
SWIDTH 990 0
DWIDTH 22 0
BBX 10 14 6 0
BITMAP
8000
8000
8040
80C0
8380
8E00
B800
E000
8000
8000
8000
8000
C000
FFC0
ENDCHAR
STARTCHAR 30D3
ENCODING 12499
SWIDTH 990 0
DWIDTH 22 0
BBX 14 17 6 1
BITMAP
0030
0058
006C
8030
8010
8040
80C0
8380
8E00
B800
E000
8000
8000
8000
8000
C000
FFC0
ENDCHAR
STARTCHAR 30D4
ENCODING 12500
SWIDTH 990 0
DWIDTH 22 0
BBX 14 16 6 0
BITMAP
0038
0044
8038
8000
80C0
8180
8700
8C00
B800
E000
8000
8000
8000
8000
C000
FFC0
ENDCHAR
STARTCHAR 30D5
ENCODING 12501
SWIDTH 990 0
DWIDTH 22 0
BBX 12 14 5 -2
BITMAP
FFE0
FFF0
0030
0030
0020
0020
0060
0040
00C0
0180
0300
0600
1C00
3000
ENDCHAR
STARTCHAR 30D6
ENCODING 12502
SWIDTH 990 0
DWIDTH 22 0
BBX 16 17 5 -1
BITMAP
000C
0016
000F
FFE4
FFF0
0030
0030
0020
0020
0060
0040
00C0
0180
0300
0600
1C00
3000
ENDCHAR
STARTCHAR 30D7
ENCODING 12503
SWIDTH 990 0
DWIDTH 22 0
BBX 15 18 5 -3
BITMAP
000C
0012
0012
000C
FFE0
FFF0
0030
0030
0060
0060
0060
00C0
0080
0180
0300
0E00
1800
3000
ENDCHAR
STARTCHAR 30D8
ENCODING 12504
SWIDTH 990 0
DWIDTH 22 0
BBX 15 11 3 0
BITMAP
0600
0F00
0980
1040
3020
6030
C018
000C
0006
0002
0002
ENDCHAR
STARTCHAR 30D9
ENCODING 12505
SWIDTH 990 0
DWIDTH 22 0
BBX 17 14 3 0
BITMAP
000400
000300
001D80
060680
0F0200
098000
104000
302000
603000
C01800
000C00
000600
000200
000200
ENDCHAR
STARTCHAR 30DA
ENCODING 12506
SWIDTH 990 0
DWIDTH 22 0
BBX 16 13 3 1
BITMAP
000C
0012
0612
090C
1880
3040
6020
C010
0008
000C
0006
0003
0002
ENDCHAR
STARTCHAR 30DB
ENCODING 12507
SWIDTH 990 0
DWIDTH 22 0
BBX 13 16 4 -2
BITMAP
0200
0200
0200
0200
FFF8
FFF8
0200
0200
0240
2260
6220
4210
8208
0200
0200
0200
ENDCHAR
STARTCHAR 30DC
ENCODING 12508
SWIDTH 990 0
DWIDTH 22 0
BBX 16 18 4 -1
BITMAP
0004
0012
0209
0204
0200
0200
FFF8
FFF8
0200
0200
0240
2260
6220
4210
8208
0200
0200
0200
ENDCHAR
STARTCHAR 30DD
ENCODING 12509
SWIDTH 990 0
DWIDTH 22 0
BBX 16 19 3 -3
BITMAP
0006
0009
0009
0109
0106
0100
7FFC
7FFC
0100
0100
0100
1930
1110
3118
610C
C104
0100
0100
0100
ENDCHAR
STARTCHAR 30DE
ENCODING 12510
SWIDTH 990 0
DWIDTH 22 0
BBX 13 12 4 -2
BITMAP
FFF8
FFF8
0008
0018
0030
0060
10C0
1D80
0700
0300
0180
0080
ENDCHAR
STARTCHAR 30DF
ENCODING 12511
SWIDTH 990 0
DWIDTH 22 0
BBX 8 16 7 -2
BITMAP
70
0C
07
00
00
60
38
0E
02
00
80
E0
18
0C
02
01
ENDCHAR
STARTCHAR 30E0
ENCODING 12512
SWIDTH 990 0
DWIDTH 22 0
BBX 13 12 5 0
BITMAP
0600
0600
0400
0C00
0800
0800
1820
1020
3030
2030
67F8
FC08
ENDCHAR
STARTCHAR 30E1
ENCODING 12513
SWIDTH 990 0
DWIDTH 22 0
BBX 11 14 5 -1
BITMAP
0020
0060
0060
1840
0CC0
0680
0180
0380
06C0
0460
0C00
3800
6000
C000
ENDCHAR
STARTCHAR 30E2
ENCODING 12514
SWIDTH 990 0
DWIDTH 22 0
BBX 13 14 4 0
BITMAP
7FF0
7FF0
0400
0400
0400
FFF8
FFF8
0400
0400
0400
0400
0400
07F8
07F8
ENDCHAR
STARTCHAR 30E3
ENCODING 12515
SWIDTH 990 0
DWIDTH 22 0
BBX 12 13 5 -2
BITMAP
1800
1800
0860
0BD0
1E30
F420
0460
0400
0600
0200
0200
0300
0300
ENDCHAR
STARTCHAR 30E4
ENCODING 12516
SWIDTH 990 0
DWIDTH 22 0
BBX 15 17 3 -2
BITMAP
0400
0400
0400
060C
02FE
1F84
FA0C
0308
0100
0100
0100
0180
0080
0080
0080
00C0
0040
ENDCHAR
STARTCHAR 30E5
ENCODING 12517
SWIDTH 990 0
DWIDTH 22 0
BBX 13 10 4 0
BITMAP
3FC0
3FC0
0040
0040
0040
0040
0040
0040
FFF8
FFF8
ENDCHAR
STARTCHAR 30E6
ENCODING 12518
SWIDTH 990 0
DWIDTH 22 0
BBX 15 11 3 1
BITMAP
1FF0
1FF0
0010
0010
0010
0010
0010
0010
0010
FFFE
FFFE
ENDCHAR
STARTCHAR 30E7
ENCODING 12519
SWIDTH 990 0
DWIDTH 22 0
BBX 9 11 6 -2
BITMAP
FF80
FF80
0080
0080
FF80
FF80
0080
0080
FF80
FF80
0080
ENDCHAR
STARTCHAR 30E8
ENCODING 12520
SWIDTH 990 0
DWIDTH 22 0
BBX 11 15 5 -2
BITMAP
FFE0
FFE0
0020
0020
0020
0020
7FE0
7FE0
0020
0020
0020
0020
FFE0
FFE0
0020
ENDCHAR
STARTCHAR 30E9
ENCODING 12521
SWIDTH 990 0
DWIDTH 22 0
BBX 11 16 5 -2
BITMAP
3F80
3F80
0000
0000
FFC0
FFE0
0020
0020
0060
0040
00C0
0080
0180
0300
0C00
1800
ENDCHAR
STARTCHAR 30EA
ENCODING 12522
SWIDTH 990 0
DWIDTH 22 0
BBX 9 16 6 -3
BITMAP
0080
8080
8080
8080
8080
8080
8080
8080
8080
0180
0100
0300
0200
0400
0800
3000
ENDCHAR
STARTCHAR 30EB
ENCODING 12523
SWIDTH 990 0
DWIDTH 22 0
BBX 16 14 3 -1
BITMAP
0080
0880
0880
0880
0880
0880
0883
0886
1884
108C
1098
30B0
60E0
C000
ENDCHAR
STARTCHAR 30EC
ENCODING 12524
SWIDTH 990 0
DWIDTH 22 0
BBX 11 14 6 -2
BITMAP
8000
8000
8000
8000
8000
8000
8060
80C0
8180
8300
8600
9C00
B000
E000
ENDCHAR
STARTCHAR 30ED
ENCODING 12525
SWIDTH 990 0
DWIDTH 22 0
BBX 11 12 5 0
BITMAP
FFE0
FFE0
8020
8020
8020
8020
8020
8020
8020
8020
FFE0
FFE0
ENDCHAR
STARTCHAR 30EE
ENCODING 12526
SWIDTH 990 0
DWIDTH 22 0
BBX 10 11 6 -2
BITMAP
FFC0
FFC0
8040
8040
8040
0080
0080
0100
0300
0C00
1800
ENDCHAR
STARTCHAR 30EF
ENCODING 12527
SWIDTH 990 0
DWIDTH 22 0
BBX 13 16 4 -3
BITMAP
FFF8
FFF8
8018
8018
8018
8018
8010
0030
0030
0030
0060
00C0
01C0
0300
0600
0C00
ENDCHAR
STARTCHAR 30F0
ENCODING 12528
SWIDTH 990 0
DWIDTH 22 0
BBX 14 17 4 -1
BITMAP
0080
0080
0080
0080
7FF8
7FF8
1080
1080
1080
FFFC
FFFC
0080
0080
0080
0080
0080
0080
ENDCHAR
STARTCHAR 30F1
ENCODING 12529
SWIDTH 990 0
DWIDTH 22 0
BBX 13 11 4 0
BITMAP
3FF8
3FF8
0010
0060
02C0
0380
0200
0200
0200
0200
FFF8
ENDCHAR
STARTCHAR 30F2
ENCODING 12530
SWIDTH 990 0
DWIDTH 22 0
BBX 12 16 5 -2
BITMAP
7FF0
7FF0
0030
0030
0030
FFF0
FFE0
0060
0060
00C0
00C0
0180
0300
0E00
1800
1000
ENDCHAR
STARTCHAR 30F3
ENCODING 12531
SWIDTH 990 0
DWIDTH 22 0
BBX 11 15 6 -1
BITMAP
8000
E000
3000
1000
1000
0020
0060
00C0
0180
0300
0600
0C00
3800
F000
C000
ENDCHAR
STARTCHAR 30F4
ENCODING 12532
SWIDTH 990 0
DWIDTH 22 0
BBX 16 18 4 -1
BITMAP
0004
0016
021B
0204
0200
FFF8
FFF8
8018
8018
8018
8010
0030
0030
0060
0060
00C0
0380
0600
ENDCHAR
STARTCHAR 30F5
ENCODING 12533
SWIDTH 990 0
DWIDTH 22 0
BBX 10 13 6 -2
BITMAP
0800
0800
0800
FFC0
FFC0
0840
0840
1840
1040
3040
60C0
C180
8300
ENDCHAR
STARTCHAR 30F6
ENCODING 12534
SWIDTH 990 0
DWIDTH 22 0
BBX 12 13 4 -2
BITMAP
0800
1800
1FF0
3FF0
6100
C100
8100
0100
0300
0200
0600
0C00
1800
ENDCHAR
STARTCHAR 3131
ENCODING 12593
SWIDTH 990 0
DWIDTH 22 0
BBX 14 11 4 1
BITMAP
FFFC
FFFC
000C
000C
000C
000C
000C
000C
000C
000C
000C
ENDCHAR
STARTCHAR 3132
ENCODING 12594
SWIDTH 990 0
DWIDTH 22 0
BBX 16 11 2 1
BITMAP
FF7F
FF7F
0303
0303
0303
0303
0303
0303
0303
0303
0303
ENDCHAR
STARTCHAR 3133
ENCODING 12595
SWIDTH 990 0
DWIDTH 22 0
BBX 16 11 3 1
BITMAP
FE18
FE18
0618
0618
0618
0618
063C
0624
0666
06C3
0681
ENDCHAR
STARTCHAR 3134
ENCODING 12596
SWIDTH 990 0
DWIDTH 22 0
BBX 13 10 4 1
BITMAP
C000
C000
C000
C000
C000
C000
C000
C000
C000
FFF8
ENDCHAR
STARTCHAR 3135
ENCODING 12597
SWIDTH 990 0
DWIDTH 22 0
BBX 16 10 3 1
BITMAP
C1FE
C1FE
C018
C018
C018
C038
C06C
C4E4
FDC2
E103
ENDCHAR
STARTCHAR 3136
ENCODING 12598
SWIDTH 990 0
DWIDTH 22 0
BBX 17 12 3 1
BITMAP
001800
C01800
C01800
C3FF80
C00000
C03C00
C07E00
C0C300
C0C300
C0C300
FC7E00
003C00
ENDCHAR
STARTCHAR 3137
ENCODING 12599
SWIDTH 990 0
DWIDTH 22 0
BBX 13 11 4 1
BITMAP
FFF8
FFF8
C000
C000
C000
C000
C000
C000
C000
FFF8
FFF8
ENDCHAR
STARTCHAR 3138
ENCODING 12600
SWIDTH 990 0
DWIDTH 22 0
BBX 16 11 3 1
BITMAP
FEFF
FEFF
C0C0
C0C0
C0C0
C0C0
C0C0
C0C0
C0C0
FEFF
FCFF
ENDCHAR
STARTCHAR 3139
ENCODING 12601
SWIDTH 990 0
DWIDTH 22 0
BBX 13 11 5 1
BITMAP
FFF8
FFF8
0018
0018
FFF8
FFF8
C000
C000
C000
FFF8
FFF8
ENDCHAR
STARTCHAR 313A
ENCODING 12602
SWIDTH 990 0
DWIDTH 22 0
BBX 15 11 3 1
BITMAP
FFFE
FFFE
0306
0306
FF06
FF06
C006
C006
C006
FF06
E006
ENDCHAR
STARTCHAR 313B
ENCODING 12603
SWIDTH 990 0
DWIDTH 22 0
BBX 16 11 3 1
BITMAP
FEFF
FEFF
06C3
06C3
FEC3
FEC3
C0C3
C0C3
C0C3
FEFF
F0FF
ENDCHAR
STARTCHAR 313C
ENCODING 12604
SWIDTH 990 0
DWIDTH 22 0
BBX 16 10 3 1
BITMAP
FEC3
FEC3
06C3
06C3
FEFF
FEFF
C0C3
C0C3
C0C3
FEFF
ENDCHAR
STARTCHAR 313D
ENCODING 12605
SWIDTH 990 0
DWIDTH 22 0
BBX 16 11 3 1
BITMAP
FE18
FE18
0618
0618
FE18
FE18
C03C
C024
C066
FEC3
F081
ENDCHAR
STARTCHAR 313E
ENCODING 12606
SWIDTH 990 0
DWIDTH 22 0
BBX 16 11 3 1
BITMAP
FEFE
FEFE
06C0
06C0
FEFE
FEFE
C0C0
C0C0
C0C0
FEFF
F0FF
ENDCHAR
STARTCHAR 313F
ENCODING 12607
SWIDTH 990 0
DWIDTH 22 0
BBX 16 11 3 1
BITMAP
FEFF
FEFF
0644
0644
FE44
FE44
C044
C044
C044
FEFF
F0FF
ENDCHAR
STARTCHAR 3140
ENCODING 12608
SWIDTH 990 0
DWIDTH 22 0
BBX 16 12 3 1
BITMAP
0018
FE18
FE18
07FF
0600
FE18
FE7E
C0E7
C0C3
C0C3
FE7E
C03C
ENDCHAR
STARTCHAR 3141
ENCODING 12609
SWIDTH 990 0
DWIDTH 22 0
BBX 13 11 4 1
BITMAP
FFF8
FFF8
C018
C018
C018
C018
C018
C018
C018
FFF8
FFF8
ENDCHAR
STARTCHAR 3142
ENCODING 12610
SWIDTH 990 0
DWIDTH 22 0
BBX 13 10 5 1
BITMAP
C018
C018
C018
C018
FFF8
FFF8
C018
C018
C018
FFF8
ENDCHAR
STARTCHAR 3143
ENCODING 12611
SWIDTH 990 0
DWIDTH 22 0
BBX 16 10 3 1
BITMAP
C6C3
C6C3
C6C3
C6C3
FEFF
FEFF
C6C3
C6C3
C6C3
FEFF
ENDCHAR
STARTCHAR 3144
ENCODING 12612
SWIDTH 990 0
DWIDTH 22 0
BBX 17 11 3 1
BITMAP
C61800
C61800
C61800
C61800
FE1800
FE1C00
C63C00
C62600
C66200
FEC380
008000
ENDCHAR
STARTCHAR 3145
ENCODING 12613
SWIDTH 990 0
DWIDTH 22 0
BBX 16 10 3 1
BITMAP
0180
0180
0180
0180
03C0
03C0
0660
0C30
381C
E007
ENDCHAR
STARTCHAR 3146
ENCODING 12614
SWIDTH 990 0
DWIDTH 22 0
BBX 16 11 2 1
BITMAP
0808
0808
0808
0808
0808
1818
141C
3634
2322
C0C3
0001
ENDCHAR
STARTCHAR 3147
ENCODING 12615
SWIDTH 990 0
DWIDTH 22 0
BBX 12 11 5 1
BITMAP
1F80
3FC0
70E0
E070
C030
C030
C030
E070
60E0
3FC0
1F80
ENDCHAR
STARTCHAR 3148
ENCODING 12616
SWIDTH 990 0
DWIDTH 22 0
BBX 15 11 3 1
BITMAP
FFFC
FFFC
0300
0300
0300
0780
0CC0
1860
3030
E01E
8004
ENDCHAR
STARTCHAR 3149
ENCODING 12617
SWIDTH 990 0
DWIDTH 22 0
BBX 17 11 3 1
BITMAP
FF7F80
FF7F80
081800
081800
081800
181C00
143C00
362600
636300
C0C180
800000
ENDCHAR
STARTCHAR 314A
ENCODING 12618
SWIDTH 990 0
DWIDTH 22 0
BBX 15 13 4 0
BITMAP
0300
0300
FFFE
FFFE
0300
0300
0380
0780
0CC0
1860
3038
E00E
8002
ENDCHAR
STARTCHAR 314B
ENCODING 12619
SWIDTH 990 0
DWIDTH 22 0
BBX 14 11 4 1
BITMAP
FFFC
FFFC
000C
000C
000C
FFFC
FFFC
000C
000C
000C
000C
ENDCHAR
STARTCHAR 314C
ENCODING 12620
SWIDTH 990 0
DWIDTH 22 0
BBX 13 11 4 1
BITMAP
FFF8
FFF8
C000
C000
FFF0
FFF0
C000
C000
C000
FFF8
FFF8
ENDCHAR
STARTCHAR 314D
ENCODING 12621
SWIDTH 990 0
DWIDTH 22 0
BBX 15 11 4 1
BITMAP
FFFC
FFFC
1830
1830
1830
1830
1830
1830
1830
FFFE
FFFE
ENDCHAR
STARTCHAR 314E
ENCODING 12622
SWIDTH 990 0
DWIDTH 22 0
BBX 14 12 4 1
BITMAP
0300
0300
0300
FFFC
0000
0FC0
3FF0
7038
6018
7038
3FF0
0FC0
ENDCHAR
STARTCHAR 314F
ENCODING 12623
SWIDTH 990 0
DWIDTH 22 0
BBX 5 20 10 -4
BITMAP
C0
C0
C0
C0
C0
C0
C0
C0
F8
F8
C0
C0
C0
C0
C0
C0
C0
C0
C0
C0
ENDCHAR
STARTCHAR 3150
ENCODING 12624
SWIDTH 990 0
DWIDTH 22 0
BBX 7 20 8 -4
BITMAP
C6
C6
C6
C6
C6
C6
C6
C6
FE
FE
C6
C6
C6
C6
C6
C6
C6
C6
C6
06
ENDCHAR
STARTCHAR 3151
ENCODING 12625
SWIDTH 990 0
DWIDTH 22 0
BBX 5 20 10 -4
BITMAP
C0
C0
C0
C0
C0
F8
F8
C0
C0
C0
C0
C0
F8
F8
C0
C0
C0
C0
C0
C0
ENDCHAR
STARTCHAR 3152
ENCODING 12626
SWIDTH 990 0
DWIDTH 22 0
BBX 7 20 8 -4
BITMAP
C6
C6
C6
C6
C6
FE
FE
C6
C6
C6
C6
FE
FE
C6
C6
C6
C6
C6
C6
06
ENDCHAR
STARTCHAR 3153
ENCODING 12627
SWIDTH 990 0
DWIDTH 22 0
BBX 7 20 7 -4
BITMAP
06
06
06
06
06
06
06
06
FE
FE
06
06
06
06
06
06
06
06
06
06
ENDCHAR
STARTCHAR 3154
ENCODING 12628
SWIDTH 990 0
DWIDTH 22 0
BBX 10 20 5 -4
BITMAP
0CC0
0CC0
0CC0
0CC0
0CC0
0CC0
0CC0
0CC0
FCC0
FCC0
0CC0
0CC0
0CC0
0CC0
0CC0
0CC0
0CC0
0CC0
0CC0
00C0
ENDCHAR
STARTCHAR 3155
ENCODING 12629
SWIDTH 990 0
DWIDTH 22 0
BBX 7 20 7 -4
BITMAP
06
06
06
06
FE
FE
06
06
06
06
06
FE
FE
06
06
06
06
06
06
06
ENDCHAR
STARTCHAR 3156
ENCODING 12630
SWIDTH 990 0
DWIDTH 22 0
BBX 10 20 5 -4
BITMAP
0CC0
0CC0
0CC0
0CC0
0CC0
FCC0
FCC0
0CC0
0CC0
0CC0
0CC0
FCC0
FCC0
0CC0
0CC0
0CC0
0CC0
0CC0
0CC0
0CC0
ENDCHAR
STARTCHAR 3157
ENCODING 12631
SWIDTH 990 0
DWIDTH 22 0
BBX 19 9 1 2
BITMAP
006000
006000
006000
006000
006000
006000
006000
006000
FFFFE0
ENDCHAR
STARTCHAR 3158
ENCODING 12632
SWIDTH 990 0
DWIDTH 22 0
BBX 20 20 1 -4
BITMAP
000180
000180
000180
000180
000180
000180
030180
030180
0301F0
0301F0
030180
030180
030180
030180
FFFD80
000180
000180
000180
000180
000180
ENDCHAR
STARTCHAR 3159
ENCODING 12633
SWIDTH 990 0
DWIDTH 22 0
BBX 18 20 1 -4
BITMAP
000CC0
000CC0
000CC0
000CC0
000CC0
000CC0
060CC0
060CC0
060FC0
060FC0
060CC0
060CC0
060CC0
060CC0
FFECC0
000CC0
000CC0
000CC0
000CC0
0000C0
ENDCHAR
STARTCHAR 315A
ENCODING 12634
SWIDTH 990 0
DWIDTH 22 0
BBX 17 20 2 -4
BITMAP
000180
000180
000180
000180
000180
000180
030180
030180
030180
030180
030180
030180
030180
030180
FFFD80
000180
000180
000180
000180
000180
ENDCHAR
STARTCHAR 315B
ENCODING 12635
SWIDTH 990 0
DWIDTH 22 0
BBX 19 9 1 1
BITMAP
060C00
060C00
060C00
060C00
060C00
060C00
060C00
060C00
FFFFE0
ENDCHAR
STARTCHAR 315C
ENCODING 12636
SWIDTH 990 0
DWIDTH 22 0
BBX 19 14 1 -4
BITMAP
FFFFE0
FFFFE0
006000
006000
006000
006000
006000
006000
006000
006000
006000
006000
006000
006000
ENDCHAR
STARTCHAR 315D
ENCODING 12637
SWIDTH 990 0
DWIDTH 22 0
BBX 17 20 2 -4
BITMAP
000180
000180
000180
000180
000180
000180
FFFD80
FFFD80
030180
030180
030180
033F80
033F80
030180
030180
030180
030180
030180
030180
000180
ENDCHAR
STARTCHAR 315E
ENCODING 12638
SWIDTH 990 0
DWIDTH 22 0
BBX 18 20 1 -4
BITMAP
000CC0
000CC0
000CC0
000CC0
000CC0
000CC0
FFECC0
FFECC0
060CC0
060CC0
060CC0
06FCC0
06FCC0
060CC0
060CC0
060CC0
060CC0
060CC0
060CC0
0000C0
ENDCHAR
STARTCHAR 315F
ENCODING 12639
SWIDTH 990 0
DWIDTH 22 0
BBX 17 20 2 -4
BITMAP
000180
000180
000180
000180
000180
000180
FFFD80
FFFD80
030180
030180
030180
030180
030180
030180
030180
030180
030180
030180
030180
000180
ENDCHAR
STARTCHAR 3160
ENCODING 12640
SWIDTH 990 0
DWIDTH 22 0
BBX 19 14 1 -4
BITMAP
FFFFE0
FFFFE0
060C00
060C00
060C00
060C00
060C00
060C00
060C00
060C00
060C00
060C00
060C00
060C00
ENDCHAR
STARTCHAR 3161
ENCODING 12641
SWIDTH 990 0
DWIDTH 22 0
BBX 19 2 1 4
BITMAP
FFFFE0
FFFFE0
ENDCHAR
STARTCHAR 3162
ENCODING 12642
SWIDTH 990 0
DWIDTH 22 0
BBX 17 20 2 -4
BITMAP
000180
000180
000180
000180
000180
000180
000180
000180
000180
000180
000180
000180
000180
FFFD80
FFFD80
000180
000180
000180
000180
000180
ENDCHAR
STARTCHAR 3163
ENCODING 12643
SWIDTH 990 0
DWIDTH 22 0
BBX 2 20 10 -4
BITMAP
C0
C0
C0
C0
C0
C0
C0
C0
C0
C0
C0
C0
C0
C0
C0
C0
C0
C0
C0
C0
ENDCHAR
STARTCHAR 3164
ENCODING 12644
SWIDTH 990 0
DWIDTH 22 0
BBX 0 0 0 0
BITMAP
ENDCHAR
STARTCHAR 3165
ENCODING 12645
SWIDTH 990 0
DWIDTH 22 0
BBX 16 10 3 1
BITMAP
C0C0
C0C0
C0C0
C0C0
C0C0
C0C0
C0C0
C0C0
C0C0
FFFF
ENDCHAR
STARTCHAR 3166
ENCODING 12646
SWIDTH 990 0
DWIDTH 22 0
BBX 16 10 3 1
BITMAP
C0FF
C0FF
C0C0
C0C0
C0C0
C0C0
C0C0
C0C0
C0C0
FEFF
ENDCHAR
STARTCHAR 3167
ENCODING 12647
SWIDTH 990 0
DWIDTH 22 0
BBX 17 10 3 1
BITMAP
C00800
C00800
C00800
C00800
C00800
C01C00
C01400
C03600
C06300
FEC180
ENDCHAR
STARTCHAR 3168
ENCODING 12648
SWIDTH 990 0
DWIDTH 22 0
BBX 17 11 3 1
BITMAP
000800
C00800
C00C00
C01C00
C01400
C03200
C02200
C06300
C04100
C0C180
FEFF80
ENDCHAR
STARTCHAR 3169
ENCODING 12649
SWIDTH 990 0
DWIDTH 22 0
BBX 17 11 3 1
BITMAP
FFC400
FFC400
08C400
08C400
F8C400
F8C400
80CC00
80CA00
80DB00
FCF180
00D100
ENDCHAR
STARTCHAR 316A
ENCODING 12650
SWIDTH 990 0
DWIDTH 22 0
BBX 16 11 3 1
BITMAP
FF7F
FF7F
0360
0360
FF60
FF60
C060
C060
C060
FF7F
E07F
ENDCHAR
STARTCHAR 316B
ENCODING 12651
SWIDTH 990 0
DWIDTH 22 0
BBX 17 11 3 1
BITMAP
F22200
F22200
122200
122200
F3E200
F3E200
822600
822500
822D00
FBF880
000080
ENDCHAR
STARTCHAR 316C
ENCODING 12652
SWIDTH 990 0
DWIDTH 22 0
BBX 17 12 3 1
BITMAP
000800
FE0800
FE1800
061C00
061400
FE3600
FE2200
C06300
C04100
C0C100
FEFF80
F0FF80
ENDCHAR
STARTCHAR 316D
ENCODING 12653
SWIDTH 990 0
DWIDTH 22 0
BBX 17 11 3 1
BITMAP
FEFF80
FEFF80
060000
063E00
FE3600
FE6300
C06300
C06300
C06300
FE3E00
F01C00
ENDCHAR
STARTCHAR 316E
ENCODING 12654
SWIDTH 990 0
DWIDTH 22 0
BBX 16 10 3 1
BITMAP
FEC3
FEC3
C6C3
C6C3
C6FF
C6FF
C6C3
C6C3
C6C3
FEFF
ENDCHAR
STARTCHAR 316F
ENCODING 12655
SWIDTH 990 0
DWIDTH 22 0
BBX 16 11 2 1
BITMAP
FE08
FE08
C608
C608
C608
C618
C614
C636
C662
FEC3
FE81
ENDCHAR
STARTCHAR 3170
ENCODING 12656
SWIDTH 990 0
DWIDTH 22 0
BBX 17 11 3 2
BITMAP
FE1800
FE1800
C61800
C63C00
C62400
C66600
C64200
C64200
C6C100
FEFF00
FFFF80
ENDCHAR
STARTCHAR 3171
ENCODING 12657
SWIDTH 990 0
DWIDTH 22 0
BBX 11 16 6 -2
BITMAP
FFE0
FFE0
C060
C060
C060
FFE0
FFE0
0000
3E00
7F80
E1C0
C0C0
C0C0
E1C0
7F80
3F00
ENDCHAR
STARTCHAR 3172
ENCODING 12658
SWIDTH 990 0
DWIDTH 22 0
BBX 17 11 2 1
BITMAP
C37F80
C37F80
C30180
C30180
FF0180
FF0180
C30180
C30180
C30180
FF0180
FF0180
ENDCHAR
STARTCHAR 3173
ENCODING 12659
SWIDTH 990 0
DWIDTH 22 0
BBX 17 10 2 1
BITMAP
C37F80
C37F80
C36000
C36000
FF6000
FF6000
C36000
C36000
C36000
FF7F80
ENDCHAR
STARTCHAR 3174
ENCODING 12660
SWIDTH 990 0
DWIDTH 22 0
BBX 16 10 3 1
BITMAP
885F
885F
8843
8843
F843
F843
88C3
88A3
89A3
FB33
ENDCHAR
STARTCHAR 3175
ENCODING 12661
SWIDTH 990 0
DWIDTH 22 0
BBX 17 10 2 1
BITMAP
888F80
888F80
888C00
888C00
F88C00
F88C00
89CC00
894C00
8B6C00
FE3F80
ENDCHAR
STARTCHAR 3176
ENCODING 12662
SWIDTH 990 0
DWIDTH 22 0
BBX 18 10 2 1
BITMAP
C37F80
C37F80
C30800
C30800
FF0800
FF1C00
C31400
C33600
C32300
FFC1C0
ENDCHAR
STARTCHAR 3177
ENCODING 12663
SWIDTH 990 0
DWIDTH 22 0
BBX 16 10 3 1
BITMAP
C37F
C37F
C360
C360
FF7F
FF7F
C360
C360
C360
FF7F
ENDCHAR
STARTCHAR 3178
ENCODING 12664
SWIDTH 990 0
DWIDTH 22 0
BBX 10 17 6 -2
BITMAP
C0C0
C0C0
C0C0
FFC0
FFC0
C0C0
FFC0
0000
0000
3E00
7F80
E1C0
C0C0
C0C0
E1C0
7F80
3F00
ENDCHAR
STARTCHAR 3179
ENCODING 12665
SWIDTH 990 0
DWIDTH 22 0
BBX 15 17 3 -1
BITMAP
C6C6
C6C6
FEFE
FEFE
C6C6
C6C6
FEFE
0000
0100
0FE0
1C70
1830
1830
1830
1C70
0FE0
0100
ENDCHAR
STARTCHAR 317A
ENCODING 12666
SWIDTH 990 0
DWIDTH 22 0
BBX 16 11 3 1
BITMAP
0C7F
0C7F
0C03
0C03
0C03
1E03
1E03
3303
6103
C183
0083
ENDCHAR
STARTCHAR 317B
ENCODING 12667
SWIDTH 990 0
DWIDTH 22 0
BBX 18 11 2 1
BITMAP
0C3000
0C3000
0C3000
0C3000
0C3000
1E3000
1E3000
333000
333000
E1BFC0
408000
ENDCHAR
STARTCHAR 317C
ENCODING 12668
SWIDTH 990 0
DWIDTH 22 0
BBX 16 11 3 1
BITMAP
187F
187F
1860
1860
1860
1860
3C60
6460
6660
C37F
817F
ENDCHAR
STARTCHAR 317D
ENCODING 12669
SWIDTH 990 0
DWIDTH 22 0
BBX 17 10 2 1
BITMAP
0C3180
0C3180
0C3180
0C3180
0C3F80
1E3F80
1E3180
333180
333180
E1BF80
ENDCHAR
STARTCHAR 317E
ENCODING 12670
SWIDTH 990 0
DWIDTH 22 0
BBX 19 10 1 1
BITMAP
0C3FC0
0C3FC0
0C0200
0C0200
0C0200
1C0600
1E0700
320D00
331880
E1F0E0
ENDCHAR
STARTCHAR 317F
ENCODING 12671
SWIDTH 990 0
DWIDTH 22 0
BBX 13 11 4 2
BITMAP
0200
0300
0700
0D80
08C0
1840
1060
3020
6010
7FF8
FFF8
ENDCHAR
STARTCHAR 3180
ENCODING 12672
SWIDTH 990 0
DWIDTH 22 0
BBX 17 12 3 0
BITMAP
3C0E00
7E1F00
C23100
832180
812080
812080
812080
812080
C32180
463100
7E1F00
180400
ENDCHAR
STARTCHAR 3181
ENCODING 12673
SWIDTH 990 0
DWIDTH 22 0
BBX 10 11 6 1
BITMAP
0C00
0C00
3F00
6180
E0C0
C0C0
C0C0
C0C0
6180
7F00
1E00
ENDCHAR
STARTCHAR 3182
ENCODING 12674
SWIDTH 990 0
DWIDTH 22 0
BBX 18 12 2 1
BITMAP
180000
180C00
3C0C00
660C00
C30C00
C30C00
C31E00
C31E00
C33300
E63180
7CE1C0
104080
ENDCHAR
STARTCHAR 3183
ENCODING 12675
SWIDTH 990 0
DWIDTH 22 0
BBX 17 11 2 1
BITMAP
180000
181000
7C1800
C63800
822C00
826400
824600
824200
82C300
468100
3DFF80
ENDCHAR
STARTCHAR 3184
ENCODING 12676
SWIDTH 990 0
DWIDTH 22 0
BBX 14 17 4 -2
BITMAP
FFF8
FFF8
1860
1860
1860
1860
FFFC
FFFC
0000
0FC0
1FE0
3870
3030
3030
3870
1FE0
0FC0
ENDCHAR
STARTCHAR 3185
ENCODING 12677
SWIDTH 990 0
DWIDTH 22 0
BBX 19 12 1 1
BITMAP
0C0300
0C0300
0C0300
FFBFE0
000000
080200
3E0F80
731CC0
6318C0
6318C0
7F1F80
1C0700
ENDCHAR
STARTCHAR 3186
ENCODING 12678
SWIDTH 990 0
DWIDTH 22 0
BBX 18 12 2 0
BITMAP
FFFFC0
FFFFC0
000000
000000
03E000
07F800
0E1C00
0C0C00
0C0C00
0E1C00
07F800
03F000
ENDCHAR
STARTCHAR 3187
ENCODING 12679
SWIDTH 990 0
DWIDTH 22 0
BBX 20 20 1 -4
BITMAP
000180
000180
000180
000180
000180
0001F0
0001F0
0C6180
0C6180
0C6180
0C6180
0C6180
0C61F0
0C61F0
FFFD80
000180
000180
000180
000180
000180
ENDCHAR
STARTCHAR 3188
ENCODING 12680
SWIDTH 990 0
DWIDTH 22 0
BBX 18 20 1 -4
BITMAP
000CC0
000CC0
000CC0
000CC0
000CC0
000FC0
000FC0
198CC0
198CC0
198CC0
198CC0
198FC0
198FC0
198CC0
FFECC0
000CC0
000CC0
000CC0
000CC0
0000C0
ENDCHAR
STARTCHAR 3189
ENCODING 12681
SWIDTH 990 0
DWIDTH 22 0
BBX 17 20 1 -4
BITMAP
000180
000180
000180
000180
000180
000180
0C6180
0C6180
0C6180
0C6180
0C6180
0C6180
0C6180
0C6180
FFFD80
000180
000180
000180
000180
000180
ENDCHAR
STARTCHAR 318A
ENCODING 12682
SWIDTH 990 0
DWIDTH 22 0
BBX 18 20 1 -4
BITMAP
0000C0
0000C0
0000C0
0000C0
0000C0
0000C0
FFFCC0
7FFCC0
0CC0C0
0CC0C0
0CCFC0
0CCFC0
0CC0C0
0CCFC0
0CCFC0
0CC0C0
0CC0C0
0CC0C0
0CC0C0
0000C0
ENDCHAR
STARTCHAR 318B
ENCODING 12683
SWIDTH 990 0
DWIDTH 22 0
BBX 18 20 1 -4
BITMAP
000CC0
000CC0
000CC0
000CC0
000CC0
000CC0
FFCCC0
FFCCC0
330CC0
330CC0
337CC0
337CC0
330CC0
337CC0
337CC0
330CC0
330CC0
330CC0
000CC0
0000C0
ENDCHAR
STARTCHAR 318C
ENCODING 12684
SWIDTH 990 0
DWIDTH 22 0
BBX 18 20 1 -4
BITMAP
0000C0
0000C0
0000C0
0000C0
0000C0
0000C0
FFFCC0
FFFCC0
0CC0C0
0CC0C0
0CC0C0
0CC0C0
0CC0C0
0CC0C0
0CC0C0
0CC0C0
0CC0C0
0CC0C0
0CC0C0
0000C0
ENDCHAR
STARTCHAR 318D
ENCODING 12685
SWIDTH 990 0
DWIDTH 22 0
BBX 4 4 9 4
BITMAP
60
F0
F0
60
ENDCHAR
STARTCHAR 318E
ENCODING 12686
SWIDTH 990 0
DWIDTH 22 0
BBX 11 20 6 -4
BITMAP
0060
0060
0060
0060
0060
0060
0060
0060
6060
F060
F060
6060
0060
0060
0060
0060
0060
0060
0060
0060
ENDCHAR
STARTCHAR 3200
ENCODING 12800
SWIDTH 990 0
DWIDTH 22 0
BBX 19 19 1 -4
BITMAP
100200
300100
200180
400080
400040
5FFE40
9FFE20
800620
800620
800620
800620
800620
800620
400640
400640
4000C0
200080
200180
100300
ENDCHAR
STARTCHAR 3201
ENCODING 12801
SWIDTH 990 0
DWIDTH 22 0
BBX 19 18 1 -2
BITMAP
100300
300100
200080
400040
4C0040
4C0040
8C0020
8C0020
8C0020
8C0020
8C0020
8C0020
8FFF40
400040
400040
200080
300180
180100
ENDCHAR
STARTCHAR 3202
ENCODING 12802
SWIDTH 990 0
DWIDTH 22 0
BBX 19 18 1 -3
BITMAP
100100
200180
200080
400040
4FFE40
8FFE20
8C0020
8C0020
8C0020
8C0020
8C0020
8FFE20
4FFE40
400040
600040
200080
100100
080300
ENDCHAR
STARTCHAR 3203
ENCODING 12803
SWIDTH 990 0
DWIDTH 22 0
BBX 19 19 1 -3
BITMAP
180200
100100
200080
400080
400040
4FFE40
8FFE20
800620
8FFE20
8FFE20
8C0020
8C0020
8FFE20
4FFE40
400040
200080
200080
100100
080200
ENDCHAR
STARTCHAR 3204
ENCODING 12804
SWIDTH 990 0
DWIDTH 22 0
BBX 19 19 1 -4
BITMAP
000200
100300
200180
600080
400040
4FFE40
8FFE20
8C0620
8C0620
8C0620
8C0620
8C0620
8FFE20
4FFE40
400040
6000C0
200080
100100
080300
ENDCHAR
STARTCHAR 3205
ENCODING 12805
SWIDTH 990 0
DWIDTH 22 0
BBX 19 18 1 -3
BITMAP
180300
300100
200080
400040
4C0640
8C0640
8C0620
8FFE20
8FFE20
8C0620
8C0620
8C0620
4FFE40
400040
6000C0
200080
100180
180300
ENDCHAR
STARTCHAR 3206
ENCODING 12806
SWIDTH 990 0
DWIDTH 22 0
BBX 19 19 1 -2
BITMAP
180300
100100
200080
400040
406040
406040
806020
806020
80E020
80F020
819820
830C20
8E0720
480240
400040
200080
300080
100100
080000
ENDCHAR
STARTCHAR 3207
ENCODING 12807
SWIDTH 990 0
DWIDTH 22 0
BBX 19 19 1 -2
BITMAP
180300
300100
200080
400040
41F040
43F840
860C20
8C0E20
8C0620
8C0620
8C0620
8E0C20
871820
43F040
40C040
200080
300080
100100
080200
ENDCHAR
STARTCHAR 3208
ENCODING 12808
SWIDTH 990 0
DWIDTH 22 0
BBX 19 19 1 -3
BITMAP
080100
100180
200080
200040
400040
4FFF40
8FFF20
806020
806020
80F020
80F020
819820
870E20
5C0340
400040
200040
300080
100180
080100
ENDCHAR
STARTCHAR 3209
ENCODING 12809
SWIDTH 990 0
DWIDTH 22 0
BBX 19 19 1 -2
BITMAP
080100
100180
300080
200040
406040
406040
8FFF20
8FFF20
806020
806020
80F020
819820
870C20
5E07C0
400040
200040
300080
180180
080100
ENDCHAR
STARTCHAR 320A
ENCODING 12810
SWIDTH 990 0
DWIDTH 22 0
BBX 19 19 1 -4
BITMAP
100200
200300
200180
400080
400040
5FFE40
9FFE20
800620
800620
9FFE20
9FFE20
800620
800620
800640
400640
4000C0
200080
200100
100300
ENDCHAR
STARTCHAR 320B
ENCODING 12811
SWIDTH 990 0
DWIDTH 22 0
BBX 19 19 1 -4
BITMAP
000200
100100
200080
200080
400040
4FFE40
8FFE20
8C0020
8FFC20
8FFC20
8C0020
8C0020
8FFE20
4FFE40
400040
2000C0
200080
100100
080300
ENDCHAR
STARTCHAR 320C
ENCODING 12812
SWIDTH 990 0
DWIDTH 22 0
BBX 19 19 1 -4
BITMAP
080200
180300
300180
200080
400040
4FFE40
CFFE20
800020
831820
831820
831820
831820
831020
4FFF40
400040
6000C0
200080
100100
080200
ENDCHAR
STARTCHAR 320D
ENCODING 12813
SWIDTH 990 0
DWIDTH 22 0
BBX 19 19 1 -4
BITMAP
080000
180100
300080
200080
406040
406040
806020
8FFF20
800020
80F020
83F820
820C20
820420
430C60
41F840
206040
200080
100180
080100
ENDCHAR
STARTCHAR 320E
ENCODING 12814
SWIDTH 990 0
DWIDTH 22 0
BBX 20 18 1 -2
BITMAP
080080
1800C0
300040
200220
47E220
47E220
802210
804210
804390
80C210
808210
830210
460210
440220
400220
200260
100040
080080
ENDCHAR
STARTCHAR 320F
ENCODING 12815
SWIDTH 990 0
DWIDTH 22 0
BBX 20 18 1 -2
BITMAP
080080
100040
200040
200220
440220
440220
840210
840210
840390
840390
840210
87FA10
800210
400220
400220
200260
100040
0800C0
ENDCHAR
STARTCHAR 3210
ENCODING 12816
SWIDTH 990 0
DWIDTH 22 0
BBX 20 19 1 -2
BITMAP
080080
100040
200040
200220
47F220
440220
840210
840210
8403D0
840210
840210
87FA10
800210
400220
400220
200260
100040
080080
000080
ENDCHAR
STARTCHAR 3211
ENCODING 12817
SWIDTH 990 0
DWIDTH 22 0
BBX 20 19 1 -2
BITMAP
080080
1000C0
200040
200220
47E220
402220
802210
87E210
840390
840210
840210
840210
87FA10
400220
400220
200260
100040
180080
080080
ENDCHAR
STARTCHAR 3212
ENCODING 12818
SWIDTH 990 0
DWIDTH 22 0
BBX 20 19 1 -3
BITMAP
080080
1000C0
300040
200220
47E220
47E220
842210
842210
842390
842390
842210
87E210
87E210
400220
400220
200260
100040
180080
080080
ENDCHAR
STARTCHAR 3213
ENCODING 12819
SWIDTH 990 0
DWIDTH 22 0
BBX 20 19 1 -2
BITMAP
080080
1000C0
300040
200220
442220
442220
842210
87E210
842390
842390
842210
842210
47E210
400220
400220
200260
100040
080080
000080
ENDCHAR
STARTCHAR 3214
ENCODING 12820
SWIDTH 990 0
DWIDTH 22 0
BBX 20 19 1 -4
BITMAP
080100
100080
200040
200440
410420
410420
810410
810410
830710
828710
868410
844410
983410
400420
400420
400420
200440
1000C0
180180
ENDCHAR
STARTCHAR 3215
ENCODING 12821
SWIDTH 990 0
DWIDTH 22 0
BBX 20 18 1 -3
BITMAP
080080
1000C0
200040
600220
438220
444220
886210
882210
882390
882390
886210
844210
838210
400220
400220
200260
300040
180080
ENDCHAR
STARTCHAR 3216
ENCODING 12822
SWIDTH 990 0
DWIDTH 22 0
BBX 20 18 1 -4
BITMAP
180080
1000C0
200040
6FF220
4FF220
408220
808210
808390
818390
814210
826210
843210
881210
400220
400220
200260
300040
180080
ENDCHAR
STARTCHAR 3217
ENCODING 12823
SWIDTH 990 0
DWIDTH 22 0
BBX 20 18 1 -3
BITMAP
080100
100080
200040
200440
410420
410420
8FF410
810410
810710
810710
828410
86C410
8C3410
400420
400420
200440
1000C0
180180
ENDCHAR
STARTCHAR 3218
ENCODING 12824
SWIDTH 990 0
DWIDTH 22 0
BBX 20 19 1 -4
BITMAP
080100
100080
200040
2FE440
4FE420
402420
802410
8FC410
804710
808710
818410
830410
860420
400420
400420
200440
1000C0
180180
080000
ENDCHAR
STARTCHAR 3219
ENCODING 12825
SWIDTH 990 0
DWIDTH 22 0
BBX 20 18 1 -4
BITMAP
080080
1000C0
300040
27F220
47F220
440220
840210
87E390
87E390
840210
840210
87FA10
800210
400220
400220
200260
100040
080080
ENDCHAR
STARTCHAR 321A
ENCODING 12826
SWIDTH 990 0
DWIDTH 22 0
BBX 20 18 1 -3
BITMAP
180100
100080
200040
400440
4FE420
400420
824410
824410
824710
824710
824410
9FF410
800430
400420
400460
200440
3000C0
180180
ENDCHAR
STARTCHAR 321B
ENCODING 12827
SWIDTH 990 0
DWIDTH 22 0
BBX 20 18 1 -3
BITMAP
080080
1800C0
300040
208220
408220
4FF220
800210
83C210
866390
842390
842210
866210
43C210
400220
400220
200260
100040
0800C0
ENDCHAR
STARTCHAR 321C
ENCODING 12828
SWIDTH 990 0
DWIDTH 22 0
BBX 20 18 1 -3
BITMAP
100080
200080
2FFF40
406060
40F020
C19820
870E10
9C0390
800010
800010
BFFFD0
806010
806020
406020
406020
206040
206040
100080
ENDCHAR
STARTCHAR 3260
ENCODING 12896
SWIDTH 990 0
DWIDTH 22 0
BBX 19 19 2 -3
BITMAP
03F800
0E0E00
180300
200080
4000C0
5FFE40
9FFE20
800620
800620
800620
800620
800620
800660
400640
6006C0
200080
180300
0E0E00
03F800
ENDCHAR
STARTCHAR 3261
ENCODING 12897
SWIDTH 990 0
DWIDTH 22 0
BBX 19 19 2 -3
BITMAP
03F800
0E0E00
180300
200080
4C00C0
4C0040
8C0020
8C0020
8C0020
8C0020
8C0020
8C0020
8FFF60
400040
6000C0
200080
180300
0E0E00
03F800
ENDCHAR
STARTCHAR 3262
ENCODING 12898
SWIDTH 990 0
DWIDTH 22 0
BBX 19 19 2 -3
BITMAP
03F800
0E0E00
180300
200080
4000C0
4FFE40
8FFE20
8C0020
8C0020
8C0020
8C0020
8C0020
8FFE60
4FFE40
6000C0
200080
180300
0E0E00
03F800
ENDCHAR
STARTCHAR 3263
ENCODING 12899
SWIDTH 990 0
DWIDTH 22 0
BBX 19 19 2 -3
BITMAP
03F800
0E0E00
180300
200080
4000C0
4FFE40
8FFE20
800620
8FFE20
8FFE20
8C0020
8C0020
8FFE60
4FFE40
6000C0
200080
180300
0E0E00
03F800
ENDCHAR
STARTCHAR 3264
ENCODING 12900
SWIDTH 990 0
DWIDTH 22 0
BBX 19 19 2 -3
BITMAP
03F800
0E0E00
180300
200080
4000C0
4FFE40
8FFE20
8C0620
8C0620
8C0620
8C0620
8C0620
8FFE60
4FFE40
6000C0
200080
180300
0E0E00
03F800
ENDCHAR
STARTCHAR 3265
ENCODING 12901
SWIDTH 990 0
DWIDTH 22 0
BBX 19 19 2 -3
BITMAP
03F800
0E0E00
180300
200080
4C06C0
4C0640
8C0620
8C0620
8FFE20
8FFE20
8C0620
8C0620
8FFE60
400040
6000C0
200080
180300
0E0E00
03F800
ENDCHAR
STARTCHAR 3266
ENCODING 12902
SWIDTH 990 0
DWIDTH 22 0
BBX 19 19 2 -3
BITMAP
03F800
0E0E00
180300
200080
60C0C0
40C040
80C060
80C020
80C020
81E020
81A020
833820
860C20
480640
400040
200080
100100
0C0600
03F800
ENDCHAR
STARTCHAR 3267
ENCODING 12903
SWIDTH 990 0
DWIDTH 22 0
BBX 19 19 2 -3
BITMAP
03F800
0E0E00
180300
200080
4040C0
43F840
871C20
8E0E20
8C0620
8C0620
8C0620
8E0620
870C60
43F840
6040C0
200080
180300
0E0E00
03F800
ENDCHAR
STARTCHAR 3268
ENCODING 12904
SWIDTH 990 0
DWIDTH 22 0
BBX 19 19 2 -3
BITMAP
03F800
0E0E00
180300
200080
4000C0
5FFE40
9FFE20
80C020
80C020
81E020
833020
861820
9C0F60
500240
6000C0
200080
180300
0E0E00
03F800
ENDCHAR
STARTCHAR 3269
ENCODING 12905
SWIDTH 990 0
DWIDTH 22 0
BBX 19 19 2 -3
BITMAP
03F800
0E0E00
180300
20C080
60C0C0
40C040
9FFE60
9FFE20
80C020
81E020
833020
861820
BC0F20
500240
400040
200080
100100
0C0600
03F800
ENDCHAR
STARTCHAR 326A
ENCODING 12906
SWIDTH 990 0
DWIDTH 22 0
BBX 19 19 2 -3
BITMAP
03F800
0E0E00
180300
200080
4000C0
5FFE40
9FFE20
800620
800620
9FFE20
9FFE20
800620
800660
400640
6000C0
200080
180300
0E0E00
03F800
ENDCHAR
STARTCHAR 326B
ENCODING 12907
SWIDTH 990 0
DWIDTH 22 0
BBX 19 19 2 -3
BITMAP
03F800
0E0E00
180300
200080
4FFCC0
4FFC40
880020
880020
8FFC20
8FFC20
880020
880020
8FFE60
4FFE40
6000C0
200080
180300
0E0E00
03F800
ENDCHAR
STARTCHAR 326C
ENCODING 12908
SWIDTH 990 0
DWIDTH 22 0
BBX 19 19 1 -3
BITMAP
03F800
0C0E00
100300
200080
4000C0
5FFE40
9FFE20
861820
861820
821820
821820
821020
9FFE60
400040
4000C0
200080
100300
0E0E00
03F800
ENDCHAR
STARTCHAR 326D
ENCODING 12909
SWIDTH 990 0
DWIDTH 22 0
BBX 19 19 2 -3
BITMAP
03F800
0E0E00
180300
200080
40C0C0
40C040
9FFE20
800020
81F020
83F820
840C20
840420
840C60
43F840
61F0C0
200080
180300
0E0E00
03F800
ENDCHAR
STARTCHAR 326E
ENCODING 12910
SWIDTH 990 0
DWIDTH 22 0
BBX 19 18 2 -2
BITMAP
03F800
0C0600
100100
200480
4FC440
4FC440
804420
808420
808720
818420
810420
860420
4C0440
480440
200480
100500
0C0600
03F800
ENDCHAR
STARTCHAR 326F
ENCODING 12911
SWIDTH 990 0
DWIDTH 22 0
BBX 19 18 2 -2
BITMAP
03F800
0C0600
100100
200480
480440
480440
880420
880420
880720
880720
880420
8FF420
400440
400440
200480
100500
0C0600
03F800
ENDCHAR
STARTCHAR 3270
ENCODING 12912
SWIDTH 990 0
DWIDTH 22 0
BBX 19 18 2 -2
BITMAP
03F800
0C0600
100100
200480
4FE440
480440
880420
880420
880720
880420
880420
8FF420
400440
400440
200480
100500
0C0600
03F800
ENDCHAR
STARTCHAR 3271
ENCODING 12913
SWIDTH 990 0
DWIDTH 22 0
BBX 19 18 2 -2
BITMAP
03F800
0C0600
100100
200480
4FC440
404440
804420
8FC420
880720
880420
880420
880420
4FF440
400440
200480
100500
0C0600
03F800
ENDCHAR
STARTCHAR 3272
ENCODING 12914
SWIDTH 990 0
DWIDTH 22 0
BBX 19 19 2 -3
BITMAP
03F800
0E0E00
180300
200480
4FC4C0
4FC440
884420
884420
884720
884720
884420
8FC420
8FC460
400440
6004C0
200480
180300
0E0E00
03F800
ENDCHAR
STARTCHAR 3273
ENCODING 12915
SWIDTH 990 0
DWIDTH 22 0
BBX 19 18 2 -2
BITMAP
03F800
0C0600
100100
200480
484440
484440
884420
8FC420
884720
884720
884420
884420
4FC440
400440
200480
100500
0C0600
03F800
ENDCHAR
STARTCHAR 3274
ENCODING 12916
SWIDTH 990 0
DWIDTH 22 0
BBX 19 19 2 -3
BITMAP
03F800
0E0E00
180300
200880
6208C0
420840
820860
820820
820E20
850E20
850820
888820
906820
400840
400840
200880
100900
0C0600
03F800
ENDCHAR
STARTCHAR 3275
ENCODING 12917
SWIDTH 990 0
DWIDTH 22 0
BBX 19 19 2 -3
BITMAP
03F800
0E0E00
180300
200480
4704C0
488440
90C420
904720
904720
904420
90C420
888420
870460
400440
6004C0
200480
180300
0E0E00
03F800
ENDCHAR
STARTCHAR 3276
ENCODING 12918
SWIDTH 990 0
DWIDTH 22 0
BBX 19 19 2 -3
BITMAP
03F800
0E0E00
180300
200080
5FE4C0
5FE440
810420
810420
810720
830720
828420
86C420
886460
502440
6004C0
200480
180700
0E0E00
03F800
ENDCHAR
STARTCHAR 3277
ENCODING 12919
SWIDTH 990 0
DWIDTH 22 0
BBX 19 19 2 -3
BITMAP
03F800
0E0E00
180300
200480
6104C0
410440
9FE460
810420
810720
810720
828420
86C420
986420
400440
400440
200480
100100
0C0600
03F800
ENDCHAR
STARTCHAR 3278
ENCODING 12920
SWIDTH 990 0
DWIDTH 22 0
BBX 19 19 2 -3
BITMAP
03F800
0E0E00
180300
200080
5FC4C0
5FC440
804420
804420
9F8420
808720
810720
830420
860460
4C0440
6004C0
200480
180700
0E0E00
03F800
ENDCHAR
STARTCHAR 3279
ENCODING 12921
SWIDTH 990 0
DWIDTH 22 0
BBX 19 19 2 -3
BITMAP
03F800
0E0E00
180300
200080
4FE4C0
4FE440
880420
880420
8FC720
8FC720
880420
880420
8FF460
400440
6004C0
200480
180700
0E0E00
03F800
ENDCHAR
STARTCHAR 327A
ENCODING 12922
SWIDTH 990 0
DWIDTH 22 0
BBX 19 18 2 -2
BITMAP
03F800
0C0600
100100
200480
4FE440
400440
848420
848420
848720
848720
848420
9FF420
400440
400440
200480
100500
0C0600
03F800
ENDCHAR
STARTCHAR 327B
ENCODING 12923
SWIDTH 990 0
DWIDTH 22 0
BBX 19 18 2 -2
BITMAP
03F800
0C0600
100100
210480
410440
5FE440
800420
878420
8CC720
884720
884420
8CC420
478440
400440
200480
100500
0C0600
03F800
ENDCHAR
STARTCHAR 327E
ENCODING 12926
SWIDTH 990 0
DWIDTH 22 0
BBX 19 19 2 -3
BITMAP
03F800
0E0E00
180300
200080
61F0C0
47FC40
860C20
87FC20
81F820
800020
9FFF20
9FFF20
80C020
40C040
40C0C0
20C080
180300
0E0E00
03F800
ENDCHAR
STARTCHAR 327F
ENCODING 12927
SWIDTH 990 0
DWIDTH 22 0
BBX 18 18 2 -2
BITMAP
03F000
0FFC00
1C0600
300300
600180
600080
4330C0
C36000
C3C000
FBCFC0
036040
032040
0330C0
600080
300180
380700
0FFE00
03F800
ENDCHAR
STARTCHAR 3380
ENCODING 13184
SWIDTH 990 0
DWIDTH 22 0
BBX 19 20 2 -4
BITMAP
000600
000600
000600
000F00
000F00
DE0900
E30900
C19980
C19980
C19080
C19F80
C190C0
C1B0C0
E3B040
FF2040
DE2060
C00000
C00000
C00000
C00000
ENDCHAR
STARTCHAR 3381
ENCODING 13185
SWIDTH 990 0
DWIDTH 22 0
BBX 18 16 2 0
BITMAP
000C00
000C00
000C00
001E00
001E00
DC1200
E61200
C63300
C63300
C62100
C63F00
C62180
C66180
C66080
C64080
C640C0
ENDCHAR
STARTCHAR 3382
ENCODING 13186
SWIDTH 990 0
DWIDTH 22 0
BBX 20 19 1 -3
BITMAP
000300
000300
000700
000780
000780
30C480
30CC80
308CC0
208CC0
208840
219FC0
619860
619860
619020
77B020
5D3030
400000
400000
C00000
ENDCHAR
STARTCHAR 3383
ENCODING 13187
SWIDTH 990 0
DWIDTH 22 0
BBX 20 16 2 0
BITMAP
000300
000300
000700
000780
000780
F70480
D98C80
D98CC0
D98CC0
D98840
D99FC0
D99860
D99860
D99020
D9B020
D9B030
ENDCHAR
STARTCHAR 3384
ENCODING 13188
SWIDTH 990 0
DWIDTH 22 0
BBX 17 16 3 0
BITMAP
C01800
C01800
C01800
C03C00
C03C00
CC2400
C82400
D86600
D06600
F04200
F07E00
F0C300
D8C300
D8C100
CC8100
C48180
ENDCHAR
STARTCHAR 3388
ENCODING 13192
SWIDTH 990 0
DWIDTH 22 0
BBX 19 16 2 0
BITMAP
0001C0
0001C0
0000C0
0000C0
0820C0
7CF8C0
600CC0
C00CC0
C00CC0
C03CC0
C0CCC0
C18CC0
C18CC0
C18CC0
7DFDE0
3CEDE0
ENDCHAR
STARTCHAR 3389
ENCODING 13193
SWIDTH 990 0
DWIDTH 22 0
BBX 20 16 1 0
BITMAP
C000E0
C000E0
C00060
C00060
C00060
D9FE60
D20360
F60360
F60360
E60F60
E61F60
E63360
F63360
F63360
DBFFF0
DBDBF0
ENDCHAR
STARTCHAR 338A
ENCODING 13194
SWIDTH 990 0
DWIDTH 22 0
BBX 17 20 2 -4
BITMAP
003F80
003F80
003000
003000
003000
DE3000
E33000
C1BF80
C1BF80
C1B000
C1B000
C1B000
C1B000
E3B000
FF3000
DE3000
C00000
C00000
C00000
C00000
ENDCHAR
STARTCHAR 338B
ENCODING 13195
SWIDTH 990 0
DWIDTH 22 0
BBX 17 16 2 0
BITMAP
003F80
003F80
003000
003000
003000
DE3000
E73000
C33F80
C33F80
C33000
C33000
C33000
C33000
C33000
C33000
C33000
ENDCHAR
STARTCHAR 338C
ENCODING 13196
SWIDTH 990 0
DWIDTH 22 0
BBX 19 19 1 -3
BITMAP
000FE0
000FE0
000C00
000C00
000C00
30CC00
30CC00
30CFE0
30CFE0
20CC00
208C00
608C00
618C00
618C00
738C00
5D8C00
400000
400000
C00000
ENDCHAR
STARTCHAR 338D
ENCODING 13197
SWIDTH 990 0
DWIDTH 22 0
BBX 20 15 0 -4
BITMAP
30C7B0
30CC70
309C30
209830
209830
219830
619830
619830
619C70
770EF0
5D07B0
400030
400070
C00FE0
000FC0
ENDCHAR
STARTCHAR 338E
ENCODING 13198
SWIDTH 990 0
DWIDTH 22 0
BBX 19 15 1 -4
BITMAP
F70F60
D998E0
D9B860
D9B060
D9B060
D9B060
D9B060
D9B060
D9B8E0
D99FE0
D98F60
000060
0000C0
001FC0
000F80
ENDCHAR
STARTCHAR 338F
ENCODING 13199
SWIDTH 990 0
DWIDTH 22 0
BBX 19 20 2 -4
BITMAP
C00000
C00000
C00000
C00000
C00000
C21F60
C430E0
CC7060
D86060
F06060
F06060
D86060
C86060
C470E0
C63FE0
C31F60
000060
0000C0
003FC0
001F00
ENDCHAR
STARTCHAR 3390
ENCODING 13200
SWIDTH 990 0
DWIDTH 22 0
BBX 18 16 2 0
BITMAP
C18000
C18000
C18000
C18000
C18000
C1BFC0
C1BF80
FF8180
FF8100
C18200
C18600
C18400
C18800
C19000
C1BFC0
C1BFC0
ENDCHAR
STARTCHAR 3391
ENCODING 13201
SWIDTH 990 0
DWIDTH 22 0
BBX 19 16 1 0
BITMAP
C19800
C19800
C19800
C19800
C19800
CD9BE0
C99BE0
D9F840
D1F8C0
F19880
F19880
F19980
D99900
D99900
CD9BE0
CD9BE0
ENDCHAR
STARTCHAR 3392
ENCODING 13202
SWIDTH 990 0
DWIDTH 22 0
BBX 20 16 1 0
BITMAP
82CC00
86CC00
C6CC00
C6CC00
C6CC00
C6CDF0
E6CDF0
EAFC20
AAFC60
AACC40
AACC40
BACCC0
BACC80
92CC80
92CDF0
92CDF0
ENDCHAR
STARTCHAR 3393
ENCODING 13203
SWIDTH 990 0
DWIDTH 22 0
BBX 20 16 1 0
BITMAP
1CCC00
7CCC00
60CC00
40CC00
C0CDF0
C0CDF0
C0CC20
C0FC20
CCFC60
CCCC40
C4CC40
C4CC80
C4CC80
44CD80
7CCDF0
3CCDF0
ENDCHAR
STARTCHAR 3394
ENCODING 13204
SWIDTH 990 0
DWIDTH 22 0
BBX 20 16 1 0
BITMAP
FF8C00
FF8C00
318C00
318C00
318C00
318DF0
318DF0
31FC20
31FC60
318C40
318CC0
318CC0
318D80
318D80
318FF0
318FF0
ENDCHAR
STARTCHAR 3395
ENCODING 13205
SWIDTH 990 0
DWIDTH 22 0
BBX 19 19 1 -3
BITMAP
0003C0
0007E0
000660
000E60
000C60
304C60
30CCC0
30CCC0
20CC80
20CD80
20CF00
608E00
618C00
619E00
738260
5D81E0
400000
400000
C00000
ENDCHAR
STARTCHAR 3396
ENCODING 13206
SWIDTH 990 0
DWIDTH 22 0
BBX 18 16 2 0
BITMAP
000780
000FC0
000CC0
0018C0
0018C0
F718C0
D99880
D99980
D99900
D99B00
D99E00
D99C00
D99800
D9BC00
D98FC0
D983C0
ENDCHAR
STARTCHAR 3397
ENCODING 13207
SWIDTH 990 0
DWIDTH 22 0
BBX 18 16 2 0
BITMAP
018780
018CC0
018CC0
0188C0
1998C0
7D98C0
6399C0
E19980
C19980
C19B00
C19A00
C19E00
C19C00
C1BC00
638C80
3D8780
ENDCHAR
STARTCHAR 3398
ENCODING 13208
SWIDTH 990 0
DWIDTH 22 0
BBX 18 16 3 0
BITMAP
C00780
C00CC0
C018C0
C018C0
C030C0
C230C0
C631C0
CC3180
D83380
F03300
F03600
F03C00
D83800
CC7800
C61F80
C30780
ENDCHAR
STARTCHAR 3399
ENCODING 13209
SWIDTH 990 0
DWIDTH 22 0
BBX 19 16 2 0
BITMAP
1C0000
3C0000
600000
600000
600000
FB79C0
FBFBE0
630C60
630C60
630C60
630C60
630C60
630C60
630C60
630C60
630C60
ENDCHAR
STARTCHAR 339A
ENCODING 13210
SWIDTH 990 0
DWIDTH 22 0
BBX 18 11 2 0
BITMAP
DC7DC0
EE66C0
C666C0
C666C0
C666C0
C666C0
C666C0
C666C0
C666C0
C666C0
C666C0
ENDCHAR
STARTCHAR 339B
ENCODING 13211
SWIDTH 990 0
DWIDTH 22 0
BBX 20 14 0 -3
BITMAP
30DEE0
30DB30
309B30
209B30
209B30
219B30
619B30
619B30
619B30
771B30
5D1B30
400000
400000
C00000
ENDCHAR
STARTCHAR 339C
ENCODING 13212
SWIDTH 990 0
DWIDTH 22 0
BBX 20 11 1 0
BITMAP
F71EE0
D99B30
D99B30
D99B30
D99B30
D99B30
D99B30
D99B30
D99B30
D99B30
D99B30
ENDCHAR
STARTCHAR 339D
ENCODING 13213
SWIDTH 990 0
DWIDTH 22 0
BBX 17 12 2 0
BITMAP
08D300
7CFF80
60D980
C0D980
C0D980
C0D980
C0D980
C0D980
C0D980
C0D980
7CD980
3CD980
ENDCHAR
STARTCHAR 339E
ENCODING 13214
SWIDTH 990 0
DWIDTH 22 0
BBX 19 16 1 0
BITMAP
C00000
C00000
C00000
C00000
C00000
CDB9C0
C9CE60
D98C60
D18C60
F18C60
F18C60
F18C60
D98C60
D98C60
CD8C60
C58C60
ENDCHAR
STARTCHAR 339F
ENCODING 13215
SWIDTH 990 0
DWIDTH 22 0
BBX 20 16 1 0
BITMAP
000070
000010
000030
000020
000070
FE7F00
924900
924900
924900
924900
924900
924900
924900
924900
924900
924900
ENDCHAR
STARTCHAR 33A0
ENCODING 13216
SWIDTH 990 0
DWIDTH 22 0
BBX 19 16 2 0
BITMAP
0000E0
000020
000060
0000C0
1348E0
7BFE00
436600
C36600
C36600
C36600
C36600
C36600
C36600
C36600
7B6600
7B6600
ENDCHAR
STARTCHAR 33A1
ENCODING 13217
SWIDTH 990 0
DWIDTH 22 0
BBX 17 16 3 0
BITMAP
000380
000080
000180
000100
000380
DCE000
E57000
C63000
C63000
C63000
C63000
C63000
C63000
C63000
C63000
C63000
ENDCHAR
STARTCHAR 33A2
ENCODING 13218
SWIDTH 990 0
DWIDTH 22 0
BBX 19 16 2 0
BITMAP
C000E0
C00020
C00060
C00040
C000E0
DBDC00
DB6600
D36600
D36600
F36600
E36600
F36600
D36600
D36600
DB6600
DB6600
ENDCHAR
STARTCHAR 33A3
ENCODING 13219
SWIDTH 990 0
DWIDTH 22 0
BBX 20 16 1 0
BITMAP
000070
000010
000060
000010
000070
FE7F00
924900
924900
924900
924900
924900
924900
924900
924900
924900
924900
ENDCHAR
STARTCHAR 33A4
ENCODING 13220
SWIDTH 990 0
DWIDTH 22 0
BBX 20 16 2 0
BITMAP
000070
000010
000060
000010
132470
7BFE00
433600
C33600
C33600
C33600
C33600
C33600
C33600
C33600
7B3600
7B3600
ENDCHAR
STARTCHAR 33A5
ENCODING 13221
SWIDTH 990 0
DWIDTH 22 0
BBX 16 16 4 0
BITMAP
0007
0001
0006
0001
0007
DCE0
E570
C630
C630
C630
C630
C630
C630
C630
C630
C630
ENDCHAR
STARTCHAR 33A6
ENCODING 13222
SWIDTH 990 0
DWIDTH 22 0
BBX 19 16 2 0
BITMAP
C000E0
C00020
C000C0
C00020
C000E0
D7DC00
D66600
D66600
E66600
E66600
E66600
E66600
F66600
D66600
D66600
D66600
ENDCHAR
STARTCHAR 33A7
ENCODING 13223
SWIDTH 990 0
DWIDTH 22 0
BBX 20 18 1 -2
BITMAP
F70800
D98800
D98800
D98800
D988C0
D99BE0
D99200
D99600
D99200
D99380
D991E0
001070
003030
002030
0027F0
0023C0
002000
002000
ENDCHAR
STARTCHAR 33A8
ENCODING 13224
SWIDTH 990 0
DWIDTH 22 0
BBX 20 19 1 -3
BITMAP
003070
003010
002030
002020
002070
FE2F00
926800
927800
924800
924C00
924700
924180
92C180
92C180
92DF80
929F00
008000
008000
008000
ENDCHAR
STARTCHAR 33A9
ENCODING 13225
SWIDTH 990 0
DWIDTH 22 0
BBX 18 16 2 0
BITMAP
FE0000
FF0000
C38000
C18000
C18600
C19F80
C1B1C0
C300C0
FF00C0
FC07C0
C03CC0
C060C0
C060C0
C061C0
C07FC0
C03EC0
ENDCHAR
STARTCHAR 33AA
ENCODING 13226
SWIDTH 990 0
DWIDTH 22 0
BBX 18 16 2 0
BITMAP
C3C000
C3E000
C33000
C33000
C33000
DB3780
D330C0
D330C0
D3E0C0
F3C3C0
E307C0
F30CC0
D30CC0
D30CC0
DB0FC0
DB06C0
ENDCHAR
STARTCHAR 33AB
ENCODING 13227
SWIDTH 990 0
DWIDTH 22 0
BBX 20 16 1 0
BITMAP
82F000
86F800
C6DC00
C6CC00
C6CCC0
C6CDE0
EECC30
EACC30
AAF830
AAF0F0
AAC1B0
BAC330
9AC330
92C330
92C3F0
92C1B0
ENDCHAR
STARTCHAR 33AC
ENCODING 13228
SWIDTH 990 0
DWIDTH 22 0
BBX 19 16 1 0
BITMAP
1DE000
7DF000
61B800
419800
C19980
C19BE0
C19860
C19860
CDF060
CDE0E0
C58360
C58460
C58460
458460
7D87E0
3D8360
ENDCHAR
STARTCHAR 33AD
ENCODING 13229
SWIDTH 990 0
DWIDTH 22 0
BBX 19 16 2 0
BITMAP
000060
000060
000060
000060
000060
DBC760
FBE7E0
C06C60
C06C60
C0EC60
C36C60
C66C60
C66C60
C66C60
C7E7E0
C36760
ENDCHAR
STARTCHAR 33AE
ENCODING 13230
SWIDTH 990 0
DWIDTH 22 0
BBX 20 19 1 -3
BITMAP
000900
000900
000900
000900
000B00
EC6A60
C2DA80
828A80
828A80
8E8AC0
9A8A60
928A30
928A10
928A10
969E30
9A6CE0
000400
000400
000400
ENDCHAR
STARTCHAR 33AF
ENCODING 13231
SWIDTH 990 0
DWIDTH 22 0
BBX 20 20 1 -3
BITMAP
000070
000910
000910
000920
000970
000B00
EC6B60
C2DA80
828A80
828A80
8E8AC0
9A8A60
928A30
928A10
928A10
969E30
9A6CE0
000400
000400
000400
ENDCHAR
STARTCHAR 33B0
ENCODING 13232
SWIDTH 990 0
DWIDTH 22 0
BBX 18 15 2 -4
BITMAP
DE07C0
E31840
C19800
C19800
C18C00
C18700
C18180
C180C0
E380C0
FF1FC0
DE0F00
C00000
C00000
C00000
C00000
ENDCHAR
STARTCHAR 33B1
ENCODING 13233
SWIDTH 990 0
DWIDTH 22 0
BBX 18 11 2 0
BITMAP
DE0F80
E71880
C33000
C33000
C31C00
C30F00
C30180
C300C0
C300C0
C33F80
C31F00
ENDCHAR
STARTCHAR 33B2
ENCODING 13234
SWIDTH 990 0
DWIDTH 22 0
BBX 18 14 1 -3
BITMAP
30C7C0
309840
309800
209800
218C00
218700
6181C0
6180C0
6180C0
771B80
5D1F00
400000
400000
C00000
ENDCHAR
STARTCHAR 33B3
ENCODING 13235
SWIDTH 990 0
DWIDTH 22 0
BBX 17 11 3 0
BITMAP
F70780
D98800
D99800
D99800
D98C00
D98700
D98180
D98180
D99180
D99F80
D98F00
ENDCHAR
STARTCHAR 33B4
ENCODING 13236
SWIDTH 990 0
DWIDTH 22 0
BBX 19 20 2 -4
BITMAP
006060
006040
0060C0
0020C0
0030C0
DE3080
E31080
C19180
C19980
C19900
C18900
C18B00
C18F00
E38E00
F70600
DE0600
C00000
C00000
C00000
C00000
ENDCHAR
STARTCHAR 33B5
ENCODING 13237
SWIDTH 990 0
DWIDTH 22 0
BBX 18 16 3 0
BITMAP
0040C0
004080
006080
006180
002180
DE2100
E72100
C33300
C33300
C31200
C31200
C31600
C31E00
C30C00
C30C00
C30C00
ENDCHAR
STARTCHAR 33B6
ENCODING 13238
SWIDTH 990 0
DWIDTH 22 0
BBX 20 19 1 -3
BITMAP
003030
003020
001060
001860
001860
30D840
30C840
30CCC0
208CC0
208C80
208480
618580
618780
618700
738300
5D0300
400000
400000
C00000
ENDCHAR
STARTCHAR 33B7
ENCODING 13239
SWIDTH 990 0
DWIDTH 22 0
BBX 19 16 2 0
BITMAP
006060
002040
0020C0
0030C0
0030C0
F71080
D99080
D99980
D99980
D98900
D98900
D98B00
D98F00
D98600
D98600
D98600
ENDCHAR
STARTCHAR 33B8
ENCODING 13240
SWIDTH 990 0
DWIDTH 22 0
BBX 19 16 2 0
BITMAP
C06060
C06040
C02040
C030C0
C030C0
C33080
C61080
CC1180
D81980
D01900
F00900
D80900
CC0F00
CE0E00
C70600
C30600
ENDCHAR
STARTCHAR 33B9
ENCODING 13241
SWIDTH 990 0
DWIDTH 22 0
BBX 19 16 2 0
BITMAP
81E060
C1A040
C1A0C0
C3B0C0
C3B0C0
E39080
A39180
A79180
B59980
B59900
958B00
958B00
9D8A00
998E00
898600
898600
ENDCHAR
STARTCHAR 33BA
ENCODING 13242
SWIDTH 990 0
DWIDTH 22 0
BBX 18 20 2 -4
BITMAP
0080C0
008CC0
00CCC0
00CC80
C8CC80
FCCC80
EC4C80
C45D80
C65580
C65380
C67380
C67300
C47300
C43300
FC2300
D82300
C00000
C00000
C00000
C00000
ENDCHAR
STARTCHAR 33BB
ENCODING 13243
SWIDTH 990 0
DWIDTH 22 0
BBX 18 16 2 0
BITMAP
0080C0
00CCC0
00CCC0
00CC80
00CC80
DC4C80
E64C80
C64D80
C65580
C67780
C67380
C67300
C63300
C63300
C63300
C62300
ENDCHAR
STARTCHAR 33BC
ENCODING 13244
SWIDTH 990 0
DWIDTH 22 0
BBX 21 19 0 -3
BITMAP
001818
001998
001998
001990
000990
304990
30C990
30C9B0
30CEB0
20CE70
20CE70
608660
618660
618660
738660
5D8660
400000
400000
C00000
ENDCHAR
STARTCHAR 33BD
ENCODING 13245
SWIDTH 990 0
DWIDTH 22 0
BBX 20 16 2 0
BITMAP
006230
002330
002330
002320
002320
F73320
D9B720
D9B760
D9B560
D994E0
D994E0
D99CC0
D99CC0
D998C0
D998C0
D998C0
ENDCHAR
STARTCHAR 33BE
ENCODING 13246
SWIDTH 990 0
DWIDTH 22 0
BBX 18 16 3 0
BITMAP
C108C0
C198C0
C198C0
C19880
C09880
CC9C80
D89C80
D89D80
F0A580
F0E580
E0E580
F0E700
D86700
D86300
CC6300
CC4300
ENDCHAR
STARTCHAR 33BF
ENCODING 13247
SWIDTH 990 0
DWIDTH 22 0
BBX 19 16 2 0
BITMAP
86C460
86C460
C64440
C64640
C64640
C64E40
EA4AC0
AA6AC0
AA6AC0
AA6A80
AA3980
BA3980
B23180
923180
923180
923180
ENDCHAR
STARTCHAR 33C0
ENCODING 13248
SWIDTH 990 0
DWIDTH 22 0
BBX 17 16 3 0
BITMAP
C03C00
C07E00
C0C300
C0C300
C18180
CD8180
C98180
D98180
D18180
F18180
F18180
F18180
D88300
D8C200
C9E780
CDE780
ENDCHAR
STARTCHAR 33C1
ENCODING 13249
SWIDTH 990 0
DWIDTH 22 0
BBX 19 16 2 0
BITMAP
830780
C31FC0
C318C0
C338E0
C33060
E73060
E53060
A53060
A53060
AD3060
B93060
993040
9910C0
991880
993DE0
813DE0
ENDCHAR
STARTCHAR 33C2
ENCODING 13250
SWIDTH 990 0
DWIDTH 22 0
BBX 20 12 1 0
BITMAP
302900
7C3F80
4C2480
0C2480
0C2480
1C2480
7C2480
CC2480
CC2480
CC2480
FC2480
6F24B0
ENDCHAR
STARTCHAR 33C3
ENCODING 13251
SWIDTH 990 0
DWIDTH 22 0
BBX 18 20 2 -4
BITMAP
FC0000
FE0000
C30000
C30000
C30000
C31EC0
C631C0
FC70C0
FE60C0
C760C0
C360C0
C360C0
C360C0
C761C0
FE31C0
FC1EC0
0000C0
0000C0
0000C0
0000C0
ENDCHAR
STARTCHAR 33C4
ENCODING 13252
SWIDTH 990 0
DWIDTH 22 0
BBX 19 12 2 0
BITMAP
0701C0
3F8FE0
701C00
603800
C03000
C03000
C03000
C03000
E03000
601800
7F9FE0
1F07C0
ENDCHAR
STARTCHAR 33C5
ENCODING 13253
SWIDTH 990 0
DWIDTH 22 0
BBX 19 16 2 0
BITMAP
000060
000060
000060
000060
070660
3F9FE0
7018E0
603060
C03060
C03060
C03060
C03060
E03060
6038E0
7F9FE0
1F0F60
ENDCHAR
STARTCHAR 33C6
ENCODING 13254
SWIDTH 990 0
DWIDTH 22 0
BBX 21 20 1 -4
BITMAP
38F000
78B000
60B000
C0B000
C0B000
C1B6F8
C1B498
C13598
C13598
C13998
C13998
C33D98
C33598
423598
7A35F8
3A36D8
020018
060018
000130
0001E0
ENDCHAR
STARTCHAR 33C7
ENCODING 13255
SWIDTH 990 0
DWIDTH 22 0
BBX 21 16 1 0
BITMAP
0F8000
3F8000
700000
600000
E00200
C00FC0
C018C0
C03060
C03060
C03060
C03060
E03060
603060
7018C0
3F9FC8
1F8F98
ENDCHAR
STARTCHAR 33C8
ENCODING 13256
SWIDTH 990 0
DWIDTH 22 0
BBX 19 16 2 0
BITMAP
019F80
019FC0
0198E0
019860
199860
7D9860
6398E0
E19FC0
C19F80
C198C0
C19860
C19860
C19860
C19860
639FC0
3D9F80
ENDCHAR
STARTCHAR 33C9
ENCODING 13257
SWIDTH 990 0
DWIDTH 22 0
BBX 19 20 2 -4
BITMAP
0F8000
3F8000
700000
600000
E00000
C01860
C01860
C79840
C788C0
C18CC0
C18C80
C18580
618780
618700
3F8300
1F0300
000600
000600
000C00
001C00
ENDCHAR
STARTCHAR 33CA
ENCODING 13258
SWIDTH 990 0
DWIDTH 22 0
BBX 19 16 2 0
BITMAP
C00000
C00000
C00000
C00000
C40300
DF1FC0
E398E0
E18060
C18060
C181E0
C19F60
C1B060
C1B060
C1B0E0
C1BFE0
C19F60
ENDCHAR
STARTCHAR 33CF
ENCODING 13263
SWIDTH 990 0
DWIDTH 22 0
BBX 17 16 3 0
BITMAP
C00000
C00400
C00C00
C00C00
C00C00
C33F80
C63F80
CC0C00
D80C00
D00C00
F00C00
D80C00
DC0C00
CE0C00
C60F80
C30780
ENDCHAR
STARTCHAR 33D0
ENCODING 13264
SWIDTH 990 0
DWIDTH 22 0
BBX 19 16 2 0
BITMAP
E00000
E00000
600000
600000
600000
6379C0
639A60
630C60
630C60
630C60
630C60
630C60
630C60
630C60
F30C60
F30C60
ENDCHAR
STARTCHAR 33D3
ENCODING 13267
SWIDTH 990 0
DWIDTH 22 0
BBX 17 16 3 0
BITMAP
F00000
F00000
300000
300000
300000
30C180
30C300
306600
303600
301C00
301800
303C00
302600
306600
FCC300
FCC180
ENDCHAR
STARTCHAR 33D6
ENCODING 13270
SWIDTH 990 0
DWIDTH 22 0
BBX 20 16 2 0
BITMAP
0000E0
0000E0
000060
000060
000060
FE3C60
926660
92C360
92C360
92C360
92C360
92C360
92C360
92E760
927EF0
923CF0
ENDCHAR
STARTCHAR 33D8
ENCODING 13272
SWIDTH 990 0
DWIDTH 22 0
BBX 20 16 2 -4
BITMAP
C82900
FC3F80
EE2480
C62480
C62480
C62480
C62480
C62480
C62480
C62480
FCA480
DDA4B0
C00000
C00000
C00000
C00000
ENDCHAR
STARTCHAR 33DB
ENCODING 13275
SWIDTH 990 0
DWIDTH 22 0
BBX 17 12 3 0
BITMAP
183300
7E3F80
C03800
C03000
C03000
703000
3C3000
0E3000
063000
063000
FC3000
783000
ENDCHAR
STARTCHAR 33DC
ENCODING 13276
SWIDTH 990 0
DWIDTH 22 0
BBX 20 16 1 0
BITMAP
3F0000
7F0000
E00000
C00000
C00000
C03030
603020
381060
1E1860
0718C0
038CC0
018C80
018580
038780
FF0700
7E0300
ENDCHAR
STARTCHAR 33DD
ENCODING 13277
SWIDTH 990 0
DWIDTH 22 0
BBX 20 16 1 0
BITMAP
C45800
C45800
CCD800
4CD800
4CD980
4CDBE0
4C9C60
4E9830
6A9830
729830
739830
339830
339830
331C60
311FE0
311BC0
ENDCHAR
STARTCHAR AC00
ENCODING 44032
SWIDTH 990 0
DWIDTH 22 0
BBX 18 20 3 -4
BITMAP
000600
FF8600
FF8600
018600
018600
010600
010600
030600
0207C0
0607C0
0C0600
180600
300600
E00600
C00600
000600
000600
000600
000600
000600
ENDCHAR
STARTCHAR AC01
ENCODING 44033
SWIDTH 990 0
DWIDTH 22 0
BBX 19 20 2 -5
BITMAP
7FC300
7FC300
00C300
008300
018300
0103E0
0303E0
060300
1C0300
300300
E00300
000000
3FFF00
3FFF00
000300
000300
000300
000300
000300
000300
ENDCHAR
STARTCHAR AC02
ENCODING 44034
SWIDTH 990 0
DWIDTH 22 0
BBX 19 20 2 -4
BITMAP
7FC300
7FC300
004300
008300
008300
0103E0
0203E0
060300
180300
700300
C00300
000000
3FFF00
3FFF00
018300
018300
018300
018300
018300
018300
ENDCHAR
STARTCHAR AC03
ENCODING 44035
SWIDTH 990 0
DWIDTH 22 0
BBX 19 20 2 -4
BITMAP
7FC300
7FC300
008300
018300
018300
0303E0
0603E0
0C0300
180300
700300
C00300
000000
7F0C00
7F0C00
030C00
030C00
031E00
033300
03E1C0
030000
ENDCHAR
STARTCHAR AC04
ENCODING 44036
SWIDTH 990 0
DWIDTH 22 0
BBX 19 19 2 -4
BITMAP
7FC300
7FC300
00C300
008300
018300
010300
0303E0
0603E0
0C0300
180300
700300
C00300
000300
180300
180300
180000
180000
180000
1FFF00
ENDCHAR
STARTCHAR AC05
ENCODING 44037
SWIDTH 990 0
DWIDTH 22 0
BBX 18 20 2 -5
BITMAP
FF8600
FF8600
018600
010600
010600
0207C0
0607C0
0C0600
180600
600600
C00600
000000
61FF00
61FF00
603000
603000
607800
664800
7CCE00
718300
ENDCHAR
STARTCHAR AC06
ENCODING 44038
SWIDTH 990 0
DWIDTH 22 0
BBX 18 19 2 -3
BITMAP
FFC600
FFC600
00C600
018600
0187C0
0307C0
060600
0C0600
380600
F00600
C00600
001800
001800
61FF00
600000
607E00
60C300
60C300
7E7E00
ENDCHAR
STARTCHAR AC07
ENCODING 44039
SWIDTH 990 0
DWIDTH 22 0
BBX 19 20 2 -4
BITMAP
7FC300
7FC300
00C300
008300
018300
0103E0
0303E0
060300
1C0300
700300
E00300
000000
1FFF00
1FFF00
180000
180000
180000
180000
1FFF00
1FFF00
ENDCHAR
STARTCHAR AC08
ENCODING 44040
SWIDTH 990 0
DWIDTH 22 0
BBX 19 20 2 -4
BITMAP
7FC300
7FC300
00C300
018300
0183E0
0303E0
060300
0C0300
380300
E00300
000000
1FFF00
1FFF00
000300
1FFF00
1FFF00
180000
180000
1FFF00
1FFF00
ENDCHAR
STARTCHAR AC09
ENCODING 44041
SWIDTH 990 0
DWIDTH 22 0
BBX 19 20 2 -4
BITMAP
7FC300
7FC300
00C300
008300
0183E0
0303E0
060300
0C0300
380300
E00300
000000
3FBF00
3FBF00
018300
3F8300
3F8300
300300
300300
3F8300
380300
ENDCHAR
STARTCHAR AC0A
ENCODING 44042
SWIDTH 990 0
DWIDTH 22 0
BBX 19 20 2 -4
BITMAP
7FC300
7FC300
00C300
008300
0183E0
0303E0
060300
0C0300
380300
E00300
000000
3F7F00
3F7F00
036300
3F6300
3F6300
306300
306300
3FFF00
3E7F00
ENDCHAR
STARTCHAR AC0B
ENCODING 44043
SWIDTH 990 0
DWIDTH 22 0
BBX 19 19 2 -4
BITMAP
7FC300
7FC300
00C300
00C300
0183E0
0303E0
070300
0E0300
1C0300
700300
C00300
000000
7F6300
7F6300
037F00
7F7F00
7F6300
606300
7F7F00
ENDCHAR
STARTCHAR AC0C
ENCODING 44044
SWIDTH 990 0
DWIDTH 22 0
BBX 19 20 2 -4
BITMAP
7FC300
7FC300
008300
018300
018300
0303E0
0603E0
0C0300
180300
700300
C00300
000000
7F0C00
7F0C00
030C00
7F0C00
7F1E00
603300
7F6380
7F4000
ENDCHAR
STARTCHAR AC0D
ENCODING 44045
SWIDTH 990 0
DWIDTH 22 0
BBX 18 19 2 -3
BITMAP
FFC600
FF8600
008600
018600
0107C0
0307C0
060600
0C0600
380600
E00600
C00600
000000
7F7E00
7F7E00
7F7E00
7F7E00
606000
7F7F00
7F7F00
ENDCHAR
STARTCHAR AC0E
ENCODING 44046
SWIDTH 990 0
DWIDTH 22 0
BBX 19 20 2 -4
BITMAP
7FC300
7FC300
00C300
018300
018300
0303E0
0603E0
0E0300
180300
700300
C00300
000000
7FFF00
7FFF00
033200
7F3200
7F3200
603200
7FFF00
7FFF00
ENDCHAR
STARTCHAR AC0F
ENCODING 44047
SWIDTH 990 0
DWIDTH 22 0
BBX 19 20 2 -4
BITMAP
7FC300
7FC300
008300
018300
018300
0303E0
0603E0
0C0300
180300
700300
C00300
001800
7F1800
7FFF00
031800
7F7E00
7FC300
60C300
7FFF00
7F3E00
ENDCHAR
STARTCHAR AC10
ENCODING 44048
SWIDTH 990 0
DWIDTH 22 0
BBX 19 20 2 -4
BITMAP
7FC300
7FC300
00C300
008300
018300
0183E0
0303E0
060300
1C0300
380300
E00300
000000
1FFF00
1FFF00
180300
180300
180300
180300
1FFF00
1FFF00
ENDCHAR
STARTCHAR AC11
ENCODING 44049
SWIDTH 990 0
DWIDTH 22 0
BBX 19 19 2 -4
BITMAP
7FC300
7FC300
00C300
008300
0183E0
0303E0
070300
0E0300
380300
F00300
000000
180300
180300
180300
1FFF00
1FFF00
180300
180300
1FFF00
ENDCHAR
STARTCHAR AC12
ENCODING 44050
SWIDTH 990 0
DWIDTH 22 0
BBX 19 19 2 -4
BITMAP
7FC300
7FC300
00C300
008300
0183E0
0303E0
060300
0C0300
380300
E00300
000000
318400
318400
318400
3F8C00
3F8E00
319B00
31B180
3FA0C0
ENDCHAR
STARTCHAR AC13
ENCODING 44051
SWIDTH 990 0
DWIDTH 22 0
BBX 19 19 2 -4
BITMAP
7FC300
7FC300
00C300
018300
018300
030300
0303E0
0603E0
1C0300
300300
E00300
00C300
00C300
01E000
01E000
033000
061800
1C0E00
700380
ENDCHAR
STARTCHAR AC14
ENCODING 44052
SWIDTH 990 0
DWIDTH 22 0
BBX 19 20 2 -4
BITMAP
7FC300
7FC300
00C300
008300
018300
0103E0
0303E0
060300
0C0300
380300
E00300
000000
060C00
060C00
060C00
0F1E00
199200
38B180
7060C0
004000
ENDCHAR
STARTCHAR AC15
ENCODING 44053
SWIDTH 990 0
DWIDTH 22 0
BBX 19 21 1 -5
BITMAP
7FE300
7FC300
004300
00C300
00C300
018300
0183E0
0303E0
060300
0C0300
380300
E00300
006000
07FE00
0E0700
180180
180180
180180
0E0700
07FE00
007000
ENDCHAR
STARTCHAR AC16
ENCODING 44054
SWIDTH 990 0
DWIDTH 22 0
BBX 19 19 2 -4
BITMAP
7FC300
7FC300
00C300
008300
018300
0103E0
0303E0
060300
1C0300
700300
C00300
000000
3FFF00
3FFF00
00C000
01E000
033000
0E1C00
780780
ENDCHAR
STARTCHAR AC17
ENCODING 44055
SWIDTH 990 0
DWIDTH 22 0
BBX 19 20 2 -4
BITMAP
7FC300
7FC300
01C300
018300
0183E0
0303E0
060300
0E0300
380300
F00300
C0C300
00C000
3FFF00
3FFF00
00E000
01E000
033000
0E1C00
780780
200100
ENDCHAR
STARTCHAR AC18
ENCODING 44056
SWIDTH 990 0
DWIDTH 22 0
BBX 19 20 2 -4
BITMAP
7FC300
7FC300
00C300
008300
018300
0303E0
0203E0
0E0300
180300
700300
C00300
000000
3FFF00
3FFF00
000300
3FFF00
3FFF00
000300
000300
000300
ENDCHAR
STARTCHAR AC19
ENCODING 44057
SWIDTH 990 0
DWIDTH 22 0
BBX 19 20 2 -4
BITMAP
7FC300
7FC300
00C300
008300
0183E0
0303E0
060300
0E0300
180300
700300
C00300
1FFF00
1FFF00
180000
1FFE00
1FFE00
180000
180000
1FFF00
1FFF00
ENDCHAR
STARTCHAR AC1A
ENCODING 44058
SWIDTH 990 0
DWIDTH 22 0
BBX 19 20 2 -4
BITMAP
7FC300
7FC300
00C300
008300
0183E0
0303E0
070300
0E0300
3C0300
700300
E00300
000000
3FFF00
3FFF00
060C00
060C00
060C00
060C00
3FFF80
3FFF80
ENDCHAR
STARTCHAR AC1B
ENCODING 44059
SWIDTH 990 0
DWIDTH 22 0
BBX 19 20 2 -4
BITMAP
7FC300
7FC300
00C300
018300
0383E0
0303E0
0E0300
1C0300
F80300
E0C300
00C000
3FFF00
000000
01E000
0FFC00
1C0E00
180600
1C0E00
0FFC00
01E000
ENDCHAR
STARTCHAR AC1C
ENCODING 44060
SWIDTH 990 0
DWIDTH 22 0
BBX 17 20 2 -4
BITMAP
001980
7F9980
7F9980
019980
019980
019980
031980
031980
061F80
061F80
0C1980
181980
301980
601980
C01980
001980
001980
001980
001980
000180
ENDCHAR
STARTCHAR AC1D
ENCODING 44061
SWIDTH 990 0
DWIDTH 22 0
BBX 16 21 3 -5
BITMAP
FF33
FF33
0333
0333
0233
0633
0C3F
0C3F
1833
3033
E033
8033
0000
3FFF
3FFF
0003
0003
0003
0003
0003
0003
ENDCHAR
STARTCHAR AC1E
ENCODING 44062
SWIDTH 990 0
DWIDTH 22 0
BBX 17 20 2 -5
BITMAP
7F9980
7F9980
019980
011980
031980
031F80
061F80
0C1980
1C1980
301980
E01980
401980
000000
1FFF80
1FFF80
00C180
00C180
00C180
00C180
00C180
ENDCHAR
STARTCHAR AC1F
ENCODING 44063
SWIDTH 990 0
DWIDTH 22 0
BBX 19 21 2 -5
BITMAP
7F9980
7F9980
019980
031980
031980
071F80
061F80
0C1980
181980
301980
E01980
401980
000000
3F8600
3F8600
018600
018600
018F00
019980
01F0E0
018000
ENDCHAR
STARTCHAR AC20
ENCODING 44064
SWIDTH 990 0
DWIDTH 22 0
BBX 18 19 2 -4
BITMAP
7F9980
7F9980
019980
019980
011980
031980
021F80
061F80
0C1980
181980
701980
E01980
001980
0C1980
0C0000
0C0000
0C0000
0C0000
0FFFC0
ENDCHAR
STARTCHAR AC21
ENCODING 44065
SWIDTH 990 0
DWIDTH 22 0
BBX 18 20 2 -5
BITMAP
7F9980
7F9980
019980
011980
031980
031F80
061F80
0C1980
181980
301980
E01980
401980
000000
30FF80
30FF80
300C00
301C00
311600
3F7300
38C1C0
ENDCHAR
STARTCHAR AC22
ENCODING 44066
SWIDTH 990 0
DWIDTH 22 0
BBX 17 20 2 -4
BITMAP
7F9980
7F9980
019980
011980
031F80
031F80
061980
0C1980
181980
301980
E01980
400180
000C00
30FF80
300000
303F00
306180
304180
3F6380
003F00
ENDCHAR
STARTCHAR AC23
ENCODING 44067
SWIDTH 990 0
DWIDTH 22 0
BBX 17 20 2 -4
BITMAP
7F9980
7F9980
019980
011980
031980
031F80
061F80
041980
1C1980
301980
E01980
401980
0FFF80
0FFF80
0C0000
0C0000
0C0000
0C0000
0FFF80
0FFF80
ENDCHAR
STARTCHAR AC24
ENCODING 44068
SWIDTH 990 0
DWIDTH 22 0
BBX 17 20 2 -4
BITMAP
7F9980
7F9980
019980
019980
031F80
031F80
061980
0C1980
181980
701980
E00000
0FFF80
0FFF80
000180
0FFF80
0FFF80
0C0000
0C0000
0FFF80
0FFF80
ENDCHAR
STARTCHAR AC25
ENCODING 44069
SWIDTH 990 0
DWIDTH 22 0
BBX 17 19 2 -4
BITMAP
7F9980
7F9980
019980
011980
031F80
031F80
061980
0C1980
181980
301980
E01980
5FDF80
1FDF80
00C180
1FC180
1FC180
180180
1FE180
1FE180
ENDCHAR
STARTCHAR AC26
ENCODING 44070
SWIDTH 990 0
DWIDTH 22 0
BBX 17 19 2 -3
BITMAP
7F9980
7F9980
019980
031980
031F80
071F80
061980
0C1980
181980
701980
E01980
7FBF80
3FBF80
01B180
3FB180
3FB180
303180
3FBF80
3FBF80
ENDCHAR
STARTCHAR AC27
ENCODING 44071
SWIDTH 990 0
DWIDTH 22 0
BBX 17 19 2 -4
BITMAP
7F9980
7F9980
019980
031980
031F80
071F80
061980
0C1980
181980
701980
E01980
7FB980
3FB180
01B180
3FBF80
3FBF80
303180
303180
3FBF80
ENDCHAR
STARTCHAR AC28
ENCODING 44072
SWIDTH 990 0
DWIDTH 22 0
BBX 17 19 2 -4
BITMAP
7F9980
7F9980
019980
031980
031F80
031F80
061980
0C1980
181980
701980
E01980
7F9D80
3F8400
018400
3F8600
3F8E00
301B00
3FB180
3FA080
ENDCHAR
STARTCHAR AC29
ENCODING 44073
SWIDTH 990 0
DWIDTH 22 0
BBX 18 19 2 -3
BITMAP
7F9980
7F9980
019980
031980
031F80
031F80
061980
0C1980
1C1980
301980
E01980
5F9F80
1F9F80
019800
1F9F80
1F9F80
181800
1FDFC0
1FDFC0
ENDCHAR
STARTCHAR AC2A
ENCODING 44074
SWIDTH 990 0
DWIDTH 22 0
BBX 17 19 2 -3
BITMAP
7F9980
7F9980
009980
011980
011F80
031F80
061980
0C1980
181980
701980
E01980
7FFF80
3FFF80
019B00
3F9B00
3F9B00
201B00
3FFF80
3FFF80
ENDCHAR
STARTCHAR AC2B
ENCODING 44075
SWIDTH 990 0
DWIDTH 22 0
BBX 17 20 2 -4
BITMAP
7F9980
7F9980
009980
011980
011F80
031F80
061980
0C1980
181980
701980
E01980
000180
3F8C00
3FFF80
018C00
3FBF00
3FE180
306180
3FFF80
3FBF00
ENDCHAR
STARTCHAR AC2C
ENCODING 44076
SWIDTH 990 0
DWIDTH 22 0
BBX 17 20 2 -4
BITMAP
7F9980
7F9980
019980
019980
011980
031F80
061F80
041980
181980
301980
E01980
000000
0FFF80
0FFF80
0C0180
0C0180
0C0180
0C0180
0FFF80
0FFF80
ENDCHAR
STARTCHAR AC2D
ENCODING 44077
SWIDTH 990 0
DWIDTH 22 0
BBX 16 19 3 -4
BITMAP
FF33
FF33
0333
0233
023F
063F
0C33
1833
3033
E033
8000
1803
1803
1803
1FFF
1FFF
1803
1803
1FFF
ENDCHAR
STARTCHAR AC2E
ENCODING 44078
SWIDTH 990 0
DWIDTH 22 0
BBX 18 19 2 -4
BITMAP
7F9980
7F9980
019980
011980
031F80
031F80
061980
041980
1C1980
301980
E01980
401980
318600
318600
3F8600
3F8F00
318F00
319980
3FF0C0
ENDCHAR
STARTCHAR AC2F
ENCODING 44079
SWIDTH 990 0
DWIDTH 22 0
BBX 17 20 3 -4
BITMAP
FF3300
FF3300
033300
033300
023300
063300
043F00
0C3F00
183300
303300
E03300
C00300
00C300
00C000
01E000
01A000
073000
0E0C00
780780
200180
ENDCHAR
STARTCHAR AC30
ENCODING 44080
SWIDTH 990 0
DWIDTH 22 0
BBX 18 19 2 -4
BITMAP
7F9980
7F9980
019980
019980
011980
031980
021F80
061F80
0C1980
381980
F01980
400180
060400
060400
060600
0F0E00
099B00
18B180
7060C0
ENDCHAR
STARTCHAR AC31
ENCODING 44081
SWIDTH 990 0
DWIDTH 22 0
BBX 17 20 2 -4
BITMAP
7F9980
7F9980
009980
019980
011980
011980
021F80
061F80
0C1980
181980
F01980
400180
007000
03FE00
070780
0C0180
0C0180
0E0380
07FF00
01FC00
ENDCHAR
STARTCHAR AC32
ENCODING 44082
SWIDTH 990 0
DWIDTH 22 0
BBX 18 20 2 -5
BITMAP
7F9980
7F9980
019980
011980
031980
031F80
061F80
0C1980
1C1980
301980
E01980
401980
000000
1FFF80
1FFF80
006000
00F000
01B800
070E00
3C03C0
ENDCHAR
STARTCHAR AC33
ENCODING 44083
SWIDTH 990 0
DWIDTH 22 0
BBX 18 20 2 -5
BITMAP
7F9980
7F9980
019980
011980
031980
031F80
061F80
0C1980
1C1980
301980
E01980
401980
006000
1FFF80
1FFF80
006000
00F000
019C00
0E0700
3801C0
ENDCHAR
STARTCHAR AC34
ENCODING 44084
SWIDTH 990 0
DWIDTH 22 0
BBX 17 20 2 -5
BITMAP
7F9980
7F9980
019980
011980
031980
031F80
061F80
0C1980
1C1980
301980
E01980
401980
000000
1FFF80
1FFF80
000180
1FFF80
1FFF80
000180
000180
ENDCHAR
STARTCHAR AC35
ENCODING 44085
SWIDTH 990 0
DWIDTH 22 0
BBX 17 19 2 -3
BITMAP
7F9980
7F9980
019980
011980
031F80
031F80
061980
0C1980
181980
301980
E01980
4FFF80
0FFF80
0C0000
0FFF00
0FFF00
0C0000
0FFF80
0FFF80
ENDCHAR
STARTCHAR AC36
ENCODING 44086
SWIDTH 990 0
DWIDTH 22 0
BBX 18 20 2 -4
BITMAP
7F9980
7F9980
019980
011980
011980
031F80
021F80
041980
0C1980
301980
E01980
401980
000000
1FFF80
1FFF80
030400
030400
030400
1FFFC0
1FFFC0
ENDCHAR
STARTCHAR AC37
ENCODING 44087
SWIDTH 990 0
DWIDTH 22 0
BBX 18 20 2 -4
BITMAP
7F9980
7F9980
019980
011980
011980
031F80
061F80
0C1980
181980
301980
E01980
007980
006000
1FFFC0
000000
03FC00
0E0700
0C0300
0FFF00
03FC00
ENDCHAR
STARTCHAR AC38
ENCODING 44088
SWIDTH 990 0
DWIDTH 22 0
BBX 19 20 2 -4
BITMAP
000300
7FC300
7FC300
00C300
00C3E0
0083E0
008300
018300
010300
030300
060300
0C0300
1803E0
3003E0
E00300
000300
000300
000300
000300
000300
ENDCHAR
STARTCHAR AC39
ENCODING 44089
SWIDTH 990 0
DWIDTH 22 0
BBX 19 20 2 -4
BITMAP
7FC300
7FC300
00C3E0
0083E0
018300
010300
030300
0603E0
1C03E0
300300
E00300
000000
3FFF00
3FFF00
000300
000300
000300
000300
000300
000300
ENDCHAR
STARTCHAR AC3A
ENCODING 44090
SWIDTH 990 0
DWIDTH 22 0
BBX 19 21 2 -5
BITMAP
7FC300
7FC300
004300
0083E0
0083E0
018300
010300
020300
0403E0
1803E0
700300
C00300
000000
3FFF00
3FFF00
018300
018300
018300
018300
018300
018300
ENDCHAR
STARTCHAR AC3B
ENCODING 44091
SWIDTH 990 0
DWIDTH 22 0
BBX 19 21 2 -5
BITMAP
7FC300
7FC300
008300
0083E0
0183E0
010300
030300
060300
0C03E0
1803E0
700300
C00300
000000
7F0C00
7F0C00
030C00
030C00
031E00
033300
03E1C0
030000
ENDCHAR
STARTCHAR AC3C
ENCODING 44092
SWIDTH 990 0
DWIDTH 22 0
BBX 19 19 2 -4
BITMAP
7FC300
7FC300
00C300
008300
0183E0
0103E0
030300
060300
0C0300
1803E0
7003E0
E00300
000300
180300
180300
180000
180000
180000
1FFF00
ENDCHAR
STARTCHAR AC3D
ENCODING 44093
SWIDTH 990 0
DWIDTH 22 0
BBX 18 20 2 -5
BITMAP
7F8600
7F8600
018600
0187C0
0107C0
030600
060600
0C07C0
1807C0
700600
E00600
000600
000000
61FF00
61FF00
603000
603000
627800
7ECC00
718300
ENDCHAR
STARTCHAR AC3E
ENCODING 44094
SWIDTH 990 0
DWIDTH 22 0
BBX 19 19 1 -3
BITMAP
7FE300
7FE300
0063E0
00C3E0
00C300
01C300
0383E0
0703E0
0E0300
3C0300
F00300
400300
000C00
30FF80
300000
303F00
306180
306180
3F3F00
ENDCHAR
STARTCHAR AC3F
ENCODING 44095
SWIDTH 990 0
DWIDTH 22 0
BBX 19 21 2 -5
BITMAP
7FC300
7FC300
00C300
0083E0
0183E0
010300
030300
060300
0C03E0
1803E0
700300
C00300
000000
1FFF00
1FFF00
180000
180000
180000
180000
1FFF00
1FFF00
ENDCHAR
STARTCHAR AC40
ENCODING 44096
SWIDTH 990 0
DWIDTH 22 0
BBX 19 20 2 -4
BITMAP
7FC300
7FC300
00C3E0
0083E0
018300
030300
0603E0
0C03E0
380300
E00300
000000
1FFF00
1FFF00
000300
1FFF00
1FFF00
180000
180000
1FFF00
1FFF00
ENDCHAR
STARTCHAR AC41
ENCODING 44097
SWIDTH 990 0
DWIDTH 22 0
BBX 18 21 2 -5
BITMAP
FF8600
FF8600
008600
0087C0
0107C0
010600
020600
060600
0C07C0
1007C0
600600
800600
000000
7F7E00
7F7E00
030600
7F0600
7F0600
600600
7F8600
7E0600
ENDCHAR
STARTCHAR AC42
ENCODING 44098
SWIDTH 990 0
DWIDTH 22 0
BBX 19 19 1 -3
BITMAP
7FC300
7FC300
0083E0
0083E0
018300
010300
0303E0
0603E0
1C0300
380300
F00300
7F7F00
3F7F00
036300
3F6300
3F6300
306300
3FFF00
3FFF00
ENDCHAR
STARTCHAR AC43
ENCODING 44099
SWIDTH 990 0
DWIDTH 22 0
BBX 19 19 2 -4
BITMAP
7FC300
7FC300
00C3E0
00C3E0
018300
038300
0303E0
0E03E0
1C0300
780300
F00300
400300
7F6300
7F6300
037F00
7F7F00
7F6300
606300
7F7F00
ENDCHAR
STARTCHAR AC44
ENCODING 44100
SWIDTH 990 0
DWIDTH 22 0
BBX 19 21 2 -5
BITMAP
7FC300
7FC300
008300
0183E0
0183E0
030300
030300
060300
0C03E0
3803E0
700300
C00300
000000
7F0C00
7F0C00
030C00
7F1E00
7F1E00
603300
7F6180
7F4000
ENDCHAR
STARTCHAR AC45
ENCODING 44101
SWIDTH 990 0
DWIDTH 22 0
BBX 19 19 1 -3
BITMAP
7FE300
7FC300
0043E0
00C3E0
00C300
018300
0303E0
0703E0
0E0300
380300
F00300
400300
3FBF00
3FBF00
3FBF00
3FBF00
303000
3FBF80
3FBF80
ENDCHAR
STARTCHAR AC46
ENCODING 44102
SWIDTH 990 0
DWIDTH 22 0
BBX 19 21 2 -5
BITMAP
7FC300
7FC300
00C300
0083E0
0183E0
018300
030300
060300
0C03E0
1803E0
700300
C00300
000000
7FFF00
7FFF00
033200
7F3200
7F3200
603200
7FFF00
7FFF00
ENDCHAR
STARTCHAR AC47
ENCODING 44103
SWIDTH 990 0
DWIDTH 22 0
BBX 19 20 2 -4
BITMAP
7FC300
7FC300
0083E0
0083E0
018300
030300
030300
0603E0
1C03E0
380300
F00300
C00300
7F1800
7FFF00
031800
7F7E00
7FC300
60C300
7FFF00
7F3E00
ENDCHAR
STARTCHAR AC48
ENCODING 44104
SWIDTH 990 0
DWIDTH 22 0
BBX 19 21 2 -5
BITMAP
7FC300
7FC300
00C300
00C3E0
0083E0
018300
030300
060300
0C03E0
1803E0
700300
C00300
000000
1FFF00
1FFF00
180300
180300
180300
180300
1FFF00
1FFF00
ENDCHAR
STARTCHAR AC49
ENCODING 44105
SWIDTH 990 0
DWIDTH 22 0
BBX 19 19 2 -4
BITMAP
7FC300
7FC300
00C3E0
00C3E0
018300
018300
030300
0603E0
0C03E0
380300
F00300
C00300
180300
180300
1FFF00
1FFF00
180300
180300
1FFF00
ENDCHAR
STARTCHAR AC4A
ENCODING 44106
SWIDTH 990 0
DWIDTH 22 0
BBX 19 19 1 -4
BITMAP
7FE300
7FE300
0063E0
00C3E0
00C300
018300
0383E0
0703E0
0E0300
3C0300
F00300
400300
30C200
30C200
3FC200
3FC700
30C700
30C980
3FD8C0
ENDCHAR
STARTCHAR AC4B
ENCODING 44107
SWIDTH 990 0
DWIDTH 22 0
BBX 19 19 2 -4
BITMAP
7FC300
7FC300
00C300
0183E0
0183E0
030300
030300
060300
0C03E0
3803E0
E00300
00C300
00C300
01E000
01E000
033000
061800
1C0E00
700380
ENDCHAR
STARTCHAR AC4C
ENCODING 44108
SWIDTH 990 0
DWIDTH 22 0
BBX 19 20 2 -5
BITMAP
7FC300
7FC300
00C300
0083E0
0083E0
018300
030300
060300
0C03E0
1803E0
700300
C00300
000000
060C00
060C00
060C00
0F1E00
199300
30B180
6060C0
ENDCHAR
STARTCHAR AC4D
ENCODING 44109
SWIDTH 990 0
DWIDTH 22 0
BBX 19 21 2 -5
BITMAP
7FC300
7FC300
00C300
0083E0
0183E0
010300
030300
060300
0C03E0
1803E0
700300
C00300
07F800
1FFE00
380700
300300
300300
300300
1C0E00
0FFC00
00C000
ENDCHAR
STARTCHAR AC4E
ENCODING 44110
SWIDTH 990 0
DWIDTH 22 0
BBX 19 21 2 -5
BITMAP
7FC300
7FC300
00C300
0083E0
0183E0
018300
030300
060300
0C03E0
1803E0
700300
C00300
000000
000000
3FFF00
3FFF00
00C000
01E000
073800
3C0F00
200300
ENDCHAR
STARTCHAR AC4F
ENCODING 44111
SWIDTH 990 0
DWIDTH 22 0
BBX 18 21 2 -5
BITMAP
FFC600
FF8600
018600
0187C0
0387C0
030600
060600
0E0600
1C07C0
3807C0
E00600
C00600
000000
018000
7FFE00
7FFE00
018000
03C000
0E7000
781F00
600200
ENDCHAR
STARTCHAR AC50
ENCODING 44112
SWIDTH 990 0
DWIDTH 22 0
BBX 19 21 2 -5
BITMAP
7FC300
7FC300
00C300
0083E0
0183E0
018300
030300
060300
0C03E0
1803E0
700300
C00300
000000
3FFF00
3FFF00
000300
3FFF00
3FFF00
000300
000300
000300
ENDCHAR
STARTCHAR AC51
ENCODING 44113
SWIDTH 990 0
DWIDTH 22 0
BBX 19 21 2 -5
BITMAP
7FC300
7FC300
00C300
0083E0
0183E0
010300
030300
060300
0C03E0
1803E0
700300
C00300
000000
1FFF00
1FFF00
180000
1FFE00
1FFE00
180000
1FFF00
1FFF00
ENDCHAR
STARTCHAR AC52
ENCODING 44114
SWIDTH 990 0
DWIDTH 22 0
BBX 19 21 2 -5
BITMAP
7FC300
7FC300
00C300
0083E0
0183E0
018300
030300
060300
0C03E0
1803E0
700300
C00300
000000
3FFF00
3FFF00
060C00
060C00
060C00
060C00
3FFF80
3FFF80
ENDCHAR
STARTCHAR AC53
ENCODING 44115
SWIDTH 990 0
DWIDTH 22 0
BBX 19 20 2 -4
BITMAP
7FC300
7FC300
01C3E0
0183E0
018300
030300
070300
0603E0
1C03E0
380300
F00300
C00300
00C000
3FFF80
000000
07FC00
1C0700
180300
1FFF00
07FC00
ENDCHAR
STARTCHAR AC54
ENCODING 44116
SWIDTH 990 0
DWIDTH 22 0
BBX 17 20 2 -4
BITMAP
001980
7F9980
7F9980
019980
019F80
019F80
011980
031980
021980
061980
0C1980
181F80
301F80
601980
C01980
001980
001980
001980
001980
000180
ENDCHAR
STARTCHAR AC55
ENCODING 44117
SWIDTH 990 0
DWIDTH 22 0
BBX 16 21 3 -5
BITMAP
FF33
FF33
0333
0333
063F
063F
0C33
0833
183F
303F
C033
8033
0000
3FFF
3FFF
0003
0003
0003
0003
0003
0003
ENDCHAR
STARTCHAR AC56
ENCODING 44118
SWIDTH 990 0
DWIDTH 22 0
BBX 16 21 3 -5
BITMAP
FF33
FF33
0333
0333
063F
063F
0C33
0833
183F
303F
C033
8033
0000
3FFF
3FFF
0183
0183
0183
0183
0183
0183
ENDCHAR
STARTCHAR AC57
ENCODING 44119
SWIDTH 990 0
DWIDTH 22 0
BBX 18 21 3 -5
BITMAP
FF3300
FF3300
033300
073300
063F00
063F00
0C3300
183300
383F00
703F00
C03300
803300
000000
7F0C00
7F0C00
030C00
030C00
031E00
033300
03E1C0
030000
ENDCHAR
STARTCHAR AC58
ENCODING 44120
SWIDTH 990 0
DWIDTH 22 0
BBX 18 19 2 -4
BITMAP
7F9980
7F9980
019980
019980
011F80
031F80
021980
061980
0C1F80
181F80
701980
E01980
001980
0C1980
0C0000
0C0000
0C0000
0C0000
0FFFC0
ENDCHAR
STARTCHAR AC59
ENCODING 44121
SWIDTH 990 0
DWIDTH 22 0
BBX 17 20 3 -5
BITMAP
FF3300
FF3300
033300
033300
063F00
063F00
0C3300
083300
183F00
303F00
C03300
803300
000000
61FF00
61FF00
601800
601800
623C00
7E6600
738380
ENDCHAR
STARTCHAR AC5A
ENCODING 44122
SWIDTH 990 0
DWIDTH 22 0
BBX 17 20 2 -4
BITMAP
7F9980
7F9980
019980
011F80
031F80
031980
061980
0C1F80
1C1F80
381980
E01980
400180
300C00
30FF80
300000
303F00
306180
304180
3F6380
003F00
ENDCHAR
STARTCHAR AC5B
ENCODING 44123
SWIDTH 990 0
DWIDTH 22 0
BBX 16 20 3 -4
BITMAP
FF33
FF33
0333
0333
023F
063F
0C33
0C33
183F
303F
C033
8033
0000
1FFF
1FFF
1800
1800
1800
1FFF
1FFF
ENDCHAR
STARTCHAR AC5C
ENCODING 44124
SWIDTH 990 0
DWIDTH 22 0
BBX 16 20 3 -4
BITMAP
FF33
FF33
033F
023F
0633
0633
0C3F
183F
3033
E033
8000
1FFF
1FFF
0003
1FFF
1FFF
1800
1800
1FFF
1FFF
ENDCHAR
STARTCHAR AC5D
ENCODING 44125
SWIDTH 990 0
DWIDTH 22 0
BBX 17 19 2 -4
BITMAP
7F9980
7F9980
019980
019F80
031F80
031980
061980
0C1F80
1C1F80
381980
E01980
5FDF80
1FDF80
00C180
1FC180
1FC180
180180
1FE180
1FE180
ENDCHAR
STARTCHAR AC5E
ENCODING 44126
SWIDTH 990 0
DWIDTH 22 0
BBX 17 19 2 -3
BITMAP
7F9980
7F9980
019F80
039F80
031980
071980
0E1F80
1C1F80
3C1980
781980
E01980
7FBF80
3FBF80
01B180
3FB180
3FB180
303180
3FBF80
3FBF80
ENDCHAR
STARTCHAR AC5F
ENCODING 44127
SWIDTH 990 0
DWIDTH 22 0
BBX 17 19 2 -4
BITMAP
7F9980
7F9980
019F80
039F80
031980
071980
0E1F80
1C1F80
3C1980
781980
E01980
7FB980
3FB180
01B180
3FBF80
3FBF80
303180
303180
3FBF80
ENDCHAR
STARTCHAR AC60
ENCODING 44128
SWIDTH 990 0
DWIDTH 22 0
BBX 17 19 2 -4
BITMAP
7F9980
7F9980
019F80
039F80
031980
071980
061F80
0C1F80
3C1980
781980
E01980
7F9D80
3F8400
018400
3F8600
3F8E00
301B00
3FB180
3FA080
ENDCHAR
STARTCHAR AC61
ENCODING 44129
SWIDTH 990 0
DWIDTH 22 0
BBX 18 19 2 -3
BITMAP
7F9980
7F9980
019F80
039F80
031980
031980
061980
0E1F80
1C1F80
381980
F01980
5F9F80
1F9F80
019800
1F9F80
1F9F80
181800
1FDFC0
1FDFC0
ENDCHAR
STARTCHAR AC62
ENCODING 44130
SWIDTH 990 0
DWIDTH 22 0
BBX 17 19 2 -3
BITMAP
7F9980
7F9980
009F80
019F80
011980
031980
061F80
0C1F80
3C1980
781980
E01980
7FFF80
3FFF80
019B00
3F9B00
3F9B00
201B00
3FFF80
3FFF80
ENDCHAR
STARTCHAR AC63
ENCODING 44131
SWIDTH 990 0
DWIDTH 22 0
BBX 17 20 2 -4
BITMAP
7F9980
7F9980
009980
019F80
011F80
031980
061980
0E1F80
1C1F80
381980
E01980
401980
3F8C00
3FFF80
018C00
3FBF00
3FE180
306180
3FFF80
3FBF00
ENDCHAR
STARTCHAR AC64
ENCODING 44132
SWIDTH 990 0
DWIDTH 22 0
BBX 16 20 3 -4
BITMAP
FF33
FF33
0333
0333
023F
063F
0433
0833
183F
303F
C033
8033
0000
1FFF
1FFF
1803
1803
1803
1FFF
1FFF
ENDCHAR
STARTCHAR AC65
ENCODING 44133
SWIDTH 990 0
DWIDTH 22 0
BBX 17 19 2 -4
BITMAP
7F9980
7F9980
019980
019F80
011F80
031980
061980
0C1F80
1C1F80
381980
E01980
401980
0C0180
0C0180
0FFF80
0FFF80
0C0180
0C0180
0FFF80
ENDCHAR
STARTCHAR AC66
ENCODING 44134
SWIDTH 990 0
DWIDTH 22 0
BBX 18 19 2 -4
BITMAP
7F9980
7F9980
019980
019F80
031F80
031980
061980
061F80
0C1F80
381980
F01980
401980
318600
318600
3F8600
3F8F00
318F00
319980
3FF0C0
ENDCHAR
STARTCHAR AC67
ENCODING 44135
SWIDTH 990 0
DWIDTH 22 0
BBX 17 20 3 -5
BITMAP
FF3300
FF3300
033300
033300
023F00
063F00
043300
0C3300
183F00
303F00
E03300
803300
003300
00C300
00C300
01E000
03B000
071C00
3C0F00
300380
ENDCHAR
STARTCHAR AC68
ENCODING 44136
SWIDTH 990 0
DWIDTH 22 0
BBX 17 20 3 -5
BITMAP
FF3300
FF3300
033300
033300
023F00
063F00
043300
083300
183F00
303F00
C03300
803300
000000
0C0800
0C0800
0E0C00
1E1C00
333600
616380
C0C180
ENDCHAR
STARTCHAR AC69
ENCODING 44137
SWIDTH 990 0
DWIDTH 22 0
BBX 16 21 3 -5
BITMAP
FF33
FF33
0133
0333
023F
063F
0433
0C33
183F
303F
E033
8033
0000
03F8
0FFE
1C07
1803
1803
1C07
07FE
00E0
ENDCHAR
STARTCHAR AC6A
ENCODING 44138
SWIDTH 990 0
DWIDTH 22 0
BBX 18 20 2 -4
BITMAP
7F9980
7F9980
019980
011F80
031F80
031980
061980
0C1F80
181F80
301980
E01980
001980
000000
1FFF80
1FFF80
006000
00F000
039C00
1E07C0
1801C0
ENDCHAR
STARTCHAR AC6B
ENCODING 44139
SWIDTH 990 0
DWIDTH 22 0
BBX 17 21 3 -5
BITMAP
FF3300
FF3300
033300
033300
023F00
063F00
0C3300
083300
183F00
303F00
C03300
803300
00C000
00C000
3FFF00
3FFF00
00C000
01E000
061800
7C0F80
200100
ENDCHAR
STARTCHAR AC6C
ENCODING 44140
SWIDTH 990 0
DWIDTH 22 0
BBX 16 21 3 -5
BITMAP
FF33
FF33
0333
0333
063F
063F
0C33
0833
183F
303F
C033
8033
0000
3FFF
3FFF
0003
3FFF
3FFF
0003
0003
0003
ENDCHAR
STARTCHAR AC6D
ENCODING 44141
SWIDTH 990 0
DWIDTH 22 0
BBX 17 19 2 -3
BITMAP
7F9980
7F9980
019980
019F80
031F80
031980
061980
0E1F80
1C1F80
381980
E01980
4FFF80
0FFF80
0C0000
0FFF00
0FFF00
0C0000
0FFF80
0FFF80
ENDCHAR
STARTCHAR AC6E
ENCODING 44142
SWIDTH 990 0
DWIDTH 22 0
BBX 17 21 3 -5
BITMAP
FF3300
FF3300
013300
033300
023F00
063F00
043300
0C3300
183F00
303F00
C03300
803300
000000
3FFF00
3FFF00
060800
060800
060800
060800
3FFF80
3FFF80
ENDCHAR
STARTCHAR AC6F
ENCODING 44143
SWIDTH 990 0
DWIDTH 22 0
BBX 18 20 2 -4
BITMAP
7F9980
7F9980
019980
019F80
011F80
031980
061980
0E1F80
1C1F80
381980
F01980
401980
006000
1FFFC0
000000
03FC00
0E0700
0C0300
0FFF00
03FC00
ENDCHAR
STARTCHAR AC70
ENCODING 44144
SWIDTH 990 0
DWIDTH 22 0
BBX 17 20 2 -4
BITMAP
000180
7FE180
7FE180
006180
006180
00C180
00C180
01C180
01BF80
033F80
070180
0E0180
1C0180
300180
E00180
000180
000180
000180
000180
000180
ENDCHAR
STARTCHAR AC71
ENCODING 44145
SWIDTH 990 0
DWIDTH 22 0
BBX 16 20 2 -5
BITMAP
7FC3
7FC3
00C3
0083
0183
03BF
073F
0E03
1C03
3803
E003
0000
3FFF
3FFF
0003
0003
0003
0003
0003
0003
ENDCHAR
STARTCHAR AC72
ENCODING 44146
SWIDTH 990 0
DWIDTH 22 0
BBX 16 21 2 -5
BITMAP
7FC3
7FC3
00C3
0083
01BF
03BF
0303
0603
0C03
3803
F003
C003
0000
3FBF
3FBF
0183
0183
0183
0183
0183
0183
ENDCHAR
STARTCHAR AC73
ENCODING 44147
SWIDTH 990 0
DWIDTH 22 0
BBX 19 20 2 -5
BITMAP
7FC180
7FC180
00C180
008180
019F80
011F80
030180
060180
0C0180
380180
F00180
C00180
3F8600
3F8600
018600
018600
018F00
018B80
0191C0
01E060
ENDCHAR
STARTCHAR AC74
ENCODING 44148
SWIDTH 990 0
DWIDTH 22 0
BBX 17 19 2 -4
BITMAP
7FC180
7FC180
00C180
00C180
008180
018180
030180
023F80
063F80
0C0180
300180
E00180
000180
0C0180
0C0180
0C0000
0C0000
0C0000
0FFF80
ENDCHAR
STARTCHAR AC75
ENCODING 44149
SWIDTH 990 0
DWIDTH 22 0
BBX 18 20 2 -5
BITMAP
7FC300
7FC300
00C300
008300
01BF00
01BF00
030300
060300
0C0300
380300
F00300
C00300
30FF80
30FF80
301800
301800
303C00
333E00
3F6700
39C3C0
ENDCHAR
STARTCHAR AC76
ENCODING 44150
SWIDTH 990 0
DWIDTH 22 0
BBX 17 20 2 -4
BITMAP
7FC300
7FC300
00C300
008300
01BF00
013F00
030300
060300
0C0300
380300
F00300
C01B00
601800
61FF80
601800
607E00
60C300
60C300
7FC700
007E00
ENDCHAR
STARTCHAR AC77
ENCODING 44151
SWIDTH 990 0
DWIDTH 22 0
BBX 16 20 2 -4
BITMAP
7FC3
7FC3
00C3
0083
0183
013F
033F
0603
1C03
3803
E003
0000
1FFF
1FFF
1800
1800
1800
1800
1FFF
1FFF
ENDCHAR
STARTCHAR AC78
ENCODING 44152
SWIDTH 990 0
DWIDTH 22 0
BBX 17 20 2 -4
BITMAP
7FC300
7FC300
00C300
008300
018300
033F00
033F00
060300
1C0300
300300
E00300
1FFF00
1FFF00
000300
1FFF00
1FFF00
180000
180000
1FFF80
1FFF80
ENDCHAR
STARTCHAR AC79
ENCODING 44153
SWIDTH 990 0
DWIDTH 22 0
BBX 16 20 2 -4
BITMAP
7FC3
7FC3
00C3
0183
01BF
033F
0303
0603
0C03
3803
E003
3FBF
3FBF
0183
3F83
3F83
3003
3FC3
3FC3
0003
ENDCHAR
STARTCHAR AC7A
ENCODING 44154
SWIDTH 990 0
DWIDTH 22 0
BBX 16 20 2 -4
BITMAP
7FC3
7FC3
00C3
0083
01BF
033F
0603
0C03
1803
7003
C003
3FBF
3FBF
01B3
3FB3
3FB3
3033
3033
3FBF
3C3F
ENDCHAR
STARTCHAR AC7B
ENCODING 44155
SWIDTH 990 0
DWIDTH 22 0
BBX 16 19 2 -4
BITMAP
7FC3
7FC3
00C3
0083
01BF
013F
0303
0603
0C03
3003
E003
3FB3
3FB3
01B3
3FBF
3FBF
3033
3033
3FBF
ENDCHAR
STARTCHAR AC7C
ENCODING 44156
SWIDTH 990 0
DWIDTH 22 0
BBX 17 20 2 -4
BITMAP
7FC300
7FC300
00C300
008300
01BF00
013F00
030300
060300
0C0300
380300
F00300
FF8300
3F8400
018400
3F8C00
3F8E00
301A00
303B00
3FF180
3F8080
ENDCHAR
STARTCHAR AC7D
ENCODING 44157
SWIDTH 990 0
DWIDTH 22 0
BBX 16 20 2 -4
BITMAP
7FC3
7FC3
0083
0083
00BF
013F
0203
0603
0C03
3803
E003
BFBF
3FBF
01A0
3FBF
3FBF
3020
3020
3FBF
3FBF
ENDCHAR
STARTCHAR AC7E
ENCODING 44158
SWIDTH 990 0
DWIDTH 22 0
BBX 17 19 2 -3
BITMAP
7FC300
7FC300
00C300
008300
01BF00
013F00
030300
060300
0C0300
380300
E00300
FF7F80
3F7F80
033300
3F3300
3F3300
203300
3F7F80
3F7F80
ENDCHAR
STARTCHAR AC7F
ENCODING 44159
SWIDTH 990 0
DWIDTH 22 0
BBX 17 20 2 -4
BITMAP
7FC300
7FC300
004300
008300
009F00
011F00
030300
0E0300
1C0300
700300
E00F00
7F0F00
7F7F80
030000
7F1C00
7F3E00
606300
606300
7FFF00
7F1C00
ENDCHAR
STARTCHAR AC80
ENCODING 44160
SWIDTH 990 0
DWIDTH 22 0
BBX 16 20 2 -4
BITMAP
7FC3
7FC3
00C3
0083
0183
033F
033F
0E03
1C03
3803
E003
0000
1FFF
1FFF
1803
1803
1803
1803
1FFF
1FFF
ENDCHAR
STARTCHAR AC81
ENCODING 44161
SWIDTH 990 0
DWIDTH 22 0
BBX 16 20 2 -5
BITMAP
7FC3
7FC3
00C3
0083
0183
0303
033F
063F
0C03
3803
F003
C000
1803
1803
1803
1FFF
1FFF
1803
1803
1FFF
ENDCHAR
STARTCHAR AC82
ENCODING 44162
SWIDTH 990 0
DWIDTH 22 0
BBX 19 19 2 -4
BITMAP
7FC180
7FC180
00C180
008180
019F80
011F80
030180
060180
0C0180
380180
F00180
C00180
30C200
30C200
3FC200
3FC700
30C500
30CDC0
3FF860
ENDCHAR
STARTCHAR AC83
ENCODING 44163
SWIDTH 990 0
DWIDTH 22 0
BBX 19 20 2 -4
BITMAP
7FE180
7FE180
004180
004180
00C180
008180
013F80
033F80
060180
0C0180
380180
E00180
003180
003180
007800
00D800
018C00
070300
3C01E0
100040
ENDCHAR
STARTCHAR AC84
ENCODING 44164
SWIDTH 990 0
DWIDTH 22 0
BBX 18 19 2 -4
BITMAP
7FC300
7FC300
00C300
008300
018300
013F00
033F00
060300
0C0300
380300
E00300
000000
060C00
060C00
060C00
0F1E00
199200
30B180
6060C0
ENDCHAR
STARTCHAR AC85
ENCODING 44165
SWIDTH 990 0
DWIDTH 22 0
BBX 16 20 2 -4
BITMAP
7FC3
7FC3
00C3
0083
0183
0103
033F
063F
0C03
1803
7003
C003
03F8
0FFE
1C07
1803
1803
1C07
0FFE
03F8
ENDCHAR
STARTCHAR AC86
ENCODING 44166
SWIDTH 990 0
DWIDTH 22 0
BBX 17 19 2 -4
BITMAP
7FC300
7FC300
00C300
008300
018300
033F00
033F00
0E0300
1C0300
300300
E00300
000000
3FFF00
3FFF00
00E000
01A000
031000
0E0C00
780380
ENDCHAR
STARTCHAR AC87
ENCODING 44167
SWIDTH 990 0
DWIDTH 22 0
BBX 18 20 2 -5
BITMAP
7FC300
7FC300
00C300
008300
019F00
019F00
030300
060300
0C0300
380300
F00300
C06300
006000
1FFF80
1FFF80
006000
00F000
019800
070E00
3C03C0
ENDCHAR
STARTCHAR AC88
ENCODING 44168
SWIDTH 990 0
DWIDTH 22 0
BBX 16 21 2 -5
BITMAP
7FC3
7FC3
00C3
0083
01BF
03BF
0303
0603
0C03
3803
F003
C003
0000
3FFF
3FFF
0003
3FFF
3FFF
0003
0003
0003
ENDCHAR
STARTCHAR AC89
ENCODING 44169
SWIDTH 990 0
DWIDTH 22 0
BBX 17 20 2 -4
BITMAP
7FC300
7FC300
00C300
008300
018300
033F00
023F00
060300
180300
300300
C00300
1FFF00
1FFF00
180000
1FFF00
1FFF00
180000
180000
1FFF80
1FFF80
ENDCHAR
STARTCHAR AC8A
ENCODING 44170
SWIDTH 990 0
DWIDTH 22 0
BBX 17 20 2 -4
BITMAP
7FC300
7FC300
00C300
008300
018300
013F00
033F00
060300
1C0300
700300
E00300
000000
3FFF00
3FFF00
060C00
060C00
060C00
060C00
3FFF80
3FFF80
ENDCHAR
STARTCHAR AC8B
ENCODING 44171
SWIDTH 990 0
DWIDTH 22 0
BBX 17 20 2 -4
BITMAP
7FC300
7FC300
00C300
008300
01BF00
033F00
060300
1C0300
780300
E06300
006000
1FFF80
000000
00E000
0FFE00
1C0700
180300
1C0700
0FFE00
00F000
ENDCHAR
STARTCHAR AC8C
ENCODING 44172
SWIDTH 990 0
DWIDTH 22 0
BBX 17 20 2 -4
BITMAP
001980
FF1980
FF1980
031980
031980
021980
021980
07F980
05F980
0C1980
181980
301980
601980
C01980
801980
001980
001980
001980
001980
000180
ENDCHAR
STARTCHAR AC8D
ENCODING 44173
SWIDTH 990 0
DWIDTH 22 0
BBX 17 21 2 -5
BITMAP
7F9980
7F9980
019980
019980
037980
037980
061980
0C1980
181980
701980
E01980
001980
000000
1FFF80
1FFF80
000180
000180
000180
000180
000180
000180
ENDCHAR
STARTCHAR AC8E
ENCODING 44174
SWIDTH 990 0
DWIDTH 22 0
BBX 17 21 2 -5
BITMAP
7F9980
7F9980
019980
019980
037980
037980
061980
0C1980
181980
701980
E01980
001980
000000
1FFF80
1FFF80
00C180
00C180
00C180
00C180
00C180
00C180
ENDCHAR
STARTCHAR AC8F
ENCODING 44175
SWIDTH 990 0
DWIDTH 22 0
BBX 18 20 2 -5
BITMAP
7F9980
7F9980
019980
011980
017980
037980
061980
0C1980
181980
701980
E01980
000000
1F8600
1F8600
008600
008600
008F00
009900
00B980
00E0C0
ENDCHAR
STARTCHAR AC90
ENCODING 44176
SWIDTH 990 0
DWIDTH 22 0
BBX 17 19 2 -4
BITMAP
7F9980
7F9980
019980
019980
011980
03F980
06F980
061980
0C1980
181980
701980
E01980
001980
0C1980
0C0000
0C0000
0C0000
0C0000
0FFF80
ENDCHAR
STARTCHAR AC91
ENCODING 44177
SWIDTH 990 0
DWIDTH 22 0
BBX 18 20 2 -5
BITMAP
7F9980
7F9980
009980
011980
017980
037980
061980
0C1980
181980
701980
E01980
000000
307F80
307F80
300C00
300C00
301E00
313700
3F6380
38C1C0
ENDCHAR
STARTCHAR AC92
ENCODING 44178
SWIDTH 990 0
DWIDTH 22 0
BBX 17 20 2 -4
BITMAP
7F9980
7F9980
019980
011980
017980
027980
061980
0C1980
181980
701980
C01980
001800
001800
30FF80
300000
303F00
306380
304180
3F6380
003F00
ENDCHAR
STARTCHAR AC93
ENCODING 44179
SWIDTH 990 0
DWIDTH 22 0
BBX 17 20 2 -4
BITMAP
7F9980
7F9980
019980
011980
037980
037980
061980
0C1980
181980
701980
C01980
000000
0FFF80
0FFF80
0C0000
0C0000
0C0000
0C0000
0FFF80
0FFF80
ENDCHAR
ENDFONT
